<svg width="514" height="514" viewBox="0 0 514 514" fill="none" xmlns="http://www.w3.org/2000/svg">
<rect x="7" y="7" width="500" height="500" rx="88.2353" fill="url(#paint0_linear)"/>
<path fill-rule="evenodd" clip-rule="evenodd" d="M219.402 157.364C226.854 164.517 226.855 176.115 219.403 183.268L142.069 257.503L219.402 331.732C226.854 338.885 226.854 350.482 219.402 357.635C211.95 364.788 199.868 364.788 192.415 357.635L101.589 270.455C94.1371 263.302 94.1369 251.705 101.589 244.552L192.415 157.365C199.867 150.212 211.949 150.212 219.402 157.364Z" fill="url(#paint1_linear)"/>
<path fill-rule="evenodd" clip-rule="evenodd" d="M294.581 357.636C287.129 350.483 287.128 338.885 294.58 331.732L371.914 257.497L294.581 183.268C287.128 176.115 287.128 164.518 294.581 157.365C302.033 150.212 314.115 150.212 321.568 157.365L412.394 244.545C419.846 251.698 419.846 263.295 412.394 270.448L321.568 357.635C314.116 364.788 302.034 364.788 294.581 357.636Z" fill="url(#paint2_linear)"/>
<rect x="7" y="7" width="500" height="500" rx="88.2353" stroke="#E5E5E6" stroke-width="12.8676"/>
<defs>
<linearGradient id="paint0_linear" x1="257" y1="7" x2="257" y2="507" gradientUnits="userSpaceOnUse">
<stop stop-color="#FBFEFF"/>
<stop offset="1" stop-color="#F9F9F9"/>
</linearGradient>
<linearGradient id="paint1_linear" x1="160.496" y1="152" x2="160.496" y2="363" gradientUnits="userSpaceOnUse">
<stop stop-color="#E0E098"/>
<stop offset="1" stop-color="#C0C080"/>
</linearGradient>
<linearGradient id="paint2_linear" x1="353.487" y1="363" x2="353.487" y2="152" gradientUnits="userSpaceOnUse">
<stop stop-color="#E0E098"/>
<stop offset="1" stop-color="#C0C080"/>
</linearGradient>
</defs>
</svg>
