<svg width="52" height="48" viewBox="0 0 52 48" fill="none" xmlns="http://www.w3.org/2000/svg">
<path fill-rule="evenodd" clip-rule="evenodd" d="M8.52543 24.9145C8.5212 24.8804 8.54098 24.8478 8.57321 24.8359L8.66932 24.8003L9.21811 24.5202L9.30701 24.4705C9.34174 24.4511 9.36727 24.4186 9.37794 24.3803L9.40383 24.2872C9.41113 24.261 9.43801 24.2454 9.46441 24.252C9.49102 24.2587 9.50731 24.2855 9.501 24.3122L9.49496 24.3377C9.48356 24.3859 9.52012 24.4321 9.56964 24.4321H9.88971C9.9317 24.4321 9.96574 24.3981 9.96574 24.3561C9.96574 24.3141 9.99978 24.2801 10.0418 24.2801H10.7784C10.8005 24.2801 10.8194 24.2961 10.823 24.318C10.8241 24.3246 10.8237 24.3315 10.8219 24.338L10.8099 24.3791C10.7892 24.4508 10.8413 24.5229 10.9158 24.5256L10.9657 24.5275C10.9768 24.5279 10.9873 24.5222 10.9931 24.5126C11.0013 24.4988 11.0187 24.4937 11.0331 24.501L11.0638 24.5164C11.0877 24.5284 11.1164 24.5252 11.1371 24.5082L11.1542 24.4941C11.1773 24.4751 11.2076 24.4673 11.237 24.4726L11.3262 24.489C11.3523 24.4937 11.379 24.495 11.4054 24.4927L11.5239 24.4823C11.5401 24.4809 11.5565 24.4826 11.5721 24.4873L11.5863 24.4916C11.6128 24.4996 11.6415 24.4957 11.6649 24.481C11.6823 24.47 11.7027 24.465 11.7231 24.4665L11.9902 24.4867C12.0006 24.4875 12.008 24.4972 12.006 24.5074C12.0038 24.5182 12.0121 24.5282 12.023 24.5282H12.1142C12.1188 24.5282 12.1234 24.5285 12.128 24.5292L12.3774 24.5672C12.3815 24.5679 12.3856 24.569 12.3894 24.5705C12.4099 24.5788 12.4234 24.5987 12.4234 24.6208V24.6524C12.4234 24.685 12.439 24.7155 12.4654 24.7345L12.517 24.7715C12.5287 24.78 12.5418 24.7864 12.5555 24.7907L12.6009 24.8047C12.6235 24.8118 12.64 24.8314 12.6429 24.8549C12.6449 24.8711 12.6534 24.8858 12.6665 24.8957L12.678 24.9044C12.7147 24.9321 12.766 24.9294 12.7996 24.898L12.803 24.8949C12.8331 24.8668 12.8773 24.8599 12.9144 24.8776L12.9821 24.9099C12.9964 24.9167 13.0123 24.9191 13.028 24.9169C13.0483 24.9139 13.069 24.9189 13.0857 24.9308L13.1092 24.9475C13.1608 24.9841 13.2296 24.985 13.2821 24.9498L13.3453 24.9074C13.3556 24.9005 13.3687 24.8997 13.3797 24.9053C13.3886 24.9097 13.399 24.9101 13.4082 24.9063L13.6517 24.8054C13.6584 24.8026 13.6661 24.8061 13.6683 24.813C13.6704 24.8193 13.6672 24.8261 13.6609 24.8285L13.4414 24.9123L13.3001 24.9871C13.2938 24.9905 13.289 24.9961 13.2868 25.0029C13.2791 25.026 13.3029 25.0471 13.325 25.0366L13.383 25.0092C13.3926 25.0046 13.4041 25.01 13.4066 25.0204C13.4084 25.0275 13.4053 25.035 13.3991 25.0388L13.3002 25.0996C13.278 25.1133 13.2591 25.1317 13.2449 25.1537L13.1743 25.2625C13.1563 25.2903 13.1434 25.3209 13.136 25.3531C13.1276 25.3896 13.1266 25.4275 13.133 25.4644L13.1477 25.55C13.1526 25.5781 13.1627 25.605 13.1776 25.6294L13.2159 25.6919C13.2177 25.6949 13.2205 25.6972 13.2239 25.6984C13.2403 25.7045 13.2528 25.6831 13.2394 25.6717L13.2076 25.6446C13.2045 25.642 13.2021 25.6385 13.2007 25.6346L13.1762 25.5648C13.1623 25.525 13.157 25.4828 13.1606 25.4409L13.1646 25.3944C13.1688 25.3456 13.1832 25.2983 13.2069 25.2554L13.2348 25.2049C13.2451 25.1862 13.26 25.1704 13.2781 25.1591C13.3342 25.1238 13.4085 25.1385 13.4475 25.192C13.4591 25.208 13.4745 25.221 13.4921 25.2299C13.5554 25.2617 13.6324 25.2341 13.6611 25.1693L13.6981 25.0855C13.7019 25.0768 13.705 25.0677 13.7072 25.0584L13.7398 24.9204C13.7419 24.9115 13.7509 24.9061 13.7597 24.9083C13.7684 24.9105 13.7737 24.9194 13.7715 24.9281L13.7357 25.0724L13.6585 25.2631C13.6517 25.2799 13.6431 25.296 13.6329 25.3111L13.53 25.4634C13.5201 25.478 13.5219 25.4975 13.5344 25.51C13.5489 25.5246 13.5486 25.5482 13.5338 25.5625L13.3863 25.7047C13.3776 25.713 13.3785 25.7271 13.3881 25.7343C13.3958 25.7402 13.4068 25.7394 13.4136 25.7325L13.6227 25.5222C13.6371 25.5077 13.6602 25.5068 13.6756 25.5201C13.6914 25.5338 13.6936 25.5574 13.6807 25.5737L13.6662 25.5919C13.6505 25.6117 13.6481 25.639 13.6601 25.6612L13.7098 25.7528C13.7266 25.7838 13.7324 25.8195 13.7264 25.8542L13.7183 25.9014C13.71 25.9495 13.7376 25.9965 13.7836 26.0127C13.8294 26.0289 13.8803 26.0097 13.904 25.9672L14.0061 25.7846L13.9866 25.8336C13.9714 25.8718 13.9922 25.9148 14.0316 25.9267C14.0358 25.928 14.0399 25.9297 14.0438 25.9317L14.2137 26.0206C14.2275 26.0278 14.2351 26.043 14.2325 26.0584C14.2303 26.072 14.236 26.0858 14.2473 26.0937L14.2992 26.1303C14.3046 26.134 14.3066 26.141 14.3041 26.147C14.2979 26.1619 14.3175 26.1737 14.3277 26.1613L14.332 26.1562C14.3393 26.1474 14.3533 26.1496 14.3575 26.1602L14.3899 26.2419C14.3938 26.2516 14.4003 26.26 14.4088 26.2661L14.4248 26.2776C14.4397 26.2883 14.4604 26.2853 14.4716 26.2707C14.4876 26.2501 14.5198 26.2543 14.53 26.2782L14.5466 26.3174C14.5516 26.3289 14.5634 26.3359 14.5759 26.3347L14.5794 26.3343C14.6018 26.3321 14.6169 26.3565 14.6049 26.3755C14.5936 26.3934 14.6064 26.4168 14.6277 26.4168H14.6618C14.6699 26.4168 14.6779 26.419 14.6849 26.4231L14.7312 26.4503C14.7566 26.4651 14.7847 26.4746 14.8139 26.4781L14.8408 26.4812C14.8817 26.4861 14.9188 26.5075 14.9434 26.5406C14.9647 26.5692 14.9955 26.5892 15.0303 26.5972L15.0869 26.6101C15.1288 26.6197 15.1665 26.6424 15.1946 26.675L15.2367 26.7239C15.2482 26.7372 15.265 26.7449 15.2826 26.7449H15.2982C15.315 26.7449 15.33 26.7341 15.3353 26.7181C15.3396 26.705 15.3506 26.6951 15.3642 26.6922L15.4117 26.6819C15.4389 26.6761 15.4673 26.6795 15.4923 26.6917L15.6908 26.7886C15.7069 26.7964 15.7188 26.8108 15.7235 26.8281C15.7326 26.8616 15.7673 26.8811 15.8006 26.8715L15.8067 26.8698C15.8336 26.862 15.8626 26.8715 15.8797 26.8937L15.8917 26.9092C15.9014 26.9218 15.9052 26.9379 15.9021 26.9535L15.8973 26.9777C15.8939 26.9948 15.9054 27.0114 15.9226 27.0143C15.9327 27.016 15.9414 27.0226 15.9457 27.0319L15.9606 27.0644C15.9743 27.0943 16.0112 27.105 16.0387 27.0871L16.1016 27.0461C16.1103 27.0405 16.1217 27.0467 16.1217 27.057C16.1217 27.0619 16.1245 27.0664 16.1289 27.0686L16.2269 27.1179C16.2416 27.1253 16.2571 27.1308 16.2732 27.1342L16.3482 27.15C16.3817 27.1571 16.4166 27.1518 16.4465 27.1351L16.4566 27.1295C16.4666 27.1239 16.4753 27.1164 16.4823 27.1074L16.4896 27.0979C16.5112 27.0699 16.5502 27.0622 16.5809 27.0798L16.5848 27.082C16.6151 27.0995 16.6266 27.1374 16.6111 27.1687L16.6071 27.1766C16.6019 27.1872 16.601 27.1993 16.6047 27.2105L16.6065 27.2157C16.6115 27.2309 16.6256 27.2411 16.6416 27.2411H16.6866C16.6994 27.2411 16.7065 27.2263 16.6986 27.2163C16.6924 27.2086 16.6952 27.1971 16.7042 27.193L16.7316 27.1804C16.7534 27.1704 16.7788 27.1831 16.784 27.2065C16.7875 27.2224 16.8008 27.2342 16.8169 27.2358L16.9148 27.2456C16.9372 27.2479 16.9587 27.2556 16.9774 27.2682L16.9992 27.2828C17.0129 27.292 17.0295 27.2959 17.0459 27.2937L17.1166 27.2842C17.128 27.2827 17.1375 27.2928 17.1352 27.304C17.1334 27.3133 17.1397 27.3223 17.1491 27.3238L17.3263 27.3512C17.3345 27.3525 17.3425 27.3547 17.3502 27.3578L17.3573 27.3606C17.3941 27.3754 17.4182 27.4111 17.4182 27.4507C17.4182 27.4754 17.4276 27.4992 17.4445 27.5172L17.5402 27.6191C17.5479 27.6273 17.5603 27.629 17.5699 27.6232C17.5822 27.6158 17.5983 27.6209 17.6041 27.634L17.6158 27.6606C17.6216 27.6737 17.6328 27.6836 17.6466 27.6878L17.7866 27.7307C17.8008 27.7351 17.8152 27.7383 17.8299 27.7404L17.8655 27.7455C17.9005 27.7506 17.9362 27.7447 17.9677 27.7289L18.0029 27.7112C18.0106 27.7073 18.0192 27.7058 18.0278 27.7069L18.0308 27.7073C18.0557 27.7104 18.0719 27.7351 18.0649 27.7592L18.0506 27.8079C18.046 27.8237 18.0624 27.8373 18.077 27.8299C18.0828 27.827 18.0896 27.8273 18.0951 27.8306L18.1349 27.8546C18.1548 27.8666 18.1695 27.8856 18.1761 27.9079C18.1846 27.9365 18.2062 27.9592 18.2343 27.9692L18.4012 28.0289C18.4245 28.0372 18.4485 28.0435 18.4728 28.0478L18.4882 28.0506C18.5434 28.0604 18.5997 28.0628 18.6556 28.0577L18.7335 28.0505C18.7421 28.0497 18.7505 28.0478 18.7585 28.0448L18.7796 28.0368C18.7985 28.0297 18.8121 28.0131 18.8153 27.9933L18.8164 27.9867C18.8215 27.9564 18.8521 27.9375 18.8815 27.9468C18.9157 27.9575 18.9281 27.9996 18.9052 28.0272L18.8823 28.055C18.8557 28.0871 18.8605 28.1348 18.893 28.1609L18.8963 28.1636C18.9075 28.1726 18.921 28.1784 18.9353 28.1803L19.0033 28.1894C19.0228 28.1921 19.0425 28.1912 19.0617 28.1869L19.08 28.1828C19.0959 28.1793 19.1125 28.1799 19.1282 28.1846L19.1443 28.1895C19.1686 28.1968 19.1867 28.2171 19.1912 28.2421C19.1963 28.2704 19.2188 28.2924 19.2473 28.2968L19.3787 28.3171C19.3972 28.32 19.416 28.3208 19.4346 28.3196L19.4671 28.3174C19.5056 28.3148 19.5443 28.3219 19.5794 28.3379C19.6019 28.3482 19.6258 28.3548 19.6504 28.3576L19.7611 28.37C19.8052 28.3749 19.8499 28.3701 19.892 28.356L19.9307 28.343C19.9724 28.3291 20.0176 28.3299 20.0587 28.3454L20.1516 28.3805C20.1722 28.3882 20.1954 28.3821 20.2095 28.3651C20.2197 28.3527 20.2352 28.3458 20.2513 28.3465L20.2897 28.3481C20.3602 28.3511 20.4199 28.297 20.4241 28.2267L20.4246 28.2174L20.4387 28.431C20.4398 28.4469 20.4507 28.4604 20.466 28.4648L20.4771 28.468C20.4882 28.4712 20.4999 28.4659 20.505 28.4556C20.514 28.4376 20.5402 28.4381 20.5481 28.4567C20.5505 28.4623 20.555 28.4668 20.5607 28.4692L20.6278 28.4973C20.6407 28.5028 20.6531 28.5095 20.6647 28.5176L20.7346 28.5659C20.7592 28.5829 20.7912 28.5851 20.818 28.5717C20.8407 28.5602 20.8675 28.56 20.8905 28.5711L21.0033 28.6256C21.0343 28.6405 21.0556 28.6701 21.0602 28.7042C21.0654 28.744 21.0935 28.777 21.132 28.7886L21.2085 28.8118C21.2212 28.8156 21.2347 28.8161 21.2477 28.8132L21.2614 28.8101C21.2843 28.805 21.308 28.8145 21.321 28.8341C21.3277 28.8442 21.3374 28.8519 21.3488 28.856L21.3981 28.8741C21.41 28.8784 21.417 28.8908 21.4145 28.9032C21.4123 28.9142 21.4175 28.9253 21.4273 28.9307L21.4683 28.9532C21.4876 28.9638 21.5024 28.9812 21.5097 29.002L21.5243 29.0437C21.5384 29.084 21.5648 29.1189 21.5997 29.1435L21.6821 29.2015C21.6964 29.2116 21.7149 29.2135 21.7309 29.2066C21.7491 29.1988 21.7702 29.2023 21.7848 29.2157L21.8254 29.2528C21.84 29.2662 21.8483 29.285 21.8483 29.3048C21.8483 29.3209 21.8538 29.3366 21.864 29.3492L21.8892 29.3802C21.9093 29.4048 21.9354 29.4238 21.9651 29.4353L21.9755 29.4393C22.0069 29.4515 22.0352 29.4706 22.0583 29.4951L22.1501 29.5929C22.1556 29.5988 22.1601 29.6057 22.1633 29.6131C22.1747 29.64 22.2018 29.6567 22.2309 29.655L22.2384 29.6546C22.2822 29.652 22.3199 29.6852 22.3228 29.729L22.3232 29.7352C22.3247 29.7575 22.3347 29.7783 22.3513 29.7933L22.3689 29.8093C22.3923 29.8305 22.4221 29.8434 22.4535 29.8462L22.5442 29.8541C22.5712 29.8565 22.5948 29.8734 22.6057 29.8982L22.6094 29.9066C22.616 29.9214 22.6288 29.9326 22.6443 29.937L22.6627 29.9423C22.6705 29.9446 22.679 29.9424 22.6848 29.9366C22.6989 29.9224 22.7232 29.9324 22.7232 29.9524V29.9539C22.7232 29.9697 22.7386 29.9808 22.7536 29.9758L22.7614 29.9732C22.7787 29.9674 22.7864 29.9472 22.7774 29.9314L22.7752 29.9275C22.7679 29.9148 22.7701 29.8988 22.7804 29.8884L22.7881 29.8806C22.8083 29.8603 22.842 29.8626 22.8592 29.8857L22.9235 29.9721C22.9378 29.9912 22.9592 30.0037 22.9829 30.0067C23.0002 30.0088 23.0165 30.0161 23.0297 30.0277L23.1744 30.1543C23.1861 30.1646 23.1946 30.1781 23.1987 30.1932L23.2011 30.2021C23.2099 30.2344 23.2407 30.2556 23.274 30.2523C23.2882 30.2509 23.3024 30.2539 23.3148 30.261C23.3373 30.2739 23.3651 30.2729 23.3866 30.2585L23.3995 30.2499C23.4149 30.2396 23.4329 30.2341 23.4514 30.2341H23.5133C23.5217 30.2341 23.5298 30.2307 23.5358 30.2247C23.5482 30.2122 23.5684 30.2122 23.5808 30.2247L23.5926 30.2366C23.6056 30.2497 23.6251 30.2542 23.6426 30.2482L23.8677 30.1705C23.884 30.1649 23.9011 30.1627 23.9183 30.1641L23.9768 30.1686C23.9884 30.1695 23.9995 30.1637 24.0054 30.1538C24.0194 30.1303 24.0548 30.1356 24.0613 30.1621L24.0652 30.1777C24.0666 30.1832 24.0667 30.1889 24.0655 30.1945L24.0553 30.2426C24.05 30.2671 24.0735 30.288 24.0972 30.2801C24.1082 30.2764 24.1164 30.2671 24.1187 30.2557L24.1209 30.2447C24.1264 30.2167 24.1536 30.1985 24.1816 30.204L24.3967 30.2461C24.4104 30.2487 24.4243 30.2501 24.4382 30.2501H24.4655C24.486 30.2501 24.5061 30.2446 24.5237 30.2343L24.5272 30.2322C24.5663 30.2093 24.6156 30.2129 24.651 30.2414C24.6646 30.2523 24.6807 30.2599 24.6979 30.2633L24.7212 30.268C24.7665 30.2771 24.8135 30.2708 24.8547 30.2501L24.8685 30.2431C24.891 30.2318 24.915 30.224 24.9398 30.2198L24.9457 30.2188C24.9801 30.2131 25.0128 30.2 25.0418 30.1806C25.0904 30.148 25.1491 30.1338 25.2073 30.1407L25.3395 30.1564C25.3715 30.1601 25.4038 30.1614 25.436 30.16L25.501 30.1573C25.5523 30.1551 25.6027 30.144 25.65 30.1244L25.6829 30.1108C25.7033 30.1023 25.7222 30.0908 25.739 30.0765L25.7794 30.0421C25.8032 30.0218 25.835 30.0136 25.8656 30.0198L25.9219 30.0311C25.9306 30.0328 25.9372 30.0399 25.9384 30.0486C25.9409 30.0656 25.9617 30.0725 25.9738 30.0603L25.9829 30.0512C25.9887 30.0454 25.9968 30.0425 26.0049 30.0433L26.117 30.0546C26.1392 30.0568 26.1616 30.0523 26.1812 30.0417L26.2223 30.0195C26.2414 30.0091 26.265 30.0126 26.2804 30.028C26.2843 30.032 26.2889 30.0352 26.2939 30.0377L26.4266 30.1012C26.4416 30.1084 26.4598 30.1028 26.468 30.0882C26.4772 30.072 26.4984 30.0671 26.5138 30.0777L26.6219 30.1521C26.6314 30.1587 26.6421 30.1632 26.6534 30.1655L26.7168 30.1782C26.7368 30.1823 26.7556 30.1669 26.7556 30.1465C26.7556 30.1286 26.7701 30.114 26.788 30.114H26.8014C26.825 30.114 26.8447 30.132 26.8469 30.1556L26.8668 30.3687C26.8669 30.3696 26.8671 30.3706 26.8674 30.3715C26.8717 30.383 26.8889 30.3796 26.8884 30.3673L26.883 30.2159C26.8829 30.212 26.8834 30.2082 26.8845 30.2045L26.8871 30.1956C26.8987 30.1567 26.9345 30.13 26.9751 30.13H27.4352C27.4455 30.13 27.4531 30.1398 27.4506 30.1498C27.4488 30.157 27.4423 30.162 27.4349 30.1618L26.9679 30.1544C26.9561 30.1542 26.9465 30.1637 26.9465 30.1755V30.2333C26.9465 30.2458 26.964 30.2488 26.9681 30.237C26.9722 30.2256 26.989 30.2279 26.9898 30.24L26.9934 30.2946C26.9939 30.3011 26.9992 30.3061 27.0057 30.3061C27.0125 30.3061 27.018 30.3006 27.018 30.2938V30.2025C27.018 30.1934 27.0254 30.1861 27.0345 30.1861C27.0431 30.1861 27.0503 30.1928 27.0509 30.2014L27.0568 30.2913C27.0574 30.2996 27.0643 30.3061 27.0727 30.3061C27.0819 30.3061 27.0891 30.2983 27.0885 30.2892L27.0828 30.203C27.0822 30.1938 27.0894 30.1861 27.0986 30.1861C27.107 30.1861 27.1139 30.1926 27.1144 30.2009L27.1202 30.2948C27.1209 30.3048 27.1305 30.3118 27.1402 30.3094C27.1478 30.3075 27.1529 30.3005 27.1524 30.2927L27.1473 30.2157C27.1462 30.1996 27.1589 30.1861 27.175 30.1861C27.1896 30.1861 27.2017 30.1974 27.2027 30.212L27.208 30.2913C27.2085 30.2996 27.2154 30.3061 27.2238 30.3061C27.233 30.3061 27.2402 30.2983 27.2396 30.2892L27.2342 30.2072C27.2334 30.1958 27.2425 30.1861 27.254 30.1861H27.2572C27.2659 30.1861 27.273 30.1928 27.2736 30.2014L27.2747 30.2181C27.2757 30.2338 27.298 30.2358 27.3018 30.2205C27.3033 30.2144 27.3088 30.2101 27.3151 30.2101H27.4465C27.4578 30.2101 27.469 30.209 27.4801 30.2069L27.5876 30.1866C27.6727 30.1706 27.7514 30.1304 27.8143 30.0709C27.8401 30.0464 27.8688 30.025 27.8996 30.0073L28.0275 29.9338C28.0595 29.9154 28.0883 29.8918 28.1128 29.8642C28.1305 29.8441 28.1458 29.822 28.1584 29.7983L28.2573 29.6117C28.2631 29.6007 28.2745 29.5939 28.2869 29.5939C28.299 29.5939 28.3102 29.5873 28.3161 29.5768L28.3468 29.5222C28.3825 29.4586 28.4609 29.433 28.5273 29.4631L28.612 29.5016C28.6374 29.5132 28.6675 29.5041 28.6822 29.4803C28.6911 29.4661 28.7059 29.4566 28.7225 29.4545L28.7404 29.4523C28.7532 29.4507 28.7663 29.4517 28.7787 29.4554L28.9597 29.5094C28.9693 29.5123 28.9777 29.5184 28.9832 29.5268L28.9875 29.5333C29.0034 29.5572 29.0389 29.5558 29.0528 29.5307C29.0586 29.5201 29.0591 29.5073 29.0541 29.4963L29.0345 29.4538C29.0215 29.4254 28.9988 29.4026 28.9705 29.3895L28.6219 29.2282C28.6187 29.2267 28.6167 29.2235 28.6167 29.22C28.6167 29.2185 28.6171 29.2171 28.6177 29.2158L28.8175 28.8371C28.8213 28.8297 28.8278 28.824 28.8356 28.821C28.8593 28.8121 28.8653 28.7814 28.8468 28.7641L28.8237 28.7427C28.8018 28.7223 28.8008 28.6879 28.8216 28.6663L28.9317 28.552C28.9909 28.4906 28.9902 28.3931 28.93 28.3326L28.9119 28.3144C28.882 28.2843 28.8712 28.2401 28.8839 28.1996C28.8998 28.1491 28.9483 28.1161 29.0011 28.1199L29.0082 28.1204C29.0176 28.121 29.0269 28.1228 29.0358 28.1256L29.0723 28.1368C29.1078 28.1478 29.1445 28.1544 29.1816 28.1565L29.3519 28.166C29.3918 28.1683 29.4318 28.165 29.4709 28.1564L29.8483 28.0734C29.8879 28.0647 29.9122 28.0246 29.9016 27.9854C29.8987 27.9748 29.8983 27.9637 29.9005 27.953L29.9197 27.8563C29.9311 27.799 29.9548 27.7448 29.9893 27.6975C30.0126 27.6655 30.0405 27.6371 30.0722 27.6132L30.147 27.5568C30.1925 27.5224 30.2351 27.4844 30.2743 27.443L30.3553 27.3576C30.3733 27.3386 30.3927 27.321 30.4132 27.3048L30.4453 27.2794C30.4773 27.2541 30.5044 27.223 30.5251 27.1878L30.6123 27.0398C30.6177 27.0306 30.6275 27.025 30.6381 27.025C30.6474 27.025 30.6561 27.0208 30.6618 27.0135L30.7165 26.9434C30.7321 26.9235 30.7419 26.8997 30.7451 26.8746L30.7466 26.862C30.7524 26.8151 30.7852 26.7759 30.8303 26.762L30.8396 26.7591C30.8527 26.755 30.8667 26.7543 30.8801 26.7571C30.9153 26.7641 30.9509 26.7477 30.9683 26.7163L31.0749 26.5245C31.0851 26.5061 31.0968 26.4886 31.1099 26.4721L31.1207 26.4586C31.1841 26.3787 31.2259 26.2838 31.2419 26.1831L31.2493 26.1367L31.3243 25.1558C31.3265 25.1266 31.3568 25.1081 31.3839 25.1194C31.4061 25.1287 31.4316 25.118 31.4405 25.0956L31.4628 25.0395C31.4689 25.0243 31.4712 25.0078 31.4695 24.9915C31.4661 24.9571 31.4457 24.9266 31.4151 24.9105L31.3916 24.8981C31.3357 24.8687 31.3065 24.8056 31.3201 24.7439L31.3248 24.7226C31.3274 24.7106 31.3335 24.6996 31.3421 24.6909L31.3599 24.673C31.3805 24.6522 31.3763 24.6176 31.3512 24.6025C31.3334 24.5918 31.3106 24.5946 31.2959 24.6093L31.2911 24.6142C31.2846 24.6207 31.2798 24.6289 31.2774 24.6379L31.2055 24.901C31.1982 24.9278 31.177 24.9485 31.1501 24.9553C31.1369 24.9586 31.1231 24.9583 31.1101 24.9546L31.0479 24.9367C31.0286 24.9312 31.0084 24.9296 30.9885 24.9321C30.9665 24.9349 30.9441 24.9326 30.923 24.9256L30.9009 24.9182C30.8736 24.909 30.848 24.8952 30.8254 24.8773L30.7755 24.8378C30.7574 24.8235 30.7416 24.8066 30.7286 24.7876L30.6747 24.7086C30.666 24.6959 30.6515 24.6882 30.636 24.6882H30.6275C30.6063 24.6882 30.5892 24.7054 30.5892 24.7266C30.5892 24.749 30.57 24.7666 30.5476 24.7648L30.5396 24.7641C30.5143 24.762 30.4922 24.7809 30.4902 24.8062L30.4858 24.8645C30.4814 24.9218 30.4313 24.9646 30.374 24.96L30.3006 24.9541C30.2862 24.9529 30.2721 24.95 30.2585 24.9454L30.2239 24.9338C30.197 24.9248 30.1711 24.9135 30.1463 24.8998L29.9211 24.7763L29.8899 24.7545C29.8421 24.7213 29.8008 24.6797 29.7678 24.6317C29.7534 24.6107 29.7406 24.5886 29.7296 24.5656L29.3913 23.8558C29.379 23.83 29.3581 23.8094 29.3323 23.7974L29.311 23.7875C29.2849 23.7754 29.2671 23.7503 29.2643 23.7217L29.2633 23.7118C29.2618 23.6965 29.2664 23.6812 29.2762 23.6694C29.2911 23.6515 29.3152 23.6443 29.3374 23.6511L29.4775 23.6939C29.6253 23.739 29.7815 23.6547 29.8249 23.5064L29.8941 23.2697C29.9009 23.2463 29.8945 23.221 29.8773 23.2037C29.8695 23.1959 29.8598 23.1901 29.8492 23.1868L29.5231 23.0884C29.4902 23.0785 29.4677 23.0482 29.4677 23.0139C29.4677 22.9994 29.4718 22.9851 29.4794 22.9728L29.4902 22.9555C29.5007 22.9386 29.5202 22.9295 29.54 22.9323C29.5547 22.9344 29.5677 22.9429 29.5755 22.9555L29.5847 22.9703C29.5964 22.9892 29.6149 23.0029 29.6363 23.0086L29.9608 23.0957L30.0074 23.1108C30.1254 23.1493 30.2501 23.074 30.271 22.9516L30.3267 22.7676L30.3901 22.6116C30.3955 22.5984 30.4041 22.5869 30.4151 22.578C30.43 22.566 30.4484 22.5595 30.4675 22.5595H30.4718C30.5093 22.5595 30.5434 22.5375 30.5589 22.5033L30.5628 22.4947C30.5697 22.4794 30.58 22.4659 30.5929 22.4552L30.6411 22.4153C30.6851 22.3788 30.718 22.3307 30.736 22.2764C30.7493 22.2362 30.7541 22.1936 30.7501 22.1515L30.719 21.8257C30.7175 21.8107 30.7049 21.7993 30.6898 21.7993C30.6772 21.7993 30.666 21.7912 30.6621 21.7792L30.6406 21.7144C30.6338 21.6939 30.6136 21.6809 30.5921 21.6833C30.5716 21.6856 30.5521 21.6739 30.5445 21.6548L30.5319 21.6233C30.5277 21.6126 30.5255 21.6013 30.5255 21.5899V21.4231C30.5255 21.3967 30.5306 21.3705 30.5403 21.3459C30.5614 21.293 30.5599 21.2338 30.5362 21.182L30.482 21.0631C30.4557 21.0056 30.3958 20.9712 30.3329 20.9776C30.2981 20.9811 30.2632 20.9721 30.2344 20.9523L30.1542 20.8971C30.1367 20.885 30.1182 20.8743 30.0991 20.8651L29.9661 20.8011C29.9522 20.7944 29.9369 20.7909 29.9214 20.7909H29.8914C29.8706 20.7909 29.8516 20.7791 29.8423 20.7605C29.8323 20.7403 29.8108 20.7283 29.7883 20.7303L29.7836 20.7308C29.7566 20.7332 29.7311 20.7178 29.7209 20.6927L29.6268 20.4628L29.5496 20.2369C29.5429 20.2172 29.5304 20.2 29.5138 20.1875C29.4896 20.1692 29.4586 20.1625 29.429 20.1689L29.3115 20.1946C29.301 20.1969 29.2941 20.2071 29.2959 20.2177C29.2982 20.2317 29.3139 20.239 29.3261 20.2318L29.3819 20.1991C29.3909 20.1938 29.4018 20.193 29.4114 20.1969C29.4258 20.2027 29.4343 20.2175 29.4321 20.2328L29.4078 20.399C29.4018 20.4402 29.3595 20.4654 29.3204 20.4511C29.3127 20.4483 29.3044 20.4469 29.2961 20.4472L29.0516 20.4538C29.027 20.4545 29.0026 20.4591 28.9794 20.4676L28.9682 20.4717C28.9411 20.4816 28.9119 20.4849 28.8833 20.4812L28.7479 20.4636C28.7121 20.4589 28.6803 20.4868 28.6803 20.5229V20.5588C28.6803 20.5636 28.6834 20.5678 28.688 20.5693C28.7007 20.5733 28.6965 20.5923 28.6833 20.5906L28.6386 20.5847C28.6308 20.5837 28.6251 20.5767 28.6257 20.5688L28.6342 20.4583C28.6381 20.4073 28.6121 20.3587 28.5676 20.3335L28.5506 20.3239C28.5262 20.31 28.4985 20.3028 28.4705 20.3028H28.4268C28.4103 20.3028 28.3937 20.3015 28.3774 20.299L28.2144 20.2742C28.1645 20.2666 28.1142 20.2628 28.0637 20.2628H28.0217C27.9942 20.2628 27.9668 20.265 27.9397 20.2696C27.8721 20.2809 27.803 20.2781 27.7366 20.2614L27.676 20.2462C27.6351 20.2359 27.5935 20.2289 27.5514 20.2252L27.4751 20.2185C27.4462 20.216 27.4172 20.2173 27.3887 20.2224C27.3284 20.2331 27.2663 20.2268 27.2093 20.2042L27.1158 20.1671C27.0621 20.1459 27.0039 20.1385 26.9467 20.1457L26.8677 20.1556C26.8516 20.1576 26.8354 20.1548 26.8209 20.1476C26.8044 20.1392 26.7855 20.1368 26.7674 20.1406L26.7076 20.1533C26.666 20.1621 26.6229 20.1604 26.5821 20.1483L26.5355 20.1346C26.518 20.1294 26.4997 20.1276 26.4815 20.1295C26.4479 20.1329 26.4143 20.1241 26.3867 20.1047L26.2882 20.0358C26.2648 20.0194 26.2327 20.0241 26.2149 20.0464L26.2107 20.0518C26.1951 20.0713 26.167 20.0752 26.1467 20.0607L26.1433 20.0582C26.1332 20.051 26.1273 20.0393 26.1273 20.027V19.9789C26.1273 19.9588 26.1019 19.9498 26.0892 19.9654C26.0771 19.9804 26.0529 19.9729 26.0513 19.9537L26.049 19.926C26.0482 19.9163 26.0431 19.9074 26.035 19.9019L25.9131 19.818C25.9021 19.8104 25.8903 19.8043 25.8778 19.7998L25.8075 19.7746C25.7939 19.7697 25.7788 19.7731 25.7686 19.7833C25.7592 19.7928 25.7455 19.7965 25.7327 19.793L25.6501 19.7709C25.6395 19.768 25.6286 19.7661 25.6177 19.7652L25.5716 19.7613C25.4867 19.7542 25.4039 19.7317 25.3271 19.6949L25.3232 19.6931C25.2919 19.6781 25.2596 19.6654 25.2265 19.655L24.9903 19.5811C24.9432 19.5663 24.893 19.5647 24.845 19.5763L24.7666 19.5954C24.718 19.6072 24.6668 19.5914 24.6332 19.5543C24.6168 19.5361 24.5958 19.5227 24.5724 19.5154L24.4663 19.4826C24.4232 19.4692 24.3785 19.4613 24.3335 19.4591L24.2423 19.4545L24.2065 19.4476C24.1206 19.4312 24.0319 19.4383 23.9497 19.4684L23.9337 19.4743C23.9115 19.4824 23.8884 19.4881 23.865 19.4912L23.8418 19.4943C23.8019 19.4997 23.7613 19.4948 23.7238 19.48L23.6329 19.4442C23.6113 19.4357 23.5868 19.4393 23.5685 19.4536L23.5415 19.4747C23.5327 19.4816 23.53 19.4936 23.535 19.5036C23.545 19.5238 23.5236 19.5451 23.5035 19.5349L23.4991 19.5327C23.4914 19.5289 23.4822 19.5292 23.4748 19.5337L23.4637 19.5404C23.4529 19.5469 23.4401 19.549 23.4279 19.5463L23.3478 19.5284C23.3187 19.5218 23.2886 19.5205 23.259 19.5245L23.2452 19.5264C23.2053 19.5317 23.1672 19.5465 23.1342 19.5695L23.0971 19.5954C23.0866 19.6027 23.0781 19.6125 23.0724 19.624C23.0627 19.6434 23.0451 19.6579 23.0242 19.6636C22.9919 19.6725 22.9573 19.6595 22.9391 19.6313L22.8717 19.5274C22.858 19.5062 22.8522 19.4807 22.8556 19.4557L22.8647 19.3865C22.8657 19.3794 22.8713 19.3738 22.8784 19.3729C22.8939 19.371 22.8975 19.3501 22.8836 19.3431L22.8622 19.3324C22.8484 19.3254 22.8318 19.3338 22.8291 19.349L22.8157 19.4254C22.8125 19.4442 22.8159 19.4635 22.8255 19.48L22.9386 19.6742C22.9433 19.6821 22.9446 19.6916 22.9424 19.7005C22.9396 19.7118 22.9425 19.7238 22.9503 19.7325L23.0272 19.819C23.0462 19.8404 23.0328 19.8743 23.0044 19.8769C22.9927 19.878 22.9812 19.8731 22.9739 19.8639L22.9544 19.8394C22.9352 19.8152 22.9023 19.8065 22.8737 19.818L22.8681 19.8203C22.8519 19.8268 22.8395 19.8404 22.8346 19.8571C22.8257 19.8869 22.7947 19.9042 22.7647 19.8962L22.7468 19.8914C22.7179 19.8836 22.6961 19.8596 22.6913 19.8301L22.691 19.8285C22.6863 19.8002 22.6974 19.7715 22.7199 19.7537L22.7466 19.7326C22.7772 19.7084 22.796 19.6723 22.7983 19.6334L22.7993 19.6173C22.8015 19.5792 22.791 19.5414 22.7695 19.5099L22.7503 19.4818C22.7281 19.4493 22.6925 19.4286 22.6533 19.4253L22.6368 19.4239C22.6256 19.423 22.6144 19.4249 22.6042 19.4294L22.5971 19.4326C22.5695 19.445 22.5371 19.434 22.5226 19.4074L22.5174 19.3977C22.5075 19.3795 22.5117 19.3568 22.5274 19.3432C22.5439 19.329 22.5476 19.3048 22.536 19.2863L22.4841 19.2037C22.4688 19.1793 22.4471 19.1595 22.4214 19.1466L22.3395 19.1054C22.3147 19.0929 22.287 19.0875 22.2594 19.0896C22.2201 19.0927 22.1813 19.0804 22.1509 19.0554L22.0546 18.9761C22.0337 18.959 22.0114 18.9436 21.9878 18.9304L21.8594 18.858C21.8363 18.845 21.811 18.8362 21.7847 18.8321L21.7758 18.8307C21.74 18.8252 21.7066 18.8096 21.6794 18.7857C21.6648 18.7728 21.6483 18.7623 21.6305 18.7544L21.5707 18.7281C21.5437 18.7162 21.5157 18.7068 21.487 18.6999L21.4132 18.6822C21.3803 18.6744 21.35 18.6583 21.3251 18.6355L21.3024 18.6147C21.285 18.5988 21.2629 18.589 21.2395 18.5869L21.2201 18.5851C21.1999 18.5833 21.1816 18.5724 21.1704 18.5555C21.1613 18.5418 21.1475 18.5319 21.1316 18.5277L20.9864 18.4896C20.9778 18.4873 20.9694 18.484 20.9617 18.4796L20.95 18.4731C20.9207 18.4567 20.9037 18.4246 20.9068 18.3911C20.9087 18.3699 20.9026 18.3487 20.8896 18.3318L20.8512 18.2815C20.8379 18.2642 20.8333 18.2418 20.8385 18.2206L20.8414 18.2092C20.8444 18.197 20.8524 18.1866 20.8634 18.1806L20.8711 18.1764C20.8985 18.1613 20.8989 18.1221 20.8718 18.1065C20.8477 18.0926 20.8446 18.0591 20.8658 18.0411L20.9707 17.9523C20.9725 17.9508 20.9745 17.9496 20.9767 17.9488C20.9967 17.9414 20.9928 17.912 20.9716 17.9102L20.8889 17.9029C20.8818 17.9023 20.8749 17.8997 20.8691 17.8953L20.8657 17.8927C20.8533 17.8834 20.8456 17.869 20.8446 17.8535L20.8302 17.6299L20.7666 17.2938L20.703 17.0217L20.6683 16.8561C20.6532 16.7838 20.7069 16.7152 20.7808 16.7127L20.8609 16.7099C20.8663 16.7097 20.8712 16.7131 20.8729 16.7182C20.8754 16.7259 20.8699 16.7339 20.8618 16.7343L20.7242 16.7403C20.7064 16.7411 20.6908 16.7522 20.6842 16.7687C20.6809 16.7771 20.6801 16.7863 20.6821 16.7951L20.7362 17.0401C20.7405 17.0597 20.7473 17.0788 20.7562 17.0969L20.7733 17.1312C20.7845 17.1537 20.7886 17.179 20.785 17.2039C20.7834 17.2157 20.7834 17.2278 20.7852 17.2396L20.7857 17.2432C20.7973 17.3212 20.8674 17.3767 20.946 17.3701L20.9769 17.3675C20.9902 17.3664 21.003 17.3617 21.0138 17.3539C21.0376 17.3368 21.049 17.3073 21.043 17.2787L20.9157 16.6748C20.8991 16.5959 20.823 16.5444 20.7436 16.5581L20.706 16.5645C20.6504 16.5741 20.5967 16.5394 20.5826 16.4847L20.5747 16.4541C20.5626 16.4071 20.5945 16.3601 20.6427 16.354C20.6658 16.3511 20.6866 16.3383 20.6995 16.3189L20.8782 16.0522C20.9094 16.0056 20.9294 15.9524 20.9366 15.8968L20.9415 15.8594C20.9467 15.8188 20.9409 15.7774 20.9245 15.7398L20.9028 15.6897C20.897 15.6764 20.8957 15.6616 20.8992 15.6475L20.9024 15.6347C20.9069 15.6168 20.9002 15.598 20.8855 15.5869C20.8642 15.5708 20.861 15.5401 20.8785 15.52L20.8914 15.5051C20.8982 15.4973 20.9031 15.4879 20.9055 15.4778L20.94 15.333C20.9459 15.3082 20.9386 15.2821 20.9206 15.264C20.9038 15.2471 20.8962 15.2231 20.9003 15.1997L20.922 15.073C20.9297 15.0282 20.9278 14.9822 20.9165 14.9382L20.891 14.8389C20.877 14.7844 20.8574 14.7315 20.8323 14.6811L20.7825 14.5809L20.6813 14.4155C20.6642 14.3874 20.6408 14.3636 20.6131 14.3458L20.6055 14.341C20.5807 14.3251 20.5524 14.3155 20.523 14.313C20.4899 14.3102 20.4581 14.2984 20.4312 14.2787L20.4071 14.261C20.3923 14.2502 20.3785 14.238 20.3661 14.2245L20.351 14.2083C20.2999 14.1532 20.2375 14.1099 20.1681 14.0813L19.9564 13.9942C19.9348 13.9853 19.9157 13.9713 19.9009 13.9533C19.8896 13.9397 19.8758 13.9282 19.8603 13.9196L19.6531 13.8046L19.7691 13.8571C19.795 13.8688 19.8255 13.8633 19.8455 13.8431C19.8549 13.8336 19.8668 13.8272 19.8799 13.8244L19.9728 13.8049C20.0241 13.7942 20.0725 13.7722 20.1144 13.7406L20.215 13.6849C20.2537 13.6635 20.2956 13.6483 20.3391 13.6399L20.4666 13.6152C20.4755 13.6135 20.4846 13.6147 20.4927 13.6188C20.5124 13.6287 20.5363 13.6212 20.5468 13.6018L20.5685 13.5617C20.5732 13.5531 20.5757 13.5433 20.5757 13.5335V13.5245C20.5757 13.5053 20.5638 13.488 20.5457 13.4812L20.5417 13.4797C20.5243 13.4731 20.5135 13.4555 20.5156 13.437C20.518 13.4146 20.5019 13.3944 20.4795 13.3919L20.4671 13.3905C20.455 13.3892 20.4438 13.3838 20.4352 13.3751L20.4032 13.3429C20.3758 13.3153 20.3402 13.2972 20.3018 13.2913L20.2704 13.2864C20.2619 13.2851 20.2533 13.2852 20.2448 13.2866L20.1969 13.2946C20.1779 13.2978 20.1602 13.2845 20.1578 13.2655C20.1557 13.2488 20.1662 13.2331 20.1825 13.2288L20.2725 13.2044C20.3071 13.195 20.3146 13.1493 20.2849 13.1293C20.2728 13.1213 20.2575 13.12 20.2443 13.126L20.0453 13.2164C20.0283 13.2242 20.0091 13.2259 19.9909 13.2213C19.9519 13.2115 19.9256 13.1752 19.9284 13.1351L19.9291 13.1253C19.9306 13.1044 19.9411 13.0851 19.9579 13.0725C19.9805 13.0553 19.9912 13.0265 19.985 12.9988L19.9745 12.9513C19.9676 12.92 19.9439 12.8951 19.9129 12.8868L19.8909 12.8809C19.8637 12.8736 19.8455 12.8479 19.8477 12.8199C19.8501 12.7887 19.8276 12.7612 19.7966 12.7573L19.763 12.7531C19.7391 12.7501 19.7152 12.7592 19.6993 12.7774L19.691 12.7869C19.6776 12.8024 19.6564 12.8087 19.6367 12.803C19.6219 12.7987 19.6097 12.7881 19.6033 12.7741L19.5862 12.7362C19.5779 12.7178 19.5736 12.6978 19.5736 12.6775V12.6037C19.5736 12.5844 19.5845 12.5667 19.6017 12.558C19.6142 12.5517 19.6237 12.5405 19.6277 12.5271C19.6393 12.4893 19.6072 12.4518 19.5682 12.4584L19.4797 12.4732C19.4681 12.4752 19.4563 12.4752 19.4447 12.4734L19.348 12.458C19.3236 12.4541 19.3001 12.4458 19.2787 12.4335L19.2136 12.3961C19.1726 12.3725 19.1525 12.3243 19.1646 12.2786C19.1718 12.2514 19.1897 12.2283 19.2142 12.2144L19.274 12.1806C19.2934 12.1696 19.314 12.1611 19.3355 12.1552L19.5901 12.0859C19.6529 12.0687 19.7125 12.0415 19.7666 12.0053L19.7856 11.9925C19.8295 11.963 19.8681 11.9263 19.8997 11.884L20.07 11.5806C20.0943 11.5375 20.1146 11.4923 20.1307 11.4456C20.1568 11.3701 20.1719 11.2913 20.1754 11.2115L20.186 10.9717L20.1621 10.5555L20.0826 10.0273L20.019 9.81127L19.9712 9.57919L19.844 9.18706L19.7565 8.85095L19.6929 8.65088L19.5391 8.22832C19.5038 8.13152 19.4583 8.03878 19.4032 7.95172L19.3548 7.87505C19.331 7.83753 19.3033 7.80272 19.272 7.77123C19.2294 7.72836 19.1806 7.69207 19.1273 7.66355L18.8339 7.5065L18.7829 7.46986C18.7428 7.44106 18.6992 7.41765 18.653 7.40023C18.6146 7.38576 18.5748 7.37552 18.5342 7.36968L18.4827 7.36228C18.4099 7.35181 18.3397 7.32805 18.2755 7.29217C18.2448 7.27504 18.2158 7.25524 18.1886 7.23302L18.136 7.19008C18.1136 7.17171 18.0886 7.15669 18.0618 7.14547C18.0254 7.13022 17.9924 7.10798 17.9646 7.08L17.906 7.02103C17.8568 6.97148 17.8006 6.92936 17.7392 6.89598L17.5375 6.78626L17.4023 6.69023L17.2982 6.63205C17.2246 6.59094 17.1467 6.55826 17.0658 6.53464L16.9751 6.50815C16.9524 6.50152 16.929 6.49753 16.9054 6.49628L16.8868 6.4953C16.8243 6.49199 16.7628 6.51157 16.7137 6.55037C16.6904 6.56878 16.6641 6.58302 16.636 6.59246L16.6169 6.59886C16.5787 6.61167 16.5386 6.61821 16.4984 6.61821H16.4965C16.459 6.61821 16.4216 6.61269 16.3856 6.60183L16.3624 6.59481C16.3083 6.57849 16.2571 6.55394 16.2106 6.522L16.2006 6.51517C16.138 6.47218 16.068 6.44096 15.9941 6.42302L15.9837 6.42048C15.9118 6.40303 15.8433 6.37406 15.7807 6.3347L15.5749 6.20531C15.5631 6.19784 15.5503 6.19181 15.537 6.18735L15.4873 6.17066C15.471 6.16519 15.4531 6.16697 15.4381 6.17555C15.4184 6.1869 15.3939 6.18614 15.3749 6.17358L15.14 6.0182C15.1319 6.01285 15.1224 6.01 15.1127 6.01C15.1017 6.01 15.091 6.00634 15.0824 5.9996L14.9208 5.87396L14.3578 5.53954C14.2931 5.50113 14.2254 5.46819 14.1552 5.44104L14.101 5.42005C14.0696 5.4079 14.0373 5.3983 14.0044 5.39132C13.9371 5.37706 13.8725 5.35185 13.8134 5.31668L13.7811 5.2975C13.7456 5.27636 13.7086 5.25783 13.6703 5.24206L13.5727 5.20176C13.4694 5.15912 13.3632 5.12403 13.2548 5.09676L13.163 5.07369L12.677 4.96671C12.6617 4.96335 12.647 4.95811 12.633 4.95109C12.6051 4.93702 12.574 4.93018 12.5427 4.93119L12.4059 4.93563C12.3652 4.93695 12.3248 4.92805 12.2883 4.90973L12.2795 4.90529C12.2694 4.9002 12.2588 4.89624 12.2478 4.89347L12.1248 4.86255C12.1139 4.85979 12.107 4.8489 12.1092 4.8378C12.1114 4.82654 12.1043 4.81555 12.0931 4.81295L12.0266 4.79749C12.018 4.7955 12.0098 4.80201 12.0098 4.81082C12.0098 4.82115 11.9988 4.82775 11.9897 4.8229L11.8908 4.77021C11.8801 4.76453 11.8683 4.76131 11.8562 4.76079L11.7587 4.75652C11.7147 4.75459 11.6719 4.74166 11.6342 4.71891C11.6195 4.71004 11.604 4.70262 11.5878 4.69678L11.5179 4.67143C11.4484 4.64625 11.3763 4.62877 11.3029 4.61931L11.1282 4.59677C11.1116 4.59463 11.0956 4.58924 11.0811 4.5809C11.0592 4.56827 11.0339 4.56249 11.0086 4.56431L10.9592 4.56786C10.9438 4.56897 10.9283 4.56884 10.9129 4.56747L10.672 4.54608C10.6678 4.5457 10.6636 4.54495 10.6595 4.54382L10.6136 4.53123C10.5951 4.52615 10.5764 4.53896 10.5745 4.55808C10.5724 4.57932 10.55 4.59213 10.5306 4.58314L10.4727 4.55626C10.4688 4.55444 10.4647 4.55295 10.4605 4.55182L10.2762 4.50189C10.2662 4.49917 10.2555 4.50204 10.2482 4.5094C10.2408 4.51687 10.2299 4.5197 10.2197 4.51679L10.1248 4.4895L9.96122 4.46378C9.90084 4.45429 9.8419 4.43724 9.78578 4.41304C9.69462 4.37373 9.59639 4.35345 9.49712 4.35345H9.48057L9.29269 4.33164C9.28018 4.33019 9.26751 4.3309 9.25524 4.33375L9.18447 4.35018C9.17623 4.3521 9.17039 4.35944 9.17039 4.36791C9.17039 4.38042 9.15806 4.3892 9.14624 4.38511L8.95439 4.31875C8.9291 4.31001 8.90205 4.30763 8.87563 4.31183L8.81169 4.32199C8.7805 4.32694 8.74886 4.32838 8.71735 4.32626L8.70913 4.32571C8.66685 4.32288 8.62512 4.31462 8.58496 4.30115L8.51996 4.27935C8.44505 4.25423 8.36656 4.24141 8.28755 4.24141L8.09144 4.221C8.06852 4.21862 8.04538 4.21934 8.02265 4.22315C7.98244 4.22989 7.94119 4.22692 7.90236 4.21449L7.84985 4.19768C7.8078 4.18422 7.7678 4.16506 7.73096 4.14073L7.58486 4.04426C7.54967 4.02103 7.51243 4.00106 7.47361 3.98461C7.41209 3.95855 7.34713 3.94155 7.28074 3.93412L7.23769 3.92931L6.56959 3.80127L6.30837 3.77996C6.28666 3.77818 6.26486 3.78177 6.24486 3.79039C6.22822 3.79757 6.21029 3.80127 6.19217 3.80127H6.03671L5.64486 3.76476C5.6198 3.76243 5.5946 3.76196 5.56947 3.76336L5.51537 3.76639C5.48152 3.76828 5.44843 3.77712 5.41815 3.79235C5.38553 3.80876 5.35696 3.8322 5.33449 3.86098L5.30914 3.89343C5.29055 3.91724 5.26883 3.93843 5.24456 3.95642C5.17136 4.01069 5.07924 4.03283 4.98938 4.01776L4.93912 4.00934L4.68536 3.98173C4.66007 3.97898 4.63508 3.98912 4.61885 4.00871C4.60985 4.01958 4.59799 4.02772 4.58461 4.03221L4.55365 4.04259C4.5099 4.05726 4.46231 4.05552 4.41976 4.03768L4.39808 4.02859C4.39295 4.02644 4.38822 4.02345 4.38407 4.01974C4.35521 3.99393 4.30922 4.00929 4.30167 4.04727L4.25512 4.28143L4.26172 4.16197C4.2625 4.14785 4.25279 4.13531 4.23893 4.13252C4.22923 4.13057 4.2192 4.1338 4.21247 4.14106L4.12444 4.23597C4.1162 4.24484 4.10984 4.25528 4.10573 4.26667L4.10343 4.27301C4.08995 4.31033 4.05171 4.33268 4.01258 4.32611C3.99452 4.32309 3.97596 4.32618 3.95985 4.3349L3.93584 4.34791C3.90074 4.36693 3.87392 4.39828 3.86056 4.43591L3.84863 4.46952C3.84391 4.48282 3.84031 4.49648 3.83785 4.51037L3.7868 4.79931C3.78108 4.8317 3.76358 4.86083 3.73768 4.8811C3.71723 4.89711 3.69254 4.90679 3.66666 4.90896L3.63407 4.91169C3.61865 4.91299 3.60339 4.91575 3.5885 4.91994L3.46849 4.95376C3.43162 4.96415 3.39843 4.98474 3.37275 5.01316C3.34649 5.04222 3.31239 5.06309 3.27456 5.07324L3.24078 5.0823C3.22244 5.08722 3.20457 5.09376 3.18738 5.10183L3.17929 5.10563C3.12306 5.13203 3.06171 5.14572 2.9996 5.14572H2.92689L2.78724 5.16488C2.76432 5.16802 2.74308 5.17861 2.72678 5.19501C2.71205 5.20983 2.69326 5.21994 2.67278 5.22406L2.5844 5.24185C2.55828 5.2471 2.5317 5.24975 2.50505 5.24975H2.394L2.25875 5.2653C2.16351 5.27626 2.06936 5.29524 1.97731 5.32205L1.88747 5.34822C1.83821 5.36256 1.79052 5.3818 1.74509 5.40565L1.72505 5.41617C1.66244 5.44904 1.60576 5.49215 1.55736 5.54371C1.51617 5.58759 1.46894 5.62539 1.4171 5.65597L1.27812 5.73795C1.26912 5.74325 1.25973 5.74784 1.25002 5.75168L1.07895 5.8193C1.0592 5.82711 1.03705 5.816 1.03149 5.7955C1.02498 5.7715 0.996519 5.76139 0.976332 5.7759L0.975288 5.77665C0.967052 5.78257 0.956725 5.78479 0.946783 5.78279L0.902476 5.77388C0.889987 5.77136 0.877019 5.77432 0.86685 5.78199L0.845226 5.79831C0.822862 5.81518 0.791064 5.79767 0.793377 5.76975C0.79455 5.75558 0.786357 5.7423 0.773167 5.73699L0.739475 5.72343C0.724713 5.71749 0.713945 5.7045 0.710843 5.68889C0.705135 5.66017 0.674904 5.64355 0.6476 5.65412L0.626899 5.66213C0.608823 5.66913 0.588298 5.66356 0.576235 5.64839L0.553428 5.6197C0.543862 5.60767 0.525035 5.60966 0.518195 5.62343C0.510801 5.63831 0.489872 5.63911 0.481362 5.62484L0.403319 5.49396C0.377146 5.45007 0.386692 5.39367 0.425851 5.36084L0.56783 5.24179C0.586887 5.22581 0.607734 5.21209 0.629951 5.20092L0.755583 5.13771L0.832684 5.10913C0.881952 5.09087 0.932574 5.07649 0.984085 5.06612C1.03845 5.05518 1.09362 5.04875 1.14904 5.04689L1.30437 5.04168L1.45226 5.02629C1.49653 5.02168 1.5271 4.97979 1.51798 4.93622L1.50942 4.89532C1.50595 4.87873 1.5162 4.86236 1.53263 4.85822C1.55088 4.85363 1.56109 4.8342 1.55452 4.81656L1.54152 4.78168C1.52911 4.74837 1.4922 4.73125 1.45875 4.74327L1.24191 4.82119C1.20922 4.83294 1.17284 4.81906 1.15629 4.78851C1.14454 4.76684 1.12229 4.7529 1.09766 4.75177L1.00812 4.74767C0.978048 4.7463 0.948719 4.73785 0.922516 4.72302L0.893932 4.70684C0.857099 4.686 0.832845 4.6484 0.829037 4.60625C0.827796 4.59253 0.824363 4.57909 0.818867 4.56645L0.792928 4.50679C0.779137 4.47507 0.753983 4.44966 0.72241 4.43554C0.707525 4.42888 0.691584 4.4249 0.675317 4.42379L0.635745 4.42107C0.355635 4.40186 0.203326 4.08466 0.363472 3.85405L0.866932 3.12904L1.01009 2.95298L2.02019 1.92064L2.32891 1.62381C2.35502 1.59871 2.39723 1.60219 2.41887 1.63123C2.42346 1.63738 2.42683 1.64436 2.4288 1.65178L2.44059 1.69627C2.45155 1.73764 2.47763 1.77339 2.51367 1.79647C2.58271 1.84067 2.67341 1.82966 2.72987 1.77021L2.94066 1.54825C2.96325 1.52447 2.98794 1.50279 3.01445 1.48348L3.17833 1.36407C3.19622 1.35104 3.21249 1.33591 3.22679 1.31902L3.42085 1.0898C3.48421 1.01496 3.60558 1.04232 3.6307 1.13711C3.63339 1.14725 3.63475 1.1577 3.63475 1.16819V1.27235C3.63475 1.28834 3.63273 1.30427 3.62874 1.31975C3.6017 1.42471 3.66783 1.53099 3.77394 1.55309L5.71209 1.95681C5.79551 1.97418 5.88267 1.94759 5.94273 1.88716C5.95751 1.87229 5.97428 1.85925 5.99235 1.84864C6.03669 1.82262 6.07166 1.78324 6.09226 1.73613L6.14806 1.60854L6.17505 1.51152C6.19382 1.44409 6.23053 1.383 6.28127 1.33478L6.29924 1.31771C6.33059 1.28792 6.36839 1.26577 6.40969 1.25298L6.42875 1.24708C6.44303 1.24266 6.45789 1.24041 6.47284 1.24041C6.5395 1.24041 6.59806 1.19617 6.61627 1.13204L6.64913 1.01634L6.6728 0.902C6.68049 0.864881 6.72333 0.847375 6.75481 0.868491C6.75857 0.871014 6.762 0.874005 6.765 0.877392L6.85223 0.975687C6.91378 1.04505 7.01681 1.05893 7.09452 1.00834L7.21323 0.906814C7.23979 0.884093 7.27116 0.86768 7.30497 0.858806L7.32793 0.85278C7.39497 0.835181 7.44724 0.782674 7.46454 0.715548L7.48284 0.644507C7.48863 0.622055 7.50599 0.604417 7.52835 0.598282C7.55817 0.590098 7.58962 0.604173 7.60338 0.631866L7.61427 0.653783C7.62282 0.671001 7.63643 0.685195 7.65328 0.694468L7.81229 0.782014C7.94863 0.857078 8.11931 0.821969 8.21496 0.699183L8.27129 0.626872C8.27668 0.619947 8.28417 0.61495 8.29263 0.612627C8.32421 0.603962 8.33317 0.563459 8.30818 0.54229L8.26323 0.5042C8.23608 0.481193 8.22987 0.441767 8.24865 0.411535L8.29834 0.331548C8.34314 0.259424 8.43206 0.228151 8.51215 0.256353L8.52014 0.259168C8.52944 0.262443 8.53898 0.264995 8.54867 0.266801L8.64019 0.283855C8.71252 0.297332 8.78367 0.316507 8.85297 0.341203L9.13062 0.440147L9.36127 0.544181L9.50512 0.600816C9.53101 0.61101 9.55836 0.616997 9.58614 0.61855C9.65125 0.622189 9.71537 0.601316 9.76585 0.560041L9.77878 0.549479C9.80245 0.530128 9.82212 0.506347 9.83669 0.479469C9.88126 0.397255 9.97029 0.34925 10.0635 0.357196L10.1956 0.368459C10.3061 0.377885 10.4109 0.317789 10.4586 0.217624L10.5114 0.106825C10.5403 0.0461847 10.6104 0.0172994 10.6736 0.0400133L10.748 0.0557649C10.7927 0.0652435 10.8247 0.104744 10.8247 0.150484C10.8247 0.167246 10.8291 0.183721 10.8373 0.198297L10.8694 0.254742C10.8818 0.276603 10.8883 0.301313 10.8883 0.326454C10.8883 0.372764 10.8663 0.416296 10.8289 0.443645L10.8181 0.451556C10.8066 0.459923 10.7963 0.469674 10.7872 0.480585L10.7031 0.582202C10.6894 0.598671 10.6692 0.608203 10.6478 0.608203C10.6287 0.608203 10.6103 0.615828 10.5969 0.629388L10.5708 0.655595C10.5561 0.67042 10.5337 0.674582 10.5146 0.66605C10.4918 0.655822 10.4649 0.663996 10.4515 0.685217L10.4215 0.733015C10.4041 0.760833 10.4257 0.796674 10.4585 0.794139C10.4734 0.792987 10.4877 0.800225 10.4955 0.812907L10.5801 0.948978C10.5946 0.972434 10.6124 0.993779 10.6327 1.01242L10.7578 1.12686C10.7695 1.13752 10.7738 1.15403 10.7688 1.16902C10.7641 1.18336 10.7678 1.19915 10.7784 1.20986L10.8798 1.3118C10.8908 1.32288 10.9027 1.33299 10.9154 1.34203L10.9922 1.39654C11.0181 1.41499 11.0475 1.42818 11.0785 1.43539L11.2155 1.46719C11.2831 1.48288 11.3494 1.4368 11.3584 1.36799C11.3629 1.33285 11.3513 1.29754 11.3269 1.27191L11.1971 1.13587C11.1823 1.12036 11.1707 1.10207 11.163 1.08207L11.1455 1.03699C11.1298 0.996269 11.1427 0.950052 11.1773 0.923433L11.2219 0.889146C11.2398 0.875356 11.2434 0.849736 11.2298 0.831606L11.2225 0.821807C11.2135 0.809716 11.2155 0.792694 11.2271 0.783005C11.241 0.771323 11.2406 0.749747 11.2261 0.738659L11.1572 0.685624C11.1331 0.667083 11.119 0.638403 11.119 0.607999C11.119 0.597532 11.1173 0.587133 11.114 0.577198L11.0722 0.450922C11.0667 0.434363 11.0528 0.422017 11.0357 0.418576C10.9971 0.410815 10.9833 0.362835 11.0118 0.335738L11.0663 0.283926C11.0799 0.271039 11.0972 0.262829 11.1158 0.260494L11.135 0.258074C11.1455 0.256752 11.1561 0.256572 11.1667 0.257537L11.2993 0.269668C11.3168 0.27127 11.3345 0.269707 11.3514 0.265052C11.3909 0.254234 11.433 0.260373 11.4677 0.281986L11.545 0.330129C11.5685 0.344738 11.5935 0.356556 11.6197 0.365343L11.6488 0.375104C11.6983 0.391706 11.7499 0.401199 11.8021 0.403299C11.8813 0.406486 11.9603 0.392575 12.0336 0.362513L12.2987 0.253844C12.3339 0.239393 12.3709 0.229554 12.4087 0.22457L12.5169 0.210283C12.6949 0.186797 12.8592 0.309574 12.887 0.486932C12.9008 0.574733 12.9493 0.653295 13.0217 0.704914L13.2404 0.860964C13.3059 0.907731 13.3422 0.985379 13.3361 1.06567C13.3322 1.11668 13.3454 1.16754 13.3737 1.21019L13.4786 1.36858C13.5171 1.42664 13.5664 1.47674 13.6238 1.51614L13.6831 1.55684C13.7021 1.56984 13.7234 1.57902 13.7459 1.58386C13.7951 1.59447 13.8374 1.62556 13.8623 1.66932L13.88 1.70065C13.8845 1.70855 13.8878 1.71708 13.8898 1.72596C13.8976 1.76152 13.9259 1.78898 13.9617 1.79573L13.9994 1.80284C14.0196 1.80664 14.0403 1.80624 14.0603 1.80167L14.0964 1.79341C14.1668 1.77732 14.2405 1.78499 14.3061 1.81522L14.3525 1.83665C14.3812 1.84987 14.4119 1.85832 14.4433 1.86164C14.5103 1.86874 14.5727 1.899 14.6198 1.9472L16.3157 3.68288C16.3716 3.74003 16.4369 3.78707 16.5088 3.8219C16.579 3.85592 16.6545 3.8778 16.732 3.88663L17.0269 3.92022C17.0332 3.92094 17.0396 3.92051 17.0457 3.91896C17.0601 3.91536 17.0752 3.91793 17.0876 3.92606L17.1727 3.98202C17.238 4.025 17.3181 4.03918 17.3942 4.02123L17.7343 3.94104C17.7673 3.93326 17.8012 3.93017 17.8351 3.93188L17.9273 3.93652C18.0311 3.94174 18.1195 4.01504 18.1446 4.11595C18.1533 4.15095 18.1537 4.18771 18.1458 4.2229C18.1207 4.33478 18.1811 4.44823 18.288 4.48985L18.5654 4.59788C18.5838 4.60506 18.5968 4.62177 18.5992 4.6414C18.6017 4.66118 18.6149 4.67799 18.6335 4.68507L19.3143 4.94385C19.3175 4.94505 19.3205 4.94648 19.3235 4.94812L19.3343 4.95416C19.3644 4.97098 19.4024 4.95799 19.4159 4.92626C19.4284 4.89708 19.4619 4.88329 19.4913 4.89532L19.6382 4.95555C19.6481 4.9596 19.6574 4.96491 19.6659 4.97134L19.6762 4.97905C19.7016 4.99828 19.7348 5.00408 19.7653 4.99464C19.7992 4.98413 19.8362 4.99256 19.8622 5.01672L19.9768 5.12318C20.0099 5.15395 20.0484 5.17838 20.0904 5.19526L20.216 5.24583C20.2488 5.25902 20.279 5.27774 20.3054 5.30119L20.3678 5.35656C20.3889 5.37528 20.4165 5.38486 20.4447 5.38319L20.4771 5.38128C20.5109 5.37927 20.5412 5.40231 20.5482 5.43549L20.5486 5.43714C20.5551 5.46786 20.5823 5.48983 20.6137 5.48983H20.6575C20.6802 5.48983 20.6965 5.46798 20.69 5.44623C20.6842 5.42682 20.6966 5.4067 20.7165 5.40316L20.7794 5.392C20.8018 5.38801 20.825 5.39263 20.8442 5.40494L20.8905 5.43455C20.8976 5.43914 20.9023 5.44674 20.9033 5.45521L20.9055 5.47517C20.9072 5.49071 20.9262 5.49734 20.9372 5.48625C20.9467 5.47667 20.9629 5.4801 20.9678 5.49272L20.9851 5.53803C20.9913 5.55432 21.0111 5.56059 21.0255 5.55088C21.0367 5.54339 21.0517 5.5452 21.0607 5.55514L21.1077 5.60673C21.1231 5.62362 21.1461 5.63138 21.1686 5.62727L21.199 5.6217C21.2113 5.61945 21.2235 5.62592 21.2285 5.63732L21.2339 5.64952C21.241 5.66557 21.2636 5.66608 21.2714 5.65036C21.2775 5.63807 21.2937 5.63502 21.3038 5.64423L21.3441 5.6807C21.3552 5.69075 21.3578 5.70716 21.3505 5.72018C21.3405 5.73766 21.349 5.75986 21.3681 5.76626L21.4037 5.77819C21.4185 5.78317 21.4347 5.78243 21.449 5.77613L21.4544 5.77374C21.5033 5.75221 21.559 5.78502 21.5638 5.83826L21.5653 5.85471C21.5681 5.88647 21.5876 5.91435 21.6164 5.92799L21.668 5.95244C21.6897 5.96271 21.7014 5.98661 21.6963 6.01004C21.692 6.02955 21.6767 6.0448 21.6572 6.04916L21.6415 6.05268C21.6273 6.05586 21.6166 6.06784 21.6152 6.08239C21.6127 6.10771 21.6379 6.12666 21.6616 6.11716L21.6626 6.11674C21.678 6.11053 21.6957 6.11618 21.7046 6.13019L21.7508 6.20241C21.7573 6.21264 21.7608 6.22452 21.7608 6.23666C21.7608 6.25533 21.769 6.27305 21.7832 6.28514L21.9961 6.46589C22.008 6.47593 22.0243 6.47876 22.0388 6.47328C22.0609 6.46494 22.0856 6.47616 22.0939 6.49832L22.0951 6.50155C22.1 6.51459 22.1105 6.52475 22.1236 6.52917L22.2114 6.55859C22.2183 6.56091 22.2242 6.56559 22.2281 6.57181L22.2424 6.59482C22.2503 6.60762 22.2695 6.6057 22.2748 6.59158C22.2796 6.57851 22.2968 6.5756 22.3057 6.58635L22.3089 6.59023C22.3175 6.60052 22.3333 6.60036 22.3416 6.5899L22.3519 6.57695C22.3554 6.57251 22.3578 6.56727 22.3588 6.5617L22.3865 6.41061C22.4005 6.33398 22.4787 6.28713 22.5529 6.31088L22.5644 6.31457C22.5798 6.31949 22.5935 6.32863 22.604 6.34094C22.6237 6.36403 22.6298 6.39571 22.6203 6.4245L22.6074 6.46346C22.5949 6.50124 22.5969 6.54232 22.6131 6.57867L22.677 6.72201C22.6864 6.74326 22.7003 6.76227 22.7176 6.77778C22.7469 6.80391 22.7658 6.83962 22.7711 6.87847L22.7747 6.90546C22.7825 6.96275 22.8108 7.01528 22.8544 7.05328L22.8785 7.07435C22.8968 7.09031 22.9169 7.10416 22.9383 7.11564L22.9504 7.12215C22.9994 7.14844 23.04 7.18804 23.0674 7.23638C23.1019 7.29711 23.1137 7.36811 23.1008 7.43674L23.0841 7.52532C23.0361 7.77939 23.1747 8.03185 23.4148 8.12777L24.3503 8.5015C24.5315 8.57391 24.7235 8.61575 24.9185 8.62532L24.9501 8.62688L27.4555 8.7069L27.8095 8.73034C27.9733 8.74118 28.131 8.79676 28.2654 8.89102L28.5074 9.06069C28.5568 9.09535 28.6184 9.10793 28.6775 9.09542L28.7117 9.08818C28.7276 9.08481 28.7423 9.0772 28.7543 9.06617L28.8137 9.01134C28.8231 9.00273 28.8226 8.98784 28.8127 8.97989C28.8021 8.97134 28.8024 8.95507 28.8134 8.94699L28.8917 8.88917C28.9012 8.88216 28.9148 8.88647 28.9185 8.89768C28.9225 8.90959 28.9373 8.91351 28.9466 8.90509L28.9886 8.8671C28.9999 8.85681 29.0064 8.84221 29.0064 8.8269V8.81056C29.0064 8.79506 29.0104 8.77982 29.0179 8.76628L29.0957 8.62656C29.1082 8.60415 29.1358 8.59509 29.1591 8.60576C29.1843 8.61731 29.195 8.64747 29.1827 8.67235L29.154 8.73008C29.1474 8.74325 29.1308 8.74766 29.1186 8.73947C29.1058 8.7309 29.0884 8.73617 29.0825 8.75038L29.0605 8.80358C29.0563 8.81369 29.0545 8.82461 29.0552 8.83553L29.0692 9.05326C29.0697 9.06226 29.0678 9.07124 29.0636 9.07921L29.062 9.08221C29.042 9.12003 29.0784 9.16294 29.1189 9.14933C29.1234 9.14782 29.1281 9.14699 29.1329 9.14688L29.3931 9.14079C29.4347 9.13982 29.4695 9.17207 29.4716 9.21357C29.4739 9.25626 29.5105 9.28891 29.5532 9.28623L29.6724 9.27873C29.7761 9.27221 29.8667 9.34808 29.8785 9.45129L29.8975 9.61851C29.9073 9.70427 29.8749 9.78946 29.8105 9.847L29.7829 9.87176C29.7743 9.87937 29.7675 9.88863 29.7626 9.89896C29.7364 9.95503 29.7773 10.0193 29.8392 10.0193H29.8743C29.8975 10.0193 29.918 10.0342 29.9253 10.0562C29.9324 10.0774 29.9517 10.092 29.9739 10.0931L30.3576 10.1109C30.4215 10.1139 30.4844 10.1268 30.5442 10.1492L30.8387 10.2596C30.8518 10.2645 30.8665 10.2628 30.8782 10.255C30.8952 10.2436 30.9018 10.2215 30.8942 10.2025C30.8844 10.1777 30.8982 10.1494 30.924 10.1425L30.9992 10.1226C31.0172 10.1179 31.0338 10.1087 31.0474 10.0961L31.0718 10.0734C31.1096 10.0383 31.1576 10.0159 31.2089 10.0094L31.3209 9.99533H31.4403C31.492 9.99533 31.5424 9.97935 31.5847 9.94957C31.5944 9.94274 31.6046 9.93661 31.6151 9.93122L32.1093 9.679C32.1351 9.66585 32.1594 9.65008 32.1819 9.63194L32.2835 9.55018C32.3683 9.48192 32.4879 9.47745 32.5775 9.53918C32.6346 9.59137 32.675 9.65924 32.6936 9.73428L32.7162 9.82496C32.7192 9.83701 32.7193 9.84959 32.7166 9.86171L32.7144 9.87168C32.7086 9.89799 32.7195 9.92518 32.7419 9.94019C32.7489 9.9449 32.755 9.95091 32.7597 9.95791L32.8081 10.0295C32.8602 10.1066 32.8901 10.1966 32.8946 10.2895L32.9097 10.6034C32.9109 10.6288 32.9234 10.6524 32.9437 10.6678C32.9637 10.6829 32.9761 10.706 32.9777 10.731L32.9812 10.7875C32.9823 10.8055 32.9973 10.8196 33.0154 10.8196C33.0331 10.8196 33.048 10.8332 33.0495 10.8509L33.0839 11.2528C33.0855 11.2718 33.0977 11.2882 33.1154 11.2954C33.1226 11.2983 33.129 11.3028 33.1342 11.3086L33.5031 11.7226C33.5259 11.7482 33.5606 11.7598 33.5942 11.753C33.6107 11.7497 33.6279 11.7507 33.6439 11.7561L33.6453 11.7566C33.6869 11.7705 33.7149 11.8095 33.7149 11.8533V11.8664C33.7149 11.9116 33.7402 11.9529 33.7803 11.9735L33.921 12.0455C34.0496 12.1114 34.2072 12.0625 34.2759 11.9353L34.343 11.8111C34.348 11.8017 34.3578 11.7959 34.3684 11.7959C34.3728 11.7959 34.3771 11.7969 34.381 11.7989L35.242 12.2201C35.2932 12.2459 35.3521 12.252 35.4076 12.2373L35.6237 12.1801L36.3555 12.092H36.3815C36.463 12.092 36.5425 12.1166 36.6098 12.1626C36.6723 12.2054 36.7215 12.2649 36.7518 12.3343L36.7687 12.3727C36.7848 12.4096 36.7968 12.448 36.8045 12.4875L36.8866 12.9065C36.8982 12.9653 36.9253 13.02 36.9651 13.0648L36.9882 13.0908C37.0215 13.1282 37.0417 13.1753 37.0458 13.2252C37.0469 13.238 37.049 13.2507 37.0522 13.2631L37.3772 14.5403C37.38 14.5512 37.3809 14.5626 37.3798 14.5739C37.376 14.6122 37.3951 14.6491 37.4286 14.6681L37.4428 14.6761C37.4775 14.6958 37.4962 14.7352 37.4893 14.7746C37.4819 14.8162 37.5032 14.8576 37.5413 14.8759L38.2086 15.1971L38.5576 15.3726C38.6195 15.4038 38.6441 15.4794 38.6124 15.541C38.5791 15.6058 38.6082 15.6852 38.6755 15.7131L38.9009 15.8068C38.9107 15.8109 38.918 15.8193 38.9205 15.8296C38.923 15.8395 38.9299 15.8477 38.9392 15.852L39.2727 16.0033C39.3103 16.0204 39.3427 16.0471 39.3665 16.0807L39.4005 16.1286C39.4064 16.1369 39.4096 16.1469 39.4096 16.1571C39.4096 16.1987 39.458 16.2216 39.4902 16.1951L39.5456 16.1495C39.5696 16.1297 39.6025 16.125 39.631 16.1371L40.205 16.3815C40.2415 16.4024 40.272 16.4325 40.2935 16.4686L40.3203 16.5135C40.3281 16.5267 40.3331 16.5414 40.3348 16.5567C40.3382 16.5877 40.3549 16.6157 40.3806 16.6334L40.4561 16.6853C40.4782 16.7006 40.5063 16.7045 40.5318 16.696L40.5461 16.6912C40.5569 16.6876 40.5686 16.688 40.5791 16.6925C40.6013 16.7021 40.6123 16.7273 40.6043 16.7501L40.5876 16.7979C40.577 16.8279 40.5529 16.8512 40.5225 16.8606L40.516 16.8626C40.4851 16.8722 40.4597 16.8944 40.4462 16.9239L40.3776 17.0735C40.3739 17.0814 40.3729 17.0903 40.3746 17.0989C40.3778 17.1152 40.3904 17.128 40.4066 17.1315L40.5693 17.1665C40.5874 17.1704 40.5984 17.1888 40.5933 17.2065C40.5894 17.2203 40.5769 17.2297 40.5626 17.2297H40.5343C40.5079 17.2297 40.4839 17.2447 40.4721 17.2683L40.4666 17.2794C40.457 17.2987 40.4564 17.3212 40.4648 17.341C40.4716 17.357 40.4839 17.3701 40.4995 17.3779L40.5202 17.3883C40.5423 17.3994 40.5585 17.4195 40.5647 17.4434L40.5731 17.4752C40.5837 17.516 40.6311 17.5345 40.6666 17.5118C40.6768 17.5053 40.6848 17.496 40.6898 17.485L40.6995 17.4634C40.714 17.4315 40.7397 17.406 40.7718 17.3919L40.8209 17.3702C40.8387 17.3624 40.8591 17.3635 40.876 17.3732C40.894 17.3835 40.9055 17.4023 40.9065 17.4231L40.9091 17.4745C40.9112 17.5174 40.9452 17.5519 40.9881 17.5546C41.02 17.5566 41.048 17.5764 41.0605 17.6058L41.0773 17.6453C41.0842 17.6615 41.0942 17.6763 41.1066 17.6888L41.1267 17.7091C41.1471 17.7296 41.1764 17.7385 41.2048 17.7328C41.2267 17.7284 41.246 17.7156 41.2587 17.6972L41.3485 17.5666C41.3664 17.5407 41.4029 17.5362 41.4265 17.557C41.4386 17.5676 41.4452 17.5833 41.4443 17.5993L41.4389 17.6976C41.4381 17.7111 41.4385 17.7247 41.4399 17.7382L41.4409 17.7484C41.4492 17.8275 41.4327 17.9072 41.3937 17.9765L41.3482 18.0572C41.3287 18.0919 41.3184 18.1309 41.3184 18.1706C41.3184 18.1889 41.3206 18.207 41.3249 18.2247L41.3821 18.4622L41.4294 18.6003C41.4454 18.6468 41.5019 18.6644 41.5414 18.6351C41.5782 18.6078 41.631 18.6213 41.6505 18.6629C41.6654 18.6948 41.7012 18.7117 41.7353 18.7026L41.7747 18.6922C41.8033 18.6846 41.8324 18.7028 41.8381 18.7318C41.8414 18.7484 41.8526 18.7622 41.8681 18.7689L41.91 18.787C41.9688 18.8124 42.0025 18.8748 41.9913 18.9379L41.9785 19.0098C41.9733 19.0392 41.9624 19.0673 41.9464 19.0926L41.8669 19.2183C41.8619 19.2263 41.8585 19.2352 41.8569 19.2445L41.8533 19.2665C41.8481 19.2979 41.8723 19.3264 41.9042 19.3264C41.9163 19.3264 41.928 19.3307 41.9373 19.3385L41.9393 19.3402C41.9581 19.356 41.9652 19.3818 41.957 19.405L41.9465 19.4344C41.9366 19.4625 41.9391 19.4934 41.9535 19.5194L41.9863 19.579C42.002 19.6073 42.0086 19.6398 42.0052 19.6721L42.0034 19.6896C41.998 19.7413 42.0235 19.7913 42.0685 19.8172L42.0719 19.8191C42.0939 19.8318 42.1114 19.8512 42.1217 19.8745C42.1321 19.898 42.1346 19.9242 42.1289 19.9492L42.1145 20.013C42.1039 20.0599 42.1136 20.1092 42.1413 20.1485L42.1691 20.1882C42.1843 20.2098 42.1877 20.2375 42.1783 20.2621C42.1641 20.2992 42.1795 20.341 42.2142 20.3601L42.3162 20.4161C42.3242 20.4205 42.3307 20.4272 42.3348 20.4354C42.3409 20.4477 42.3523 20.4565 42.3657 20.4593L42.4397 20.4748C42.5001 20.4874 42.5629 20.4717 42.6101 20.432L43.1826 19.9509C43.1996 19.9365 43.2241 19.9352 43.2426 19.9476C43.2532 19.9547 43.2607 19.9656 43.2635 19.978L43.2776 20.0393C43.281 20.0541 43.2775 20.0696 43.268 20.0814L43.2335 20.1249C43.2269 20.1332 43.2139 20.1318 43.2092 20.1223C43.2028 20.1094 43.1835 20.1128 43.1819 20.1271L43.1766 20.1723C43.1742 20.1924 43.1932 20.2082 43.2125 20.2024L43.2346 20.1957C43.2452 20.1925 43.2567 20.1935 43.2665 20.1985L43.276 20.2032C43.3073 20.219 43.3221 20.2555 43.3106 20.2885L43.2929 20.3393C43.2831 20.3676 43.252 20.3824 43.2238 20.3721C43.2022 20.3641 43.1778 20.371 43.1634 20.3891L43.1419 20.4162C43.1305 20.4305 43.1259 20.4492 43.1295 20.4671L43.1394 20.5167C43.1434 20.5367 43.1256 20.5544 43.1056 20.5504C43.0869 20.5466 43.0698 20.5618 43.0714 20.5808L43.0739 20.6117C43.0753 20.6287 43.0683 20.6453 43.055 20.6562L43.0243 20.6813C42.9931 20.7068 43.0043 20.7569 43.0434 20.7667C43.0631 20.7716 43.0839 20.7639 43.0955 20.7472L43.109 20.7277C43.1234 20.707 43.1465 20.6939 43.1717 20.6922L43.2079 20.6898C43.2362 20.6879 43.2645 20.6936 43.2898 20.7064L43.4065 20.7651C43.4195 20.7716 43.4309 20.7807 43.4401 20.7918C43.4567 20.8118 43.4801 20.825 43.5059 20.8287L43.5577 20.8361C43.5702 20.8379 43.5815 20.8446 43.589 20.8548C43.5967 20.8651 43.6083 20.8719 43.6212 20.8735L43.6789 20.8807C43.7101 20.8847 43.7413 20.8739 43.7635 20.8516L43.7855 20.8294C43.7946 20.8203 43.8074 20.8161 43.8201 20.8181C43.8535 20.8232 43.866 20.8648 43.8409 20.8875L43.7547 20.9656C43.748 20.9716 43.7443 20.9801 43.7443 20.9891C43.7443 21.0041 43.7549 21.0171 43.7697 21.0201L43.8232 21.0309C43.8455 21.0354 43.8672 21.0209 43.8716 20.9986C43.876 20.9766 43.8972 20.9622 43.9192 20.9663L43.9269 20.9677C43.9501 20.9719 43.967 20.9921 43.967 21.0158V21.1012C43.967 21.1235 43.9719 21.1455 43.9814 21.1657L44.0335 21.2763C44.0368 21.2835 44.041 21.2903 44.0459 21.2965L44.0976 21.3627C44.1123 21.3815 44.1061 21.4092 44.0847 21.4199L44.0753 21.4247C44.06 21.4324 44.0548 21.4517 44.0643 21.466C44.0723 21.4781 44.088 21.4823 44.101 21.4758L44.1353 21.4585C44.159 21.4466 44.1873 21.4486 44.209 21.4638L44.2752 21.5103C44.3414 21.5567 44.326 21.6587 44.2491 21.6835C44.2413 21.686 44.2339 21.6894 44.227 21.6938L44.2207 21.6977C44.1903 21.7168 44.1543 21.7249 44.1187 21.7207L44.075 21.7155C44.0513 21.7127 44.0273 21.7173 44.0062 21.7285C43.9493 21.7588 43.8786 21.7374 43.8481 21.6807L43.6339 21.2827C43.6112 21.2406 43.5591 21.2242 43.5164 21.2457C43.5041 21.2519 43.4905 21.2551 43.4767 21.2551H43.4574C43.4316 21.2551 43.4061 21.261 43.3829 21.2723L43.1398 21.3911L43.0331 21.4394C43.0019 21.4536 42.9651 21.4459 42.9422 21.4205C42.9181 21.3938 42.8789 21.3868 42.8471 21.4036L42.5815 21.5432C42.4478 21.6134 42.3563 21.7456 42.3365 21.8953L42.2967 22.2954L42.1536 23.6159L42.0661 24.3761L41.8513 26.3528L41.681 27.8252C41.6784 27.8473 41.6943 27.8673 41.7164 27.8698C41.7349 27.8718 41.7495 27.8863 41.7518 27.9047L41.7539 27.9215C41.7552 27.9319 41.7591 27.9417 41.7653 27.9502L41.8043 28.0037C41.8301 28.0391 41.8482 28.0794 41.8577 28.1222L41.8777 28.2129C41.8866 28.2532 41.8988 28.2927 41.9141 28.331L42.3126 29.3298L42.5157 29.7983C42.5823 29.952 42.5053 30.13 42.3477 30.1866L42.2494 30.2219C42.2146 30.2344 42.1889 30.2643 42.1817 30.3006C42.1742 30.3385 42.1465 30.3692 42.1095 30.3807L42.0992 30.3839C42.0775 30.3906 42.0545 30.3912 42.0325 30.3857L42.0312 30.3853C42.0123 30.3806 41.9925 30.3802 41.9735 30.3842L41.8364 30.4129C41.8199 30.4164 41.8031 30.4181 41.7862 30.4181H41.7741C41.7515 30.4181 41.7292 30.4224 41.7082 30.4306C41.6407 30.457 41.5955 30.5213 41.5935 30.5938L41.5889 30.7623L41.554 31.0777C41.5508 31.1074 41.5502 31.1374 41.5523 31.1672L41.5539 31.1897C41.556 31.2194 41.5621 31.2486 41.5721 31.2767L41.575 31.2849C41.5894 31.3254 41.6125 31.3623 41.6429 31.3928C41.6702 31.4203 41.7028 31.4421 41.7386 31.4568L41.8593 31.5065L41.9975 31.5529C42.0485 31.57 42.0981 31.5906 42.1461 31.6148C42.204 31.6439 42.2593 31.678 42.3113 31.7165L42.3842 31.7706L42.6605 32.0425C42.7201 32.1012 42.7841 32.1554 42.8519 32.2045L42.8878 32.2304C42.9285 32.2599 42.9713 32.2865 43.0158 32.3099L43.0615 32.3339C43.1082 32.3584 43.1578 32.377 43.2091 32.3893L43.238 32.3962C43.2784 32.4059 43.3199 32.4097 43.3613 32.4075C43.4198 32.4044 43.4771 32.3894 43.5296 32.3635L43.8429 32.2087C43.8725 32.1941 43.9037 32.1833 43.936 32.1764L43.958 32.1718C44.0108 32.1606 44.0656 32.1634 44.117 32.1798L44.1356 32.1858C44.1862 32.202 44.2304 32.2339 44.2617 32.2769L44.2737 32.2933C44.2916 32.3178 44.3028 32.3467 44.3061 32.3769C44.308 32.3941 44.3073 32.4114 44.3041 32.4284L44.2533 32.6989L44.2498 32.7754C44.2469 32.8408 44.26 32.9059 44.288 32.9651C44.3123 33.0164 44.3472 33.0621 44.3905 33.0989L44.3935 33.1014C44.4166 33.1211 44.4418 33.1382 44.4686 33.1525L44.7146 33.2831L45.267 33.6349C45.3175 33.667 45.3651 33.7036 45.4094 33.744C45.4813 33.8099 45.5437 33.8856 45.5944 33.9689L45.6063 33.9883C45.648 34.0568 45.6965 34.121 45.7511 34.1797L46.353 34.8276L46.6921 35.2869C46.7415 35.3539 46.7999 35.4137 46.8656 35.4647C46.9161 35.504 46.9706 35.5379 47.0283 35.5657L47.0415 35.5721C47.1073 35.6039 47.1762 35.6287 47.2471 35.6461L47.4983 35.7079L47.8483 35.7639L47.8569 35.7665C48.0306 35.8179 48.1962 35.8933 48.349 35.9905L48.4368 36.0465C48.4844 36.0768 48.5349 36.1024 48.5874 36.1229C48.6301 36.1397 48.6741 36.153 48.7189 36.1628L48.7541 36.1705C48.8076 36.1822 48.862 36.1892 48.9168 36.1914L48.9492 36.1927C49.0051 36.1949 49.0605 36.2041 49.1141 36.22C49.1503 36.2307 49.1856 36.2444 49.2196 36.2611L49.4628 36.3801L49.543 36.4078C49.6589 36.448 49.7786 36.4762 49.9003 36.4922H50.0832L50.0924 36.4911C50.2768 36.4705 50.4627 36.4655 50.6479 36.4762L50.8031 36.5074C50.8319 36.5132 50.8594 36.5245 50.8839 36.5406L50.9042 36.554C50.9894 36.6101 51.0194 36.7209 50.974 36.8123L50.7722 37.1714C50.7689 37.1774 50.766 37.1836 50.7636 37.19C50.7389 37.2562 50.7708 37.3302 50.8359 37.3577L50.95 37.4061C50.9968 37.4259 51.0368 37.459 51.0651 37.5012L51.1286 37.5958C51.1974 37.6983 51.2201 37.8249 51.1914 37.9449C51.1552 38.0961 51.2012 38.2553 51.3125 38.3639L51.335 38.386C51.3801 38.43 51.4341 38.464 51.4934 38.4857C51.5495 38.5062 51.6092 38.5153 51.669 38.5123L51.7112 38.5102C51.7287 38.5093 51.746 38.5064 51.7628 38.5014L51.8295 38.4819C51.8877 38.4648 51.9501 38.4892 51.9812 38.5414L51.9873 38.5515C51.9956 38.5655 52 38.5815 52 38.5977C52 38.6273 51.9855 38.6549 51.9613 38.6718L51.9375 38.6884C51.911 38.7069 51.8791 38.716 51.8468 38.7144L51.8097 38.7125C51.7626 38.7102 51.7159 38.7217 51.6754 38.7457L51.6389 38.7673C51.6152 38.7813 51.5971 38.803 51.5875 38.8288C51.5815 38.8447 51.579 38.8617 51.5802 38.8787L51.5832 38.9248C51.5853 38.9567 51.5932 38.9879 51.6063 39.017C51.6194 39.0461 51.6377 39.0726 51.6602 39.0953L51.7153 39.1507C51.746 39.1815 51.7737 39.2152 51.7981 39.2512L51.8789 39.3704C51.8801 39.3722 51.8811 39.3741 51.882 39.3761C51.892 39.3998 51.8728 39.4255 51.8473 39.4225L51.141 39.3411L49.9167 39.312C49.8377 39.3101 49.7592 39.3249 49.6864 39.3554C49.5723 39.4032 49.4773 39.4873 49.416 39.5947L48.9549 40.402C48.9186 40.4657 48.9092 40.5412 48.9288 40.6118C48.9721 40.7674 48.8725 40.9266 48.7136 40.9556L47.7482 41.1317C47.7407 41.133 47.7335 41.1356 47.7269 41.1392L47.6953 41.1565C47.6718 41.1694 47.6424 41.1571 47.6351 41.1313C47.6341 41.1276 47.6325 41.124 47.6304 41.1207L47.3552 40.6776L47.0765 40.2649C46.9875 40.1331 46.8374 40.0559 46.6785 40.0601L46.6559 40.0607C46.6396 40.0611 46.6234 40.0632 46.6075 40.0669L46.5579 40.0784C46.5385 40.0829 46.5182 40.081 46.5 40.0728L46.476 40.0621C46.4637 40.0566 46.4495 40.0575 46.438 40.0644C46.4249 40.0724 46.4173 40.087 46.4183 40.1023L46.4256 40.213C46.4338 40.3367 46.3397 40.4434 46.216 40.4508L46.0751 40.4591C46.0484 40.4607 46.0219 40.4652 45.9961 40.4726L45.7797 40.5349C45.7273 40.5499 45.6734 40.5591 45.6189 40.5622L45.4841 40.57C45.4437 40.5723 45.4034 40.564 45.3673 40.5458C45.3305 40.5273 45.2894 40.519 45.2483 40.5217L45.0961 40.5319C45.0804 40.533 45.0646 40.5324 45.049 40.5303C44.9315 40.5139 44.8208 40.5895 44.7932 40.7049L44.6957 41.113C44.6924 41.1268 44.6907 41.1409 44.6907 41.155C44.6907 41.1727 44.6881 41.1903 44.683 41.2073L44.4919 41.8379L44.4595 41.9838C44.4014 42.2452 44.1527 42.4183 43.8874 42.3821L43.1756 42.2866C43.1081 42.2776 43.0464 42.326 43.0391 42.3938L43.0388 42.3966C43.0328 42.4531 42.9873 42.4972 42.9306 42.5015L42.9177 42.5024C42.8602 42.5067 42.817 42.5567 42.8211 42.6142C42.8215 42.6195 42.8214 42.6249 42.821 42.6302L42.8116 42.7434C42.8079 42.7887 42.786 42.8306 42.7509 42.8595C42.7295 42.8771 42.7127 42.8997 42.7022 42.9254L42.6515 43.0487C42.6354 43.0877 42.6529 43.1323 42.6911 43.1501C42.7132 43.1604 42.7294 43.1803 42.7347 43.2041L42.7513 43.2772C42.7609 43.3198 42.7582 43.3643 42.7436 43.4055L42.7371 43.4239C42.7299 43.4442 42.7197 43.4633 42.7068 43.4805C42.6734 43.5254 42.6237 43.5555 42.5684 43.5643L41.8036 43.6866L41.6069 43.709C41.4707 43.7245 41.3571 43.8202 41.3186 43.9517L41.3148 43.9648C41.3067 43.9925 41.294 44.0187 41.2773 44.0423C41.2676 44.0559 41.2567 44.0685 41.2447 44.08L41.0234 44.2908C40.984 44.3284 40.9654 44.3828 40.9737 44.4367L40.9799 44.4778C40.9873 44.5259 41.0253 44.5636 41.0736 44.5705C41.0933 44.5734 41.1134 44.5708 41.1318 44.5632L41.2677 44.5066C41.3029 44.4919 41.3431 44.5117 41.3529 44.5486C41.3606 44.5778 41.3883 44.5974 41.4184 44.5954C41.4547 44.5929 41.4863 44.6212 41.4873 44.6575L41.4934 44.879L41.4878 44.9329C41.474 45.0643 41.5809 45.177 41.7128 45.1702C41.8327 45.1641 41.9345 45.2572 41.9389 45.3772L41.9468 45.5912L42.0665 46.9543C42.0709 47.0035 42.0388 47.0485 41.991 47.0606C41.9827 47.0626 41.9748 47.0657 41.9674 47.0698L41.8517 47.1328C41.8096 47.1558 41.7628 47.1691 41.7149 47.1718C41.6685 47.1744 41.6233 47.1869 41.5822 47.2086L41.4872 47.2586C41.4808 47.262 41.4738 47.2642 41.4666 47.2651C41.4365 47.2689 41.4139 47.2945 41.4139 47.3249V47.3261C41.4139 47.3513 41.3986 47.3739 41.3753 47.3833L41.3556 47.3913C41.3416 47.3969 41.3293 47.4058 41.3195 47.4172L41.3069 47.432C41.294 47.4471 41.2882 47.4671 41.291 47.4868C41.2933 47.503 41.2899 47.5194 41.2813 47.5333L41.2692 47.5528C41.2602 47.5671 41.2445 47.5759 41.2276 47.5759C41.206 47.5759 41.187 47.5901 41.1808 47.6108L41.1761 47.6265C41.1705 47.6453 41.1574 47.6609 41.14 47.6696L41.1251 47.6771C41.0837 47.698 41.0336 47.6905 41.0001 47.6584L40.9307 47.5918C40.9033 47.5656 40.8699 47.5464 40.8334 47.5359L40.828 47.5343C40.7949 47.5248 40.76 47.5235 40.7263 47.5306C40.6419 47.5483 40.5553 47.513 40.5073 47.4414L39.68 46.2074L39.4587 45.8734C39.399 45.7832 39.2949 45.7328 39.1872 45.7417L38.9702 45.7595C38.9193 45.7637 38.8823 45.8097 38.889 45.8603C38.8914 45.8779 38.8884 45.8958 38.8805 45.9117L38.8567 45.9596C38.8436 45.9859 38.835 46.0142 38.8312 46.0433L38.8188 46.1391C38.815 46.1684 38.8058 46.1967 38.7915 46.2225C38.7795 46.2443 38.764 46.2641 38.7457 46.281L38.7053 46.3186C38.6818 46.3405 38.6601 46.3643 38.6405 46.3897L38.4822 46.5954C38.4801 46.5982 38.4785 46.6012 38.4774 46.6044L38.4758 46.6094C38.4697 46.6276 38.4472 46.6338 38.4327 46.6213C38.4197 46.6101 38.3997 46.6138 38.3916 46.6289L38.367 46.6742C38.3622 46.683 38.3556 46.6907 38.3475 46.6966L38.2531 46.7662C38.2448 46.7724 38.2351 46.7765 38.2249 46.7782C38.2046 46.7816 38.1839 46.7753 38.1689 46.7613L38.0886 46.6858C38.0787 46.6765 38.0664 46.67 38.0531 46.667L38.0261 46.661C38.0115 46.6577 37.9964 46.6638 37.9881 46.6763C37.9778 46.6918 37.9575 46.697 37.9411 46.6883L37.8184 46.6236C37.8083 46.6183 37.797 46.6155 37.7856 46.6155C37.7663 46.6155 37.7477 46.6235 37.7345 46.6376L37.6367 46.7414C37.6204 46.7588 37.6022 46.7745 37.5826 46.7881L37.5501 46.8106C37.4492 46.8806 37.315 46.8788 37.2161 46.806L37.2039 46.7971C37.1846 46.7829 37.1629 46.7722 37.1398 46.7656C37.126 46.7616 37.1118 46.7591 37.0974 46.7581L36.6538 46.7284C36.6464 46.7279 36.6398 46.7235 36.6364 46.7168C36.6347 46.7134 36.6321 46.7105 36.6289 46.7084L36.2918 46.4955L36.1106 46.3509C36.0794 46.326 36.0612 46.2882 36.0612 46.2482C36.0612 46.1706 35.9943 46.1099 35.917 46.1174L35.8258 46.1263C35.8186 46.127 35.8118 46.1302 35.8067 46.1353C35.8016 46.1405 35.7947 46.1437 35.7874 46.1444L35.2801 46.1888C35.141 46.2009 35.0012 46.173 34.8775 46.1082L34.456 45.8874C34.3605 45.8375 34.2427 45.8684 34.1842 45.9588C34.1736 45.9751 34.1608 45.9898 34.1462 46.0025L34.0489 46.0874L32.4185 47.8079L32.389 47.8389C32.3039 47.9283 32.1628 47.9327 32.0722 47.849L31.9516 47.7375C31.9455 47.7319 31.9364 47.7312 31.9296 47.7357C31.9225 47.7405 31.9131 47.7395 31.9071 47.7335L31.8607 47.6869C31.8252 47.6512 31.8228 47.5943 31.855 47.5557L32.1337 47.2215C32.1591 47.1911 32.1876 47.1633 32.2187 47.1387L32.2833 47.0877C32.4175 46.957 32.4153 46.7406 32.2784 46.6127L32.2685 46.6035C32.221 46.5591 32.1618 46.5292 32.0979 46.5174L31.9399 46.4881C31.9101 46.4826 31.8835 46.466 31.8654 46.4417C31.8526 46.4245 31.8446 46.4043 31.8422 46.383L31.8379 46.3434L31.7938 46.1534C31.7861 46.1201 31.7815 46.0862 31.7801 46.0521L31.7746 45.9204C31.7744 45.9144 31.7756 45.9085 31.7783 45.9032C31.7884 45.8828 31.777 45.8582 31.7548 45.8529L31.7137 45.8431C31.6711 45.8329 31.6487 45.786 31.6674 45.7464L31.7822 45.5032L31.9333 45.2711L32.0434 45.1256C32.0524 45.1139 32.0484 45.0969 32.0352 45.0903C32.031 45.0882 32.0263 45.0874 32.0216 45.088L31.9041 45.1032C31.8246 45.1135 31.7438 45.1003 31.6717 45.0651L31.5327 44.9973C31.5243 44.9932 31.5175 44.9865 31.5133 44.9781C31.5073 44.9661 31.496 44.9576 31.4828 44.9552L31.4171 44.9434C31.3398 44.9295 31.2645 44.9766 31.2428 45.0521C31.217 45.1418 31.1172 45.1878 31.0325 45.1487C31.0129 45.1397 30.9954 45.1266 30.9813 45.1104L30.9046 45.0221C30.8639 44.9754 30.8594 44.9072 30.8937 44.8555C30.8975 44.8498 30.9008 44.8438 30.9037 44.8376L31.2259 44.1461C31.2462 44.1024 31.2807 44.0669 31.3237 44.0453L31.3814 44.0162C31.4671 43.9731 31.4948 43.8642 31.4402 43.7854L31.4374 43.7814C31.3936 43.7181 31.4039 43.6321 31.4613 43.5809L31.5331 43.517C31.5525 43.4998 31.5552 43.4706 31.5394 43.4502C31.5238 43.43 31.5262 43.4012 31.5449 43.3839L31.6853 43.2544C31.6954 43.2451 31.6976 43.2299 31.6905 43.2181C31.6837 43.2065 31.6856 43.1918 31.6952 43.1823L31.989 42.8943L32.1167 42.7979C32.1375 42.7822 32.1602 42.7691 32.1842 42.7589C32.2581 42.7276 32.3174 42.6696 32.3503 42.5963L32.3916 42.5043C32.4042 42.4762 32.4145 42.4472 32.4225 42.4175L32.4491 42.318C32.4603 42.2761 32.4823 42.2379 32.5129 42.2071C32.5294 42.1905 32.5435 42.1716 32.5547 42.151L32.7532 41.7872C32.758 41.7784 32.7641 41.7703 32.7712 41.7632C32.785 41.7493 32.7947 41.7318 32.7992 41.7128L32.8045 41.6908C32.8229 41.6136 32.9072 41.5724 32.9795 41.6052C33.0398 41.6326 33.1111 41.6087 33.1426 41.5505L33.1531 41.5312C33.1945 41.4548 33.1624 41.3593 33.0832 41.3235L33.018 41.2939C32.9586 41.267 32.9315 41.1971 32.9562 41.1367C32.9634 41.1191 32.9663 41.0998 32.9644 41.0809C32.9612 41.0483 32.9718 41.0158 32.9938 40.9914L33.2695 40.6856L33.2713 40.6838C33.3447 40.6099 33.3765 40.5042 33.356 40.4021L33.2904 40.0756C33.2658 39.9528 33.3933 39.8556 33.5052 39.9118L33.6827 40.0011C33.7011 40.0104 33.7229 39.997 33.7229 39.9764C33.7229 39.9743 33.7231 39.9723 33.7235 39.9703L33.7781 39.7264C33.7889 39.6778 33.8061 39.6309 33.8291 39.5867C33.9601 39.3351 33.8874 39.0255 33.6582 38.8584L32.8309 38.2551C32.5815 38.0733 32.4815 37.7492 32.5849 37.4585L32.6237 37.3496C32.6352 37.3173 32.6542 37.2882 32.6791 37.2646L32.8574 37.0965C32.8763 37.0786 32.8723 37.0475 32.8495 37.035C32.8282 37.0233 32.8231 36.995 32.8389 36.9765L32.9652 36.8291C32.9876 36.8029 32.9825 36.7632 32.9543 36.7435C32.9268 36.7244 32.9211 36.6861 32.9418 36.6598L33.5981 35.8272C33.6221 35.7968 33.6338 35.7585 33.6311 35.7199C33.6287 35.6861 33.6154 35.6541 33.5931 35.6286L33.536 35.5632C33.4485 35.4631 33.3184 35.411 33.186 35.4231L33.1343 35.4278L33.0039 35.4471C32.9243 35.4589 32.8666 35.5289 32.8701 35.6092C32.8749 35.7166 32.7727 35.7968 32.6696 35.7668L30.955 35.2678L30.8351 35.2502C30.6635 35.225 30.4883 35.2448 30.3267 35.3078L30.1676 35.3878L29.9449 35.5238L29.7837 35.6354C29.7222 35.6779 29.6524 35.7069 29.5789 35.7203L29.5545 35.7248C29.5286 35.7295 29.5021 35.7311 29.4758 35.7294L29.4103 35.7253C29.3958 35.7244 29.3814 35.7273 29.3684 35.7339L29.3595 35.7384C29.338 35.7492 29.3123 35.7473 29.2926 35.7334C29.2655 35.7143 29.257 35.6779 29.2729 35.6488L29.2977 35.6036C29.3192 35.5643 29.3176 35.5164 29.2935 35.4786L29.242 35.3975C29.2178 35.3596 29.1851 35.3278 29.1464 35.3049L28.6187 34.9926C28.5688 34.9631 28.5046 34.9786 28.4737 35.0275C28.4426 35.0766 28.3781 35.092 28.3283 35.0622L28.2941 35.0418C28.2225 34.999 28.1298 35.0239 28.0892 35.0967L27.4074 36.3193C27.3834 36.3623 27.4064 36.4164 27.454 36.429C27.4876 36.4379 27.5229 36.4227 27.5395 36.3922L27.661 36.1701C27.6746 36.1452 27.7064 36.137 27.7303 36.1523C27.7539 36.1674 27.7853 36.1597 27.7992 36.1354L27.9247 35.916L28.2323 35.4208C28.2883 35.3306 28.387 35.2758 28.4932 35.2758H28.5412C28.5543 35.2758 28.5672 35.2786 28.579 35.2841C28.6255 35.3057 28.6445 35.3618 28.6207 35.4072L28.5196 35.5999C28.5159 35.607 28.5172 35.6158 28.5229 35.6215C28.5269 35.6255 28.5288 35.6312 28.5281 35.6368L28.509 35.7905C28.5066 35.8101 28.5064 35.8298 28.5084 35.8495L28.5174 35.9351C28.5198 35.9584 28.5117 35.9817 28.4951 35.9983C28.4862 36.0073 28.4752 36.014 28.4631 36.0178L28.371 36.0468C28.3602 36.0501 28.3511 36.0575 28.3456 36.0673L28.3417 36.074C28.3312 36.0925 28.3384 36.1161 28.3574 36.1256C28.3738 36.1339 28.3818 36.153 28.3759 36.1705L28.3647 36.2044C28.363 36.2095 28.3608 36.2144 28.3582 36.219L28.1634 36.5562L28.0828 36.725C28.0736 36.7443 28.0756 36.767 28.0879 36.7845C28.1001 36.8017 28.1022 36.8241 28.0934 36.8432L28.0642 36.9065C28.0292 36.9824 28.0513 37.0725 28.1176 37.1236L28.1357 37.1374C28.2159 37.1992 28.24 37.3099 28.1925 37.3994L28.0303 37.7049C27.9134 37.9252 27.6755 38.0534 27.4272 38.03L27.0737 37.9967L26.9156 37.9908C26.901 37.9902 26.8954 38.0096 26.9081 38.0169C26.9122 38.0193 26.9148 38.0235 26.9151 38.0282L26.921 38.1233C26.9221 38.1402 26.9209 38.1571 26.9175 38.1737L26.9003 38.2571C26.8835 38.3391 26.8791 38.4232 26.8874 38.5065L26.8987 38.6209L26.9757 39.0857C26.9827 39.1277 26.9834 39.1705 26.9778 39.2127C26.9728 39.2501 26.963 39.2867 26.9485 39.3216L26.8346 39.5954C26.8299 39.6066 26.8202 39.6149 26.8085 39.6179C26.8 39.62 26.7925 39.625 26.7872 39.632L26.6596 39.8009C26.6499 39.8137 26.6348 39.8213 26.6188 39.8213H26.6168C26.5994 39.8213 26.5833 39.8307 26.5749 39.846L26.5605 39.8721C26.5543 39.8834 26.5593 39.8975 26.5713 39.9023C26.5812 39.9063 26.5866 39.917 26.5841 39.9274L26.5761 39.9594C26.5694 39.9862 26.5823 40.0142 26.607 40.0266L26.6177 40.032C26.651 40.0488 26.6667 40.0878 26.6543 40.123L26.57 40.3613C26.5565 40.3998 26.5279 40.4312 26.4909 40.4483L26.4652 40.4603C26.4523 40.4663 26.4418 40.4762 26.435 40.4886L26.4198 40.5168C26.4082 40.538 26.4187 40.5646 26.4416 40.5723C26.458 40.5778 26.4688 40.5934 26.4682 40.6106L26.4623 40.7709C26.4616 40.7886 26.4629 40.8064 26.4662 40.8239L26.4738 40.8646C26.4811 40.9036 26.504 40.9378 26.5373 40.9594C26.5747 40.9835 26.5988 41.0236 26.6027 41.0679L26.6403 41.4973C26.6429 41.5268 26.6508 41.5555 26.6636 41.5821L26.7496 41.7614C26.753 41.7686 26.7507 41.7772 26.744 41.7817C26.7371 41.7863 26.7349 41.7956 26.739 41.8029L26.8681 42.0339C26.8726 42.042 26.8777 42.0497 26.8834 42.057L26.9843 42.1867C27.0019 42.2093 27.0357 42.2106 27.0549 42.1893L27.0613 42.1822C27.0792 42.1624 27.1111 42.1659 27.1243 42.1891C27.1276 42.195 27.1294 42.2016 27.1294 42.2084V42.2198C27.1294 42.2653 27.1662 42.3021 27.2117 42.3021H27.4213C27.4281 42.3021 27.435 42.3031 27.4416 42.305C27.4694 42.313 27.4899 42.3366 27.494 42.3652L27.5003 42.4097C27.5022 42.4233 27.5061 42.4365 27.5117 42.4489L27.6594 42.7731C27.6682 42.7924 27.6541 42.8143 27.633 42.8143C27.6126 42.8143 27.5985 42.8347 27.6058 42.8538L27.6251 42.9044C27.6286 42.9136 27.6301 42.9234 27.6293 42.9332L27.6218 43.0317C27.6171 43.0937 27.5961 43.1534 27.561 43.2048L27.5387 43.2374C27.531 43.2487 27.5215 43.2585 27.5105 43.2666L27.4312 43.3252C27.4184 43.3346 27.4004 43.3314 27.3917 43.3182C27.3831 43.3052 27.3654 43.3019 27.3527 43.3109L27.1943 43.4231C27.1727 43.4384 27.1472 43.4471 27.1208 43.4483L27.0393 43.4521C27.0098 43.4534 26.9846 43.431 26.9825 43.4015L26.981 43.3814C26.9796 43.3604 26.9605 43.3452 26.9397 43.3484L26.9154 43.3522C26.8979 43.3549 26.8843 43.3371 26.8915 43.3209C26.8983 43.3053 26.8861 43.2881 26.8691 43.2895L26.7415 43.2997C26.7227 43.3012 26.7062 43.2876 26.7042 43.2689L26.7037 43.2646C26.7017 43.2463 26.7159 43.2304 26.7343 43.2304C26.7507 43.2304 26.7642 43.2176 26.765 43.2012L26.7708 43.0834C26.7712 43.0755 26.7669 43.0681 26.7598 43.0645C26.7491 43.0591 26.7455 43.0455 26.7521 43.0355L26.8012 42.9615C26.8179 42.9363 26.8051 42.9021 26.7759 42.8941L26.7715 42.8929C26.757 42.8889 26.7416 42.8939 26.7322 42.9057C26.7224 42.9181 26.7058 42.923 26.6909 42.9179L26.6683 42.9104C26.6527 42.9052 26.6394 42.8947 26.6306 42.8808L26.6008 42.8336C26.593 42.8213 26.5803 42.8131 26.566 42.811C26.546 42.8082 26.5262 42.8177 26.5161 42.8352L26.5028 42.8581C26.487 42.8855 26.4577 42.9023 26.4261 42.9023H26.357C26.2879 42.9023 26.2233 42.8681 26.1845 42.811L25.6722 42.0577C25.6416 42.0127 25.6159 41.9645 25.5956 41.914L25.5041 41.6862C25.4856 41.64 25.4489 41.6034 25.4027 41.5848C25.372 41.5724 25.3385 41.5686 25.3058 41.5738L25.2498 41.5827C25.2204 41.5874 25.1902 41.5832 25.1631 41.5706C25.1238 41.5523 25.0785 41.552 25.0389 41.5696L24.6519 41.7422C24.5487 41.7881 24.4275 41.7525 24.3656 41.658C24.3037 41.5634 24.1823 41.5278 24.0791 41.5739L24.0204 41.6002C23.9471 41.6329 23.8615 41.6203 23.8009 41.5677L23.7722 41.5428C23.7129 41.4914 23.6992 41.4048 23.7397 41.3376L23.7413 41.3351C23.7786 41.2732 23.8533 41.2446 23.9224 41.2659C24.0123 41.2935 24.1063 41.2367 24.1235 41.1442L24.1584 40.9571C24.1613 40.9416 24.1619 40.9256 24.1601 40.9099C24.1566 40.8784 24.1625 40.8466 24.177 40.8184L24.2526 40.6718C24.2615 40.6546 24.2656 40.6354 24.2645 40.6161L24.2594 40.5229C24.2587 40.5113 24.268 40.5015 24.2797 40.5015C24.2862 40.5015 24.2923 40.4984 24.2961 40.4931L24.4584 40.2705C24.4628 40.2645 24.4666 40.2581 24.47 40.2514L24.4745 40.2423C24.4887 40.2138 24.4898 40.1805 24.4776 40.1511C24.4646 40.1197 24.4668 40.0841 24.4836 40.0546L24.6718 39.7232C24.6981 39.6768 24.7309 39.6343 24.7691 39.5969L25.1306 39.2434C25.2055 39.1702 25.1935 39.0466 25.1061 38.9891C25.0821 38.9733 25.0543 38.9641 25.0256 38.9624L24.87 38.9532C24.8273 38.9507 24.7904 38.9219 24.7775 38.881C24.7592 38.8232 24.7946 38.7619 24.8539 38.7491L24.8779 38.7439C24.925 38.7338 24.9528 38.685 24.9377 38.6393C24.9203 38.5869 24.9593 38.5328 25.0145 38.5328H25.0849C25.1019 38.5328 25.115 38.5178 25.1126 38.5009C25.1107 38.4871 25.0988 38.4768 25.0849 38.4768H25.0788C25.0637 38.4768 25.0503 38.4672 25.0456 38.4528L25.0414 38.4403C25.0344 38.419 25.0147 38.4044 24.9923 38.4038L24.7684 38.3981C24.7424 38.3974 24.7227 38.3741 24.7264 38.3483C24.7271 38.3433 24.7269 38.3383 24.7259 38.3333L24.6709 38.0692C24.6626 38.0292 24.6234 38.0035 24.5834 38.012L24.5697 38.0149C24.5348 38.0223 24.501 37.9982 24.4966 37.9628C24.4923 37.9287 24.4608 37.9049 24.4269 37.91L24.1104 37.9578C24.0564 37.9659 24.0064 37.9277 24 37.8735C23.9973 37.8497 24.0034 37.8258 24.0172 37.8063L24.032 37.7856C24.0594 37.7468 24.1024 37.722 24.1497 37.7176L24.3557 37.6984C24.4536 37.6893 24.5479 37.6568 24.6306 37.6036L25.3637 37.1324L25.5219 37.004C25.5767 36.9595 25.6042 36.8895 25.5943 36.8196C25.5844 36.7504 25.6113 36.6811 25.6651 36.6365L25.8359 36.4949C25.8444 36.4878 25.8514 36.479 25.8564 36.469C25.8668 36.4482 25.8858 36.4329 25.9084 36.4272L26.0631 36.3883C26.0789 36.3843 26.086 36.3659 26.077 36.3523C26.0697 36.3412 26.0729 36.3263 26.0841 36.3192L26.1087 36.3037C26.1206 36.2963 26.1289 36.2844 26.1319 36.2707L26.1567 36.1558C26.1635 36.1241 26.1657 36.0916 26.1631 36.0593L26.1432 35.8119L26.1585 35.4032C26.1589 35.393 26.1609 35.3829 26.1645 35.3733C26.176 35.3425 26.2025 35.3197 26.2347 35.313L26.3841 35.2819C26.4025 35.2781 26.4178 35.2652 26.4247 35.2477C26.4279 35.2398 26.4292 35.2313 26.4285 35.2229L26.423 35.1497C26.4086 34.9578 26.5421 34.7863 26.7317 34.7532L26.9782 34.71C27.0729 34.6934 27.1535 34.6315 27.194 34.5443C27.2534 34.4162 27.2132 34.264 27.0984 34.1818L26.6456 33.8581C26.4854 33.7436 26.2791 33.7151 26.0938 33.7819L25.9745 33.8249C25.8993 33.852 25.8162 33.8477 25.7442 33.8129C25.6881 33.7858 25.625 33.777 25.5637 33.7877L25.3058 33.8326C25.2656 33.8396 25.2242 33.8359 25.1859 33.8219C25.1667 33.8148 25.1466 33.8104 25.1262 33.8086L24.9957 33.7972C24.9814 33.7959 24.9669 33.7973 24.953 33.8013C24.9304 33.8078 24.9064 33.8074 24.884 33.8L24.6152 33.7121C24.6053 33.7089 24.5964 33.7034 24.5891 33.6961C24.5715 33.6784 24.5455 33.6722 24.5219 33.6802L24.4568 33.702C24.4308 33.7107 24.4031 33.7132 24.3759 33.7093L24.2822 33.6958C24.261 33.6928 24.2403 33.6869 24.2206 33.6784L24.2059 33.6721C24.1626 33.6535 24.1274 33.62 24.1064 33.5778L24.102 33.569C24.0847 33.5341 24.056 33.5063 24.0208 33.4899L24.0194 33.4893C23.9885 33.4749 23.9627 33.4513 23.9455 33.4218L23.935 33.4036C23.9228 33.3826 23.9038 33.3663 23.8811 33.3576C23.8399 33.3416 23.8128 33.302 23.8128 33.2578V33.2303C23.8128 33.2035 23.8268 33.1786 23.8498 33.1647C23.8757 33.1491 23.8899 33.1197 23.8862 33.0897L23.8806 33.045C23.8779 33.0227 23.8699 33.0012 23.8575 32.9824L23.8549 32.9786C23.8378 32.9527 23.8283 32.9225 23.8275 32.8915L23.8214 32.66C23.821 32.6462 23.8321 32.6349 23.8458 32.6349C23.8586 32.6349 23.8692 32.625 23.8702 32.6123L23.8741 32.5606C23.8755 32.5426 23.8876 32.5271 23.9047 32.5214C23.917 32.5172 23.927 32.5079 23.932 32.4959L23.9535 32.444C23.96 32.4283 23.9579 32.4104 23.9481 32.3966C23.9343 32.3771 23.9365 32.3504 23.9534 32.3334L23.9625 32.3242C23.9687 32.318 23.9735 32.3106 23.9767 32.3025L24.0314 32.165C24.0341 32.1583 24.0347 32.151 24.0333 32.1439C24.0299 32.1268 24.0152 32.1143 23.9978 32.1138L23.5425 32.0999C23.5171 32.0991 23.4924 32.109 23.4744 32.127L23.4136 32.1883C23.406 32.1959 23.3934 32.195 23.387 32.1864C23.3808 32.178 23.3687 32.1769 23.361 32.184L23.1716 32.3586C23.1322 32.395 23.0685 32.3798 23.0498 32.3295L23.0462 32.3199C23.043 32.3114 23.0372 32.304 23.0296 32.2989L23.016 32.2898C23.0036 32.2815 23.0002 32.2647 23.0085 32.2522C23.0175 32.2387 23.0126 32.2203 22.9981 32.213L22.9898 32.2088C22.9738 32.2008 22.9543 32.206 22.9444 32.2209L22.9209 32.2564C22.9077 32.2763 22.8822 32.2839 22.8602 32.2744C22.8488 32.2695 22.8397 32.2604 22.8346 32.249L22.8324 32.2439C22.8201 32.216 22.7886 32.2021 22.7597 32.2118C22.7464 32.2163 22.7319 32.2159 22.7189 32.2106L22.6837 32.1965C22.6677 32.19 22.6507 32.1862 22.6335 32.1851L22.5516 32.1799C22.5388 32.1791 22.5261 32.1765 22.5141 32.1722L22.459 32.1524C22.4363 32.1442 22.4109 32.1517 22.3962 32.1708L22.3901 32.1786C22.376 32.1968 22.3504 32.2014 22.3309 32.1891C22.3136 32.1783 22.2913 32.1804 22.2764 32.1944L22.1994 32.2667C22.1888 32.2766 22.1737 32.2803 22.1597 32.2763C22.1406 32.2708 22.1202 32.2797 22.1113 32.2976L22.0891 32.3423C22.0824 32.3558 22.0728 32.3676 22.0609 32.3769L22.055 32.3815C22.0247 32.4052 21.9857 32.4148 21.9478 32.4077L21.8261 32.385C21.8038 32.3809 21.7819 32.3749 21.7606 32.3671L21.7051 32.3468L21.4982 32.2947C21.4714 32.288 21.4439 32.3031 21.4351 32.3294C21.4299 32.3454 21.4173 32.3579 21.4013 32.3631L20.244 32.7394C20.171 32.7631 20.0908 32.7387 20.0434 32.6783L20.0185 32.6466C20.0085 32.6338 19.9944 32.6249 19.9786 32.6214L19.9581 32.6168C19.942 32.6132 19.9255 32.6199 19.9164 32.6336C19.9065 32.6485 19.8879 32.6549 19.8709 32.6492L19.868 32.6483C19.8458 32.6408 19.8335 32.617 19.8403 32.5945L20.019 32.0027L20.0222 31.991C20.0952 31.7321 19.9448 31.4629 19.686 31.3893L19.4067 31.3098C19.3826 31.3029 19.3652 31.2821 19.3627 31.2571C19.3603 31.2335 19.3445 31.2134 19.3221 31.2056L18.8745 31.0492C18.8283 31.033 18.7786 31.0623 18.7702 31.1106C18.7619 31.1587 18.7124 31.1879 18.6662 31.172L18.5964 31.1479C18.5279 31.1243 18.4882 31.0528 18.5042 30.9821L18.506 30.9744C18.5245 30.8927 18.4731 30.8116 18.3913 30.7935L18.2567 30.7638C18.2327 30.7585 18.2088 30.7733 18.2029 30.7972L18.2013 30.8033C18.1953 30.8277 18.1685 30.8406 18.1456 30.8301C18.1229 30.8198 18.0964 30.8323 18.09 30.8564L17.9988 31.2024L17.8953 31.5312C17.8691 31.6143 17.7798 31.6598 17.6972 31.6321C17.631 31.6099 17.5877 31.5463 17.5912 31.4765L17.5991 31.3221C17.6002 31.2998 17.5839 31.2804 17.5617 31.2778L17.5312 31.2742C17.5062 31.2712 17.4966 31.2399 17.5157 31.2235C17.5195 31.2201 17.5224 31.2159 17.5241 31.2111L17.5558 31.1209C17.5945 31.0105 17.5813 30.8885 17.5197 30.789L17.4127 30.616C17.4006 30.5964 17.393 30.5743 17.3905 30.5514L17.3824 30.4781C17.38 30.4566 17.3643 30.4389 17.3432 30.434C17.3095 30.4261 17.2779 30.4534 17.2808 30.4879L17.2873 30.566C17.2896 30.5943 17.2807 30.6224 17.2625 30.6443L17.2211 30.6939C17.1652 30.7608 17.0688 30.777 16.9941 30.7319C16.9502 30.7054 16.92 30.6612 16.9113 30.6108L16.9018 30.5556C16.8963 30.524 16.8782 30.4961 16.8515 30.4782C16.8321 30.4651 16.817 30.4465 16.8082 30.4248L16.7446 30.2677C16.7382 30.252 16.7412 30.234 16.7523 30.2212C16.7715 30.1992 16.765 30.1651 16.7392 30.1516L15.954 29.7417C15.9492 29.7392 15.9441 29.7372 15.9389 29.7357L15.9227 29.731C15.879 29.7184 15.8354 29.7512 15.8354 29.7967C15.8354 29.828 15.8141 29.8553 15.7837 29.8629L15.7267 29.8773C15.6942 29.8855 15.6598 29.882 15.6295 29.8675L15.5494 29.8291C15.5232 29.8166 15.501 29.797 15.4852 29.7726L15.4456 29.7116C15.4159 29.6657 15.353 29.6557 15.3105 29.6899L14.4933 30.4164C14.4919 30.4175 14.4908 30.4189 14.4898 30.4203C14.4825 30.4314 14.4667 30.4326 14.4578 30.4228L13.9935 29.9118C13.9754 29.8919 13.9559 29.8734 13.9352 29.8563L13.5502 29.5393C13.4367 29.4459 13.2726 29.4476 13.1611 29.5433C13.1108 29.5865 13.0477 29.6119 12.9815 29.6157L12.6479 29.6349C12.5821 29.6387 12.5268 29.5864 12.5268 29.5206C12.5268 29.4621 12.4827 29.413 12.4246 29.4067L12.063 29.3675C12.0308 29.3641 11.9999 29.3805 11.9847 29.409C11.9637 29.4487 11.9138 29.4629 11.8751 29.4401L11.8741 29.4395C11.8589 29.4306 11.8413 29.427 11.8238 29.4291L11.7021 29.444C11.5883 29.458 11.4734 29.4272 11.3819 29.3581L11.3742 29.3523C11.2676 29.2718 11.2006 29.1494 11.1903 29.0162L11.1296 28.2279C11.1278 28.205 11.1287 28.1819 11.1323 28.1592C11.1442 28.0836 11.1849 28.0155 11.2458 27.9692L11.5847 27.712C11.5974 27.7024 11.6068 27.6892 11.6118 27.6741C11.6172 27.6579 11.6171 27.6405 11.6117 27.6244L11.4438 27.1246C11.4341 27.0958 11.4197 27.0687 11.4013 27.0445L11.395 27.0364C11.3655 26.9977 11.325 26.9687 11.2788 26.9532C11.2625 26.9477 11.2467 26.9405 11.2319 26.9317L10.9725 26.7778C10.9574 26.7689 10.9379 26.7753 10.931 26.7914C10.925 26.8057 10.9087 26.8126 10.8942 26.8071L10.8766 26.8005C10.8638 26.7957 10.8537 26.7857 10.8486 26.773L10.8276 26.7201C10.8153 26.6892 10.7947 26.6625 10.768 26.6428L10.7146 26.6034C10.6979 26.5911 10.6803 26.58 10.6618 26.5703L10.3236 26.3928L9.86234 26.2167L9.75638 26.1837C9.67338 26.1577 9.58849 26.1383 9.50247 26.1256L9.44796 26.1175C9.39027 26.109 9.33342 26.0956 9.27801 26.0774L9.00592 25.9881C8.99905 25.9859 8.99169 25.9856 8.98469 25.9874C8.97161 25.9906 8.95777 25.9868 8.94827 25.9772L8.91193 25.9407C8.87987 25.9084 8.8672 25.8616 8.87862 25.8176L8.90792 25.7046L9.03275 25.3069C9.04471 25.2687 9.04527 25.2279 9.03436 25.1895C9.01507 25.1216 8.9622 25.0684 8.89441 25.0487L8.66248 24.9813C8.65122 24.978 8.63947 24.9768 8.62778 24.9776L8.60428 24.9793C8.56495 24.9821 8.5303 24.9536 8.52543 24.9145Z" fill="white"/>
</svg>
