<svg width="45" height="45" viewBox="0 0 45 45" fill="none" xmlns="http://www.w3.org/2000/svg">
<path fill-rule="evenodd" clip-rule="evenodd" d="M5.97879 18.2618C7.10044 19.1283 8.32216 19.8436 9.62071 20.4229C9.98595 16.3115 10.9294 12.343 12.1023 8.9741C9.12681 11.2625 6.93025 14.5138 5.97879 18.2618ZM14.5509 21.4879C14.5402 21.6371 14.5303 21.7861 14.5213 21.9351C17.2155 22.4536 20.0804 22.5642 22.9662 22.3653C25.5727 22.1857 28.1207 21.7575 30.4664 21.1898C28.826 0.740156 16.0128 1.25758 14.5509 21.4879ZM32.9843 9.10859C34.069 12.2551 34.9513 15.9146 35.3512 19.72C36.7033 19.2265 37.9078 18.7056 38.9177 18.1932C37.9757 14.5469 35.8542 11.3749 32.9843 9.10859ZM39.4271 23.4749C38.2599 23.9836 36.9646 24.4772 35.5718 24.9339C35.4881 28.4291 34.9083 31.9967 33.5724 35.3208C36.9371 32.4107 39.1481 28.2026 39.4271 23.4749ZM30.5034 26.3117C28.2086 26.8133 25.7795 27.1833 23.31 27.3535C20.4753 27.5489 17.5127 27.4848 14.5968 27.0225C16.2478 43.996 29.3101 42.8019 30.5034 26.3117ZM11.5343 35.4849C10.2569 32.3726 9.64951 29.0412 9.49696 25.7518C8.12924 25.2714 6.79735 24.6763 5.52166 23.9504C5.92379 28.5733 8.1762 32.6664 11.5343 35.4849ZM0.457031 22.4578C0.457031 10.3075 10.3068 0.457764 22.457 0.457764C34.6073 0.457764 44.457 10.3075 44.457 22.4578C44.457 34.608 34.6073 44.4578 22.457 44.4578C10.3068 44.4578 0.457031 34.608 0.457031 22.4578Z" fill="white"/>
</svg>