<?xml version="1.0" standalone="no"?>
<!DOCTYPE svg PUBLIC "-//W3C//DTD SVG 20010904//EN"
 "http://www.w3.org/TR/2001/REC-SVG-20010904/DTD/svg10.dtd">
<svg version="1.0" xmlns="http://www.w3.org/2000/svg"
 width="700.000000pt" height="700.000000pt" viewBox="0 0 700.000000 700.000000"
 preserveAspectRatio="xMidYMid meet">
<metadata>
Created by potrace 1.14, written by Peter Selinger 2001-2017
</metadata>
<g transform="translate(0.000000,700.000000) scale(0.100000,-0.100000)"
fill="#000000" stroke="none">
<path d="M2745 4921 c-16 -4 -47 -16 -67 -27 -55 -29 -1322 -1247 -1344 -1292
-26 -53 -30 -143 -10 -196 18 -46 89 -119 561 -572 143 -137 374 -359 513
-492 164 -158 267 -250 295 -262 51 -24 162 -27 211 -6 50 21 117 85 138 134
12 26 19 66 19 99 0 107 -4 112 -586 669 -291 279 -531 511 -533 514 -2 6 262
262 878 853 209 200 240 243 240 333 0 95 -45 172 -127 216 -53 29 -138 42
-188 29z"/>
<path d="M4107 4916 c-85 -31 -150 -106 -166 -189 -10 -55 1 -125 26 -168 10
-17 260 -262 556 -546 296 -284 536 -519 535 -523 -2 -3 -244 -238 -538 -521
-390 -374 -541 -526 -557 -559 -41 -81 -27 -189 35 -260 54 -64 103 -85 197
-85 94 0 123 13 205 89 142 131 1199 1148 1232 1184 61 68 75 164 37 253 -19
43 -112 136 -668 670 -366 352 -663 630 -686 641 -51 27 -156 34 -208 14z"/>
</g>
</svg>
