<?xml version="1.0" standalone="no"?>
<!DOCTYPE svg PUBLIC "-//W3C//DTD SVG 20010904//EN"
 "http://www.w3.org/TR/2001/REC-SVG-20010904/DTD/svg10.dtd">
<svg version="1.0" xmlns="http://www.w3.org/2000/svg"
 width="512.000000pt" height="512.000000pt" viewBox="0 0 512.000000 512.000000"
 preserveAspectRatio="xMidYMid meet">
<metadata>
Created by potrace 1.14, written by Peter Selinger 2001-2017
</metadata>
<g transform="translate(0.000000,512.000000) scale(0.100000,-0.100000)"
fill="#000000" stroke="none">
<path d="M2378 4955 c-1 -1 -32 -6 -68 -9 -623 -63 -1208 -382 -1609 -876 -20
-25 -39 -49 -43 -55 -4 -5 -18 -23 -31 -40 -67 -87 -182 -281 -236 -398 -102
-223 -160 -413 -206 -682 -20 -122 -28 -455 -13 -604 63 -620 369 -1201 848
-1607 241 -205 563 -379 860 -466 70 -20 229 -57 270 -63 14 -2 43 -6 65 -9
140 -21 192 -24 386 -22 118 1 219 5 225 8 5 3 36 9 69 13 170 19 461 102 636
181 631 287 1100 813 1313 1473 37 113 79 292 90 386 4 28 9 66 12 85 12 74
11 438 -2 546 -75 635 -387 1208 -874 1604 -30 25 -57 48 -60 51 -11 12 -172
119 -180 119 -4 0 -10 4 -12 8 -4 10 -101 64 -223 125 -201 100 -467 182 -694
213 -25 3 -57 8 -71 11 -28 5 -446 13 -452 8z m388 -664 c264 -131 475 -508
589 -1051 27 -131 59 -343 71 -470 3 -41 8 -78 10 -82 7 -11 -275 -71 -456
-98 -252 -36 -385 -45 -665 -45 -252 1 -345 7 -530 37 -81 13 -95 21 -90 51 2
12 6 58 10 102 9 103 13 136 34 285 90 615 315 1087 599 1253 89 52 150 67
255 63 80 -3 96 -7 173 -45z m-1347 -298 c-6 -16 -15 -41 -19 -58 -5 -16 -20
-68 -34 -115 -62 -202 -153 -607 -171 -760 -3 -30 -8 -62 -10 -70 -2 -8 -7
-44 -10 -80 -8 -82 -16 -134 -21 -139 -11 -12 -308 160 -379 219 -11 9 -10 23
6 77 67 237 208 500 367 686 65 76 264 267 278 267 2 0 -1 -12 -7 -27z m2417
-100 c122 -121 139 -140 217 -245 88 -120 174 -274 229 -413 28 -71 68 -197
68 -216 0 -14 -123 -74 -305 -148 -85 -34 -77 -40 -89 60 -14 114 -17 137 -32
224 -20 116 -78 389 -104 485 -12 41 -23 84 -25 95 -3 11 -23 75 -44 143 -21
67 -35 122 -31 122 4 0 56 -48 116 -107z m570 -1532 c-4 -37 -8 -77 -10 -87
-2 -11 -7 -39 -11 -64 -11 -77 -64 -267 -96 -348 -39 -97 -107 -234 -161 -320
-80 -128 -261 -344 -329 -392 l-27 -20 26 63 c36 89 88 271 116 406 25 117 29
144 42 236 3 28 8 58 9 67 2 9 7 57 11 105 4 48 8 99 9 113 1 14 3 53 3 86 l2
61 63 22 c108 38 301 113 327 127 14 7 27 13 29 14 2 0 0 -31 -3 -69z m-3356
-147 c41 -15 80 -32 87 -38 6 -6 14 -54 17 -106 16 -266 81 -590 166 -831 21
-62 37 -115 35 -117 -9 -10 -203 196 -271 288 -108 145 -182 276 -244 435 -15
39 -31 79 -35 90 -9 23 -9 22 -29 95 -19 67 -43 179 -51 240 -3 25 -7 54 -9
65 -2 11 -2 23 1 27 2 4 61 -21 131 -56 70 -35 161 -76 202 -92z m2384 -146
c-11 -120 -32 -262 -58 -384 -134 -635 -506 -1040 -900 -981 -204 31 -396 191
-533 446 -61 114 -158 379 -178 489 -3 15 -7 38 -10 52 -24 113 -46 259 -49
325 -1 12 5 19 14 18 8 -1 53 -6 100 -12 171 -21 250 -25 505 -25 258 -1 361
4 570 28 67 8 177 23 215 30 27 5 198 35 240 42 20 4 76 18 87 23 1 1 0 -23
-3 -51z"/>
</g>
</svg>
