<?xml version="1.0" standalone="no"?>
<!DOCTYPE svg PUBLIC "-//W3C//DTD SVG 20010904//EN"
 "http://www.w3.org/TR/2001/REC-SVG-20010904/DTD/svg10.dtd">
<svg version="1.0" xmlns="http://www.w3.org/2000/svg"
 width="486.000000pt" height="486.000000pt" viewBox="0 0 486.000000 486.000000"
 preserveAspectRatio="xMidYMid meet">
<metadata>
Created by potrace 1.14, written by Peter Selinger 2001-2017
</metadata>
<g transform="translate(0.000000,486.000000) scale(0.100000,-0.100000)"
fill="#000000" stroke="none">
<path d="M2290 4848 c0 -19 -170 -177 -217 -202 -47 -24 -106 -37 -114 -25 -4
7 -12 5 -22 -5 -13 -13 -24 -14 -71 -4 -35 7 -56 16 -56 24 0 17 -30 19 -30 2
0 -7 -23 -28 -50 -47 -28 -18 -50 -41 -50 -50 0 -21 -76 -71 -107 -71 -14 0
-23 6 -23 15 0 8 -7 15 -15 15 -13 0 -13 -4 2 -27 26 -41 40 -53 60 -53 34 0
117 38 139 64 13 15 26 21 29 16 8 -13 65 20 65 37 0 18 -25 16 -44 -3 -15
-14 -16 -14 -16 5 0 11 7 26 15 35 14 13 20 13 58 -4 45 -21 116 -26 145 -10
9 5 41 19 70 32 28 13 52 26 52 30 0 5 5 8 11 8 13 0 39 25 39 39 0 14 56 71
70 71 16 0 70 58 70 75 0 8 5 15 10 15 6 0 10 7 10 15 0 8 -7 15 -15 15 -8 0
-15 -5 -15 -12z"/>
<path d="M2672 4848 c-7 -7 -12 -17 -12 -24 0 -6 -16 -28 -35 -49 -20 -20 -34
-40 -31 -42 7 -7 36 23 36 36 0 6 7 11 15 11 8 0 15 7 15 15 0 8 4 15 8 15 5
0 14 11 20 25 12 26 4 33 -16 13z"/>
<path d="M2920 4849 c0 -18 -80 -119 -95 -119 -3 0 -29 -12 -58 -26 -28 -14
-78 -28 -110 -31 -32 -3 -60 -10 -63 -14 -7 -12 -101 -11 -109 1 -6 10 -65 9
-65 -2 0 -6 -19 -9 -157 -24 -51 -5 -60 -9 -49 -19 20 -21 94 -26 176 -15 41
6 100 11 130 10 59 -1 179 18 195 32 5 4 16 8 24 8 42 0 180 114 213 177 l18
33 -25 0 c-14 0 -25 -5 -25 -11z"/>
<path d="M3110 4830 c-18 -16 -41 -30 -52 -30 -11 0 -34 -16 -52 -35 -19 -19
-40 -35 -49 -35 -8 0 -17 -6 -20 -13 -2 -7 -32 -26 -65 -42 -67 -33 -74 -51
-19 -48 77 5 346 179 347 226 0 20 -60 5 -90 -23z"/>
<path d="M3235 4800 c-27 -33 -57 -62 -67 -65 -9 -3 -19 -12 -22 -20 -3 -8
-12 -15 -20 -15 -19 0 -130 -52 -134 -62 -2 -5 -13 -8 -25 -9 -12 -1 -5 -5 17
-10 28 -7 73 -5 150 6 189 27 200 30 256 66 30 19 68 41 84 49 16 8 31 21 34
30 3 8 16 29 29 46 30 40 29 44 -6 44 -22 0 -44 -14 -87 -55 -32 -30 -63 -55
-69 -55 -6 0 -29 -8 -51 -19 -21 -10 -66 -22 -99 -25 l-60 -7 32 28 c18 15 40
35 50 43 22 18 53 65 53 80 0 21 -16 8 -65 -50z"/>
<path d="M3684 4834 c-22 -29 -79 -59 -108 -56 -12 1 -31 -3 -43 -10 -18 -9
-20 -14 -12 -25 14 -16 100 -18 116 -2 7 7 19 9 28 5 13 -4 15 -14 10 -47 -3
-22 -2 -46 3 -52 5 -7 12 -40 16 -75 4 -35 12 -75 18 -88 6 -13 8 -27 5 -30
-11 -12 -72 32 -72 52 0 14 -8 20 -32 22 -28 3 -33 0 -33 -17 0 -12 10 -29 21
-39 12 -9 35 -30 51 -45 30 -29 79 -57 131 -76 16 -6 25 -15 22 -21 -9 -15
-27 -12 -55 10 -14 11 -36 20 -50 20 -15 0 -31 5 -37 11 -13 13 -33 4 -33 -17
0 -24 -23 -15 -69 26 -50 45 -61 49 -61 19 0 -31 60 -99 105 -120 l40 -19 -37
0 c-20 0 -40 5 -43 11 -4 5 -19 7 -34 4 -33 -7 -56 14 -47 43 5 14 1 21 -14
25 -11 3 -18 1 -15 -3 9 -14 -28 -29 -58 -23 -21 4 -29 1 -36 -18 -5 -13 -10
-18 -10 -11 -1 17 -31 15 -31 -3 0 -8 5 -15 11 -15 12 0 1 -43 -12 -48 -14 -6
-10 -39 6 -52 9 -7 18 -10 22 -6 3 3 1 6 -5 6 -7 0 -12 9 -12 20 0 11 7 20 16
20 8 0 13 4 9 10 -3 5 4 19 16 31 20 20 23 21 34 6 7 -10 17 -17 23 -17 12 0
24 29 16 41 -3 5 4 9 15 9 12 0 21 -4 21 -10 0 -5 -5 -10 -11 -10 -6 0 -4 -7
5 -15 8 -9 19 -14 23 -13 4 2 9 -1 10 -7 1 -5 -15 -10 -37 -9 -34 0 -39 -2
-34 -18 3 -10 1 -18 -5 -18 -6 0 -11 5 -11 10 0 6 -11 10 -25 10 -27 0 -34
-17 -10 -26 9 -4 15 -19 15 -40 0 -24 5 -34 15 -34 8 0 15 -7 15 -15 0 -9 -7
-18 -15 -21 -20 -8 -19 -34 0 -34 13 0 13 -3 -2 -18 -10 -11 -26 -22 -36 -25
-11 -4 -21 -16 -24 -27 -3 -11 -9 -20 -14 -20 -5 0 -9 -9 -9 -20 0 -10 -6 -23
-14 -27 -8 -4 -15 -17 -18 -28 -3 -18 -11 -20 -93 -19 -50 1 -105 4 -123 7
-18 3 -46 0 -61 -6 -21 -8 -40 -8 -68 1 -73 21 -93 23 -93 8 0 -8 -13 -16 -30
-18 -24 -4 -30 -1 -25 9 3 8 -1 21 -9 29 -13 12 -15 12 -21 -5 -8 -28 -53 -36
-76 -15 -14 13 -23 14 -30 7 -18 -18 -6 -48 19 -46 13 2 22 -3 22 -11 0 -16
-96 -29 -119 -16 -8 4 -27 4 -42 0 -31 -9 -39 5 -39 74 0 34 -2 37 -16 25 -10
-8 -15 -27 -14 -53 3 -67 1 -73 -21 -79 -11 -3 -23 -15 -26 -26 -4 -17 -13
-21 -49 -21 -28 0 -44 -5 -45 -12 -1 -7 -2 -24 -2 -37 -1 -13 -8 -26 -16 -29
-10 -3 -12 2 -8 19 9 37 11 158 3 167 -4 4 -13 0 -19 -8 -12 -16 -46 -38 -120
-79 -44 -25 -95 -28 -103 -6 -8 19 -34 19 -34 0 0 -9 -9 -15 -25 -15 -14 0
-25 -6 -25 -12 0 -17 -54 -42 -58 -28 -5 13 -52 13 -52 0 0 -5 -15 -10 -32
-10 -18 0 -46 -7 -62 -15 -15 -8 -35 -15 -42 -15 -8 0 -14 -4 -14 -10 0 -5 -4
-10 -9 -10 -6 0 -22 -11 -37 -25 -36 -34 -43 -32 -37 13 6 42 -5 56 -50 64
-26 5 -28 3 -23 -21 7 -33 -6 -58 -21 -39 -6 7 -10 20 -11 28 -1 49 -12 112
-21 124 -6 7 -8 16 -5 19 8 8 -21 37 -36 37 -6 0 -18 16 -26 36 -9 22 -20 34
-28 31 -35 -14 -51 70 -20 104 21 24 11 53 -16 44 -20 -7 -66 35 -92 85 -22
43 -33 42 -40 -3 -31 -177 -32 -188 -20 -220 7 -20 9 -69 6 -131 -3 -55 -1
-109 4 -120 5 -12 17 -46 26 -76 20 -63 35 -99 51 -120 35 -46 78 -230 67
-287 -2 -7 2 -13 8 -13 5 0 10 -14 10 -30 0 -27 2 -30 19 -20 32 16 41 12 41
-20 0 -25 4 -30 25 -30 24 0 25 3 24 58 -1 31 -5 64 -10 74 -5 10 -4 29 5 50
19 44 26 50 43 33 9 -9 24 -13 39 -9 22 6 24 3 24 -31 0 -33 2 -36 15 -25 9 7
14 19 11 26 -3 8 8 13 30 16 42 5 42 -3 4 -52 -17 -21 -30 -43 -30 -49 0 -16
31 -13 54 4 11 8 30 15 43 15 12 0 28 9 35 20 14 23 28 26 28 8 0 -7 7 -22 15
-32 12 -16 17 -17 31 -5 14 11 17 10 26 -5 14 -25 69 -46 121 -46 41 0 69 11
172 68 30 18 95 81 95 95 0 4 5 7 10 7 6 0 10 -7 10 -15 0 -9 6 -12 15 -9 8 4
15 12 15 20 0 8 -7 14 -15 14 -8 0 -15 7 -15 15 0 8 5 15 10 15 6 0 10 10 10
23 0 12 7 33 17 46 10 15 18 52 21 100 6 100 15 111 101 110 79 -2 131 -15
131 -35 0 -8 -4 -14 -10 -14 -5 0 -10 -6 -10 -13 0 -8 -9 -24 -19 -36 -20 -23
-18 -51 3 -51 7 0 6 -4 -2 -9 -9 -5 -15 -32 -16 -75 -2 -46 -7 -70 -17 -76
-11 -7 -11 -12 -1 -22 14 -14 16 -58 2 -58 -15 0 -12 -21 6 -34 14 -10 13 -14
-5 -37 -11 -15 -18 -29 -15 -32 3 -3 1 -31 -5 -62 -7 -37 -7 -63 -1 -74 9 -14
9 -14 10 2 0 9 7 17 16 17 11 0 14 -6 9 -21 l-7 -22 28 20 c95 68 173 163 148
181 -5 4 -10 24 -11 44 -2 21 -4 41 -4 45 -5 29 3 83 11 83 6 0 19 -9 30 -20
15 -15 18 -25 11 -38 -4 -9 -5 -26 0 -37 14 -35 11 -65 -6 -59 -10 4 -15 0
-15 -14 0 -33 22 -31 67 5 37 31 41 37 32 59 -13 37 -11 47 16 67 25 18 26 17
93 -15 61 -29 75 -32 153 -31 83 1 89 2 185 53 83 44 105 51 137 47 30 -4 43
-1 58 14 26 26 54 24 93 -6 18 -14 37 -25 42 -25 11 -1 54 -36 54 -44 0 -3 -7
-6 -15 -6 -22 0 -98 -57 -85 -65 17 -11 11 -37 -10 -42 -11 -3 -20 -12 -20
-20 0 -9 -9 -13 -26 -11 -21 2 -31 -4 -45 -27 -10 -16 -18 -33 -18 -37 -2 -13
37 -9 42 5 2 6 8 9 12 5 9 -8 -18 -38 -34 -38 -6 0 -11 -7 -11 -15 0 -8 -5
-15 -11 -15 -5 0 -8 -4 -5 -8 2 -4 1 -14 -4 -22 -11 -18 28 -70 52 -70 10 0
18 -4 18 -10 0 -5 13 -10 29 -10 26 0 61 -21 61 -36 0 -11 -23 -49 -34 -56
-19 -13 -61 -9 -85 8 -29 21 -100 28 -102 11 -1 -7 -1 -24 -1 -39 0 -16 -4
-28 -9 -28 -5 0 -9 -7 -9 -15 0 -8 -7 -15 -15 -15 -8 0 -15 7 -15 15 0 8 -9
15 -20 15 -23 0 -24 -4 -10 -31 9 -15 7 -19 -7 -19 -17 -1 -17 -1 0 -11 9 -5
17 -17 17 -24 0 -8 5 -15 12 -15 6 0 4 -7 -5 -18 -10 -10 -17 -27 -17 -38 -1
-29 -22 -49 -54 -51 -17 0 -35 -8 -40 -15 -6 -8 -24 -17 -40 -20 -22 -5 -30
-2 -33 13 -4 13 -14 19 -33 19 -16 0 -30 7 -34 15 -6 18 -36 20 -36 3 0 -13
93 -123 128 -152 20 -15 21 -21 10 -32 -13 -12 -31 -17 -57 -15 -11 1 -11 4
-1 16 7 8 9 15 4 16 -56 7 -87 4 -91 -8 -6 -15 -33 -18 -33 -3 0 16 -40 12
-46 -5 -5 -13 -24 -15 -100 -13 -69 2 -97 -1 -103 -10 -6 -9 -14 -10 -33 -3
-21 8 -28 7 -32 -5 -3 -8 -10 -12 -16 -9 -6 4 -3 15 7 29 12 16 37 27 78 36
52 11 62 17 75 44 9 18 24 32 37 34 12 2 25 12 28 22 4 12 17 20 38 22 22 2
35 10 42 26 5 12 13 22 17 22 5 0 8 7 8 15 0 8 9 20 20 27 11 7 20 20 20 28 0
13 -1 13 -10 0 -8 -12 -10 -11 -10 7 0 44 -29 77 -31 36 0 -14 -2 -14 -9 4
-10 23 -3 63 11 63 23 0 -12 79 -44 101 -6 4 -7 14 -4 23 7 19 -12 56 -28 56
-15 0 -99 -89 -101 -107 -2 -8 -14 -32 -28 -54 -23 -34 -30 -38 -54 -33 -15 4
-28 10 -30 14 -1 4 -15 5 -30 2 -26 -4 -102 -74 -102 -93 0 -5 -12 -9 -26 -9
-14 0 -32 -7 -40 -15 -17 -17 -34 -20 -34 -6 0 5 -13 3 -30 -5 -16 -9 -30 -22
-30 -29 0 -8 -10 -21 -21 -29 -17 -11 -25 -12 -40 -3 -11 7 -19 17 -19 24 0 7
-4 13 -10 13 -5 0 -10 6 -10 13 0 34 -22 33 -58 -2 -32 -31 -36 -40 -29 -61
17 -51 34 -59 112 -57 67 2 75 0 95 -23 41 -46 52 -69 44 -87 -4 -10 -8 -34
-8 -53 -1 -31 -4 -35 -25 -32 -13 1 -39 -7 -57 -18 -19 -10 -34 -17 -34 -15 0
2 14 27 30 55 29 49 40 100 21 100 -5 0 -12 -17 -16 -37 -5 -27 -20 -50 -53
-80 -26 -23 -53 -43 -59 -43 -7 0 -13 -4 -13 -9 0 -6 -19 -14 -42 -18 -30 -6
-46 -15 -53 -31 -5 -12 -15 -22 -22 -22 -6 0 -13 -10 -15 -22 -4 -25 -28 -37
-28 -14 0 9 -4 16 -10 16 -12 0 -13 -27 -1 -32 11 -4 18 -144 8 -155 -14 -13
-25 19 -20 54 5 28 3 32 -11 27 -20 -8 -21 -63 -3 -131 10 -37 10 -47 0 -50
-7 -3 -13 -11 -13 -19 0 -8 -4 -14 -10 -14 -5 0 -10 11 -10 25 0 28 -37 105
-51 105 -5 0 -6 7 0 17 4 10 16 43 26 73 9 30 23 69 30 85 16 36 26 101 17
109 -7 7 -72 -92 -72 -109 0 -7 -9 -20 -20 -30 -22 -20 -55 -119 -45 -135 3
-5 1 -10 -4 -10 -6 0 -11 -21 -11 -50 0 -27 -4 -50 -10 -50 -14 0 -12 -34 3
-49 10 -10 8 -11 -7 -5 -22 8 -36 -10 -36 -48 0 -32 5 -34 27 -13 14 14 17 14
31 -7 9 -13 19 -25 23 -28 4 -3 10 -38 14 -79 8 -77 6 -80 -36 -44 -14 11 -18
11 -28 -1 -7 -8 -18 -13 -25 -10 -17 6 -41 -22 -26 -31 13 -8 13 -65 0 -65 -5
0 -10 -6 -10 -14 0 -8 -13 -16 -31 -18 -28 -4 -30 -3 -26 19 3 15 -1 23 -9 23
-8 0 -14 9 -14 20 0 11 -4 20 -10 20 -5 0 -10 18 -10 39 0 34 -4 41 -29 52
-28 13 -29 15 -24 69 4 49 3 53 -10 37 -8 -9 -17 -40 -21 -67 -4 -28 -11 -50
-16 -50 -6 0 -10 6 -10 13 0 8 -3 8 -9 -2 -6 -9 -6 -22 0 -32 5 -10 9 -27 9
-38 0 -10 4 -21 9 -23 9 -3 23 -79 41 -223 10 -81 28 -176 41 -221 18 -61 11
-87 -30 -116 -22 -16 -44 -28 -50 -28 -6 0 -11 -4 -11 -10 0 -5 -11 -12 -25
-16 -14 -3 -25 -12 -25 -20 0 -8 -5 -14 -11 -14 -6 0 -8 -7 -5 -16 4 -12 1
-14 -14 -9 -19 6 -80 -21 -80 -36 0 -4 -9 -9 -20 -12 -45 -12 -15 -33 41 -29
12 1 15 -4 12 -18 -3 -11 -11 -20 -17 -20 -6 0 -18 -9 -26 -20 -8 -11 -25 -20
-38 -20 -13 0 -20 -4 -17 -10 3 -5 15 -10 26 -10 16 0 19 -7 19 -45 0 -25 8
-59 19 -79 11 -19 17 -37 14 -40 -3 -3 -1 -11 5 -19 6 -7 9 -22 6 -33 -4 -15
4 -23 41 -37 31 -13 45 -25 45 -38 0 -12 5 -16 15 -13 8 4 15 1 15 -5 0 -6 9
-11 21 -11 27 0 20 24 -8 28 -12 2 -24 10 -27 18 -4 10 3 14 29 14 31 0 35 -3
36 -27 1 -16 0 -32 -1 -38 -8 -33 -9 -76 -2 -71 4 2 25 1 45 -3 24 -6 38 -5
41 3 3 7 9 5 16 -7 6 -9 18 -17 26 -17 20 0 42 -22 36 -38 -5 -16 15 -16 21 1
4 7 8 3 12 -10 4 -13 12 -23 18 -23 6 0 2 -7 -9 -14 -26 -18 -63 -17 -86 2
-16 13 -18 13 -18 -1 0 -10 7 -17 15 -17 8 0 15 -9 15 -20 0 -16 -4 -18 -22
-11 -15 6 -22 16 -21 30 3 21 -11 29 -21 13 -9 -15 10 -67 25 -68 8 -1 19 -2
24 -3 6 0 19 -14 28 -31 10 -16 24 -30 32 -30 7 0 15 -5 17 -10 7 -21 352 -27
1646 -29 1175 -1 1322 0 1322 14 0 18 -12 19 -27 4 -8 -8 -11 2 -11 39 l-1 50
26 -24 c14 -13 37 -24 49 -24 15 0 24 -6 24 -15 0 -8 6 -15 14 -15 8 0 17 -8
19 -17 3 -10 5 23 6 72 1 79 -1 92 -18 102 -17 11 -20 9 -23 -8 -4 -26 -22
-25 -26 2 -2 12 0 19 5 16 5 -3 18 4 28 16 18 21 18 21 26 2 4 -11 7 116 8
282 l1 301 -30 7 c-16 4 -30 11 -30 16 0 5 -8 9 -18 9 -10 0 -22 4 -28 9 -5 6
-71 41 -147 79 -139 70 -226 131 -266 187 -11 17 -31 42 -43 56 -68 79 -67 78
-54 124 13 41 59 170 76 210 5 11 16 55 26 98 14 63 16 106 11 235 -3 86 -2
189 4 227 18 127 22 271 9 309 -10 31 -9 38 5 53 14 13 21 14 36 5 15 -9 23
-9 38 0 20 12 41 49 41 72 0 8 7 27 15 42 8 16 15 39 15 51 0 12 5 25 10 28 6
3 10 12 10 20 0 7 16 47 35 88 19 42 37 87 41 101 3 14 10 26 15 26 5 0 9 8 9
18 0 10 7 27 15 38 8 10 15 25 15 33 0 8 9 33 20 56 21 42 44 116 60 190 5 22
16 69 25 105 9 36 21 88 27 115 15 67 15 425 1 500 -17 90 -33 158 -42 180 -5
11 -15 45 -24 75 -16 57 -60 200 -95 305 -11 33 -32 101 -47 150 -29 92 -42
127 -76 203 l-19 42 -200 0 -201 0 6 -37 6 -38 -21 38 c-19 34 -24 37 -65 37
-53 0 -54 -6 -21 -75 23 -47 24 -51 8 -69 -15 -16 -17 -16 -20 -2 -2 9 -8 16
-13 16 -5 0 -9 10 -9 23 0 13 -4 27 -9 33 -5 5 -11 23 -13 39 -3 30 -4 30 -68
33 -59 3 -68 0 -90 -23 l-23 -25 22 0 c12 0 35 7 51 15 27 14 44 5 20 -10 -12
-8 -13 -50 -1 -73 4 -9 11 -39 15 -67 l6 -50 -20 33 c-11 18 -18 37 -15 42 3
5 -2 15 -10 23 -8 9 -15 22 -15 30 0 8 -8 17 -18 20 -15 3 -19 -2 -21 -22 -6
-109 -10 -140 -19 -158 -6 -11 -9 -29 -6 -40 3 -12 1 -23 -4 -27 -5 -3 -12 13
-16 36 -4 22 -10 46 -14 52 -26 41 -42 140 -24 148 5 2 21 24 35 51 l27 47
-29 0 c-19 0 -35 -9 -47 -26z m676 -39 c-7 -8 -29 -15 -48 -15 -34 0 -35 1
-16 15 10 8 32 15 48 15 24 0 27 -2 16 -15z m-440 -38 c0 -11 6 -28 14 -36 14
-16 19 -43 17 -93 -2 -41 -19 -34 -27 10 -4 20 -10 42 -14 47 -5 6 -11 31 -15
58 -6 41 -5 46 9 41 9 -3 16 -15 16 -27z m123 -121 c4 -10 1 -13 -9 -9 -15 6
-19 23 -5 23 5 0 11 -7 14 -14z m-128 -156 c8 0 19 -10 26 -21 11 -21 11 -21
-20 -3 -17 10 -31 25 -30 34 0 10 2 11 6 3 2 -7 11 -13 18 -13z m-95 -90 c0
-5 -7 -7 -15 -4 -8 4 -15 8 -15 10 0 2 7 4 15 4 8 0 15 -4 15 -10z m465 -81
c27 -7 57 -29 92 -64 42 -44 56 -67 75 -127 21 -66 23 -91 22 -258 -1 -177
-10 -248 -30 -242 -5 1 -7 24 -4 50 10 98 5 377 -8 421 -10 34 -16 41 -23 30
-7 -10 -8 -6 -4 12 5 20 -2 37 -34 76 -53 68 -105 88 -201 80 -79 -7 -186 -49
-195 -77 -3 -10 -13 -20 -23 -24 -20 -6 -50 -25 -70 -43 -7 -7 -24 -13 -38
-13 -13 0 -24 -4 -24 -10 0 -5 -7 -10 -16 -10 -21 0 -68 -33 -127 -89 -52 -49
-77 -88 -77 -119 0 -32 61 -77 141 -105 100 -35 302 -98 304 -95 1 2 7 18 14
36 8 17 20 32 27 32 15 0 19 -26 5 -34 -5 -3 -11 -17 -13 -31 -4 -20 1 -29 27
-45 37 -23 71 -80 62 -104 -8 -21 -27 -12 -27 13 0 25 -39 65 -86 89 -22 11
-106 41 -189 67 -190 61 -224 75 -263 115 -34 34 -40 67 -22 115 33 87 320
285 493 341 79 25 150 30 212 13z m-500 -79 c-7 -12 -52 -12 -80 0 -15 6 -6 9
33 9 33 1 51 -3 47 -9z m576 -71 c-9 -22 -10 -22 -10 -3 -1 11 2 24 6 27 12
12 14 0 4 -24z m-484 -75 c-3 -3 -12 -4 -19 -1 -8 3 -5 6 6 6 11 1 17 -2 13
-5z m-432 -24 c3 -5 1 -10 -4 -10 -6 0 -11 5 -11 10 0 6 2 10 4 10 3 0 8 -4
11 -10z m-2123 -24 c10 -15 10 -26 -1 -26 -13 0 -21 -27 -15 -45 4 -8 14 -15
24 -15 27 0 33 -32 20 -95 -13 -61 -8 -75 21 -75 14 0 25 -12 35 -37 8 -21 19
-46 24 -55 6 -10 10 -23 10 -29 0 -6 8 -18 17 -27 16 -16 15 -17 -1 -20 -10
-2 -38 -1 -63 3 -44 6 -44 7 -29 30 19 29 7 39 -34 30 -29 -6 -30 -5 -28 27 1
18 5 38 9 43 4 6 -1 22 -12 35 -16 21 -20 23 -29 10 -7 -10 -9 30 -8 127 l2
142 25 -6 c15 -3 29 -11 33 -17z m125 -308 c-3 -8 -6 -5 -6 6 -1 11 2 17 5 13
3 -3 4 -12 1 -19z m2498 -87 c-7 -22 -25 -29 -25 -11 0 12 23 40 28 35 2 -2 1
-13 -3 -24z m-773 -9 c50 -22 61 -47 16 -38 -66 12 -212 25 -221 19 -14 -9
-107 -32 -107 -26 0 9 29 34 56 48 40 20 206 18 256 -3z m-1192 -118 c0 -13
-5 -24 -12 -24 -24 0 -118 -51 -128 -70 -6 -12 -15 -18 -20 -15 -21 13 61 115
93 115 4 0 15 7 23 15 20 19 44 8 44 -21z m2573 12 c18 -8 47 -20 65 -27 17
-8 32 -20 32 -27 0 -7 -5 -10 -10 -7 -6 4 -24 4 -40 0 -25 -6 -30 -11 -30 -36
0 -62 -22 -118 -58 -150 -34 -30 -39 -31 -103 -27 -81 6 -146 40 -179 93 -36
58 -26 74 72 123 78 38 170 70 206 71 8 1 28 -5 45 -13z m-3113 -98 c0 -11 25
-38 35 -38 4 0 15 10 25 22 17 22 18 22 25 -42 6 -55 5 -65 -11 -77 -10 -7
-23 -12 -29 -10 -9 4 -11 15 -14 75 -1 16 -12 27 -41 39 -46 20 -57 53 -15 45
14 -2 25 -9 25 -14z m880 -23 c0 -7 -7 -15 -15 -19 -11 -4 -15 1 -15 19 0 18
4 23 15 19 8 -4 15 -12 15 -19z m680 -28 c36 -7 91 -10 122 -7 76 7 93 0 35
-15 -31 -8 -75 -9 -134 -4 -49 4 -94 8 -100 8 -7 1 -13 8 -13 16 0 18 5 18 90
2z m625 -7 c0 -19 -54 -15 -75 6 -13 13 -10 15 30 12 32 -2 45 -7 45 -18z
m539 -94 c-9 -15 -22 -26 -29 -26 -10 0 -6 17 13 56 26 53 27 54 30 25 2 -16
-4 -41 -14 -55z m-2719 44 c3 -5 -1 -10 -10 -10 -9 0 -13 5 -10 10 3 6 8 10
10 10 2 0 7 -4 10 -10z m672 -66 c-3 -3 -12 -4 -19 -1 -8 3 -5 6 6 6 11 1 17
-2 13 -5z m1593 -1 c-8 -3 -18 -10 -21 -15 -3 -5 -12 -2 -19 7 -11 13 -8 15
21 14 19 0 27 -3 19 -6z m-1645 -13 c3 -6 -5 -10 -19 -10 -14 0 -28 -4 -31
-10 -3 -5 -24 -10 -45 -10 -21 0 -42 5 -45 10 -3 6 -3 10 2 11 4 0 30 3 58 5
27 3 51 7 54 9 7 8 19 6 26 -5z m1525 -49 c0 -5 -7 -11 -15 -15 -9 -3 -15 0
-15 9 0 8 7 15 15 15 8 0 15 -4 15 -9z m110 -105 c0 -2 -9 -24 -21 -50 -28
-64 -23 -82 22 -78 24 2 43 -3 62 -18 33 -26 35 -48 5 -59 -27 -10 -40 -6 -90
27 -33 21 -38 30 -38 63 0 48 27 119 46 119 8 0 14 -2 14 -4z m220 -756 c0
-47 -4 -80 -10 -80 -11 0 -14 101 -4 138 11 38 14 25 14 -58z m187 58 c-3 -8
-6 -5 -6 6 -1 11 2 17 5 13 3 -3 4 -12 1 -19z m20 -40 c-3 -8 -6 -5 -6 6 -1
11 2 17 5 13 3 -3 4 -12 1 -19z m-357 -54 c9 -23 -5 -124 -17 -124 -8 0 -33
28 -33 37 0 4 -4 15 -10 23 -7 12 -12 11 -30 -5 l-22 -20 4 29 c1 16 12 34 23
40 11 6 29 21 40 32 23 24 33 22 45 -12z m-630 -55 c0 -10 -4 -19 -10 -19 -5
0 -10 12 -10 26 0 14 4 23 10 19 6 -3 10 -15 10 -26z m119 -34 l0 -20 -9 20
c-5 11 -9 27 -9 35 -1 13 0 13 9 0 5 -8 9 -24 9 -35z m-112 -57 c-2 -13 -4 -3
-4 22 0 25 2 35 4 23 2 -13 2 -33 0 -45z m142 -12 c8 -9 8 -21 1 -40 -13 -35
-17 -33 -22 14 -4 42 2 49 21 26z m481 -51 c0 -2 -7 -5 -15 -9 -12 -4 -15 3
-15 37 l1 42 14 -34 c8 -18 15 -35 15 -36z m-1490 -49 c0 -3 -4 -8 -10 -11 -5
-3 -10 -1 -10 4 0 6 5 11 10 11 6 0 10 -2 10 -4z m1000 -6 c0 -5 -4 -19 -9
-32 -5 -13 -12 -35 -15 -50 -4 -16 -13 -28 -21 -28 -8 0 -19 -17 -25 -39 -12
-47 -40 -76 -40 -42 0 11 4 21 9 21 4 0 11 16 14 35 3 19 15 44 26 56 12 13
24 37 27 56 3 18 12 33 20 33 8 0 14 -4 14 -10z m-1358 -152 c-7 -7 -13 -26
-13 -42 -1 -19 -3 -24 -6 -13 -7 26 5 67 19 67 9 0 9 -3 0 -12z m1007 -3 c6
-3 11 -19 11 -35 0 -16 4 -31 9 -34 5 -3 7 -15 4 -27 -6 -23 16 -99 29 -99 4
0 8 -10 8 -22 l-1 -23 -18 23 c-20 22 -51 30 -51 12 0 -5 -13 -10 -29 -10 -27
0 -47 -21 -42 -44 1 -5 0 -15 -3 -23 -5 -11 -12 -7 -32 14 -17 19 -27 24 -31
16 -12 -30 -23 -9 -23 42 0 55 -4 61 -34 49 -14 -5 -14 -9 -4 -21 17 -20 11
-159 -8 -195 -19 -37 -34 -36 -34 2 0 17 -4 30 -10 30 -10 0 -12 -6 -14 -60
-1 -31 -24 -56 -38 -42 -13 13 12 83 38 107 24 22 33 65 14 65 -5 0 -19 -9
-29 -19 -29 -29 -91 -39 -106 -17 -22 30 -35 18 -35 -33 0 -35 -4 -51 -16 -55
-10 -4 -13 -13 -9 -27 4 -13 1 -27 -10 -39 -9 -10 -14 -24 -10 -29 4 -7 -5
-11 -24 -11 -16 0 -36 -7 -45 -15 -8 -8 -17 -15 -20 -15 -3 0 -6 7 -6 15 0 8
-4 15 -10 15 -5 0 -10 -4 -10 -10 0 -5 -7 -10 -15 -10 -25 0 -17 18 14 34 29
15 31 21 47 127 4 22 1 39 -5 43 -7 5 -11 -4 -11 -23 0 -17 -4 -31 -10 -31 -5
0 -10 -8 -10 -17 0 -15 -1 -15 -13 1 -12 16 -14 16 -26 2 -7 -8 -19 -12 -27
-9 -8 3 -14 -1 -14 -11 0 -9 7 -16 15 -16 27 0 15 -19 -17 -28 -38 -10 -48 -7
-48 15 0 13 -3 13 -15 3 -8 -7 -15 -23 -15 -36 0 -16 -7 -24 -22 -26 -16 -2
-24 -12 -28 -33 -3 -17 -9 -25 -12 -19 -8 12 12 74 24 74 4 0 8 11 8 24 0 14
4 27 9 30 15 9 18 72 4 85 -9 8 -13 8 -13 1 0 -6 -6 -18 -14 -26 -13 -12 -14
-9 -9 23 5 32 4 36 -12 30 -19 -8 -45 8 -45 28 0 7 12 12 30 11 17 -1 30 -7
30 -13 0 -7 7 -13 15 -13 8 0 15 6 15 14 0 7 7 19 15 26 13 11 15 8 15 -14 0
-46 26 -25 49 39 14 38 17 55 20 118 1 27 3 28 34 22 17 -4 36 -11 41 -16 14
-13 26 -11 26 5 0 8 7 17 16 20 13 5 15 2 11 -13 -3 -12 1 -22 10 -25 19 -8
33 1 33 20 0 8 7 14 15 14 8 0 15 -4 15 -10 0 -5 7 -10 15 -10 8 0 15 9 15 20
0 15 7 20 25 20 14 0 25 6 25 13 0 6 22 22 49 33 39 17 57 20 97 13 53 -8 94
-3 94 12 0 11 122 5 139 -6z m87 -15 c23 0 16 -26 -10 -38 -30 -13 -38 0 -22
35 6 12 13 18 14 13 2 -6 10 -10 18 -10z m-956 -29 c0 -5 3 -16 6 -25 4 -11 1
-16 -10 -16 -10 0 -16 9 -16 25 0 14 5 25 10 25 6 0 10 -4 10 -9z m-20 -81 c0
-5 -7 -10 -15 -10 -8 0 -15 5 -15 10 0 6 7 10 15 10 8 0 15 -4 15 -10z m25
-60 c3 -11 11 -20 16 -20 5 0 9 -9 9 -21 0 -18 -2 -19 -15 -5 -8 8 -15 21 -15
28 0 8 -5 19 -12 26 -9 9 -9 12 -1 12 7 0 15 -9 18 -20z m-49 -53 c7 -9 14
-21 14 -25 0 -5 11 -19 24 -31 14 -13 22 -29 19 -37 -10 -26 -28 -14 -47 32
-10 25 -25 48 -32 51 -8 3 -14 14 -14 24 0 10 -4 19 -10 19 -5 0 -10 8 -10 18
1 14 4 12 21 -8 11 -14 27 -33 35 -43z m1574 33 c0 -11 5 -20 10 -20 6 0 10
-22 10 -50 0 -36 -4 -50 -14 -50 -19 0 -45 -32 -30 -37 18 -6 -7 -63 -26 -63
-13 0 -15 8 -12 38 3 20 9 40 14 43 5 3 12 32 15 65 3 32 10 64 15 71 6 7 4
13 -4 16 -8 4 -7 6 5 6 11 1 17 -6 17 -19z m127 -22 c0 -24 -2 -35 -4 -25 -3
9 -9 17 -14 17 -10 0 -12 33 -2 43 15 15 21 5 20 -35z m-41 -74 c-10 -20 -15
-24 -16 -11 0 9 -5 17 -11 17 -8 0 -8 5 1 15 7 8 9 23 6 32 -6 15 -3 14 14 -3
21 -20 21 -23 6 -50z m-492 -9 c-18 -33 -41 -51 -52 -40 -3 3 0 5 6 5 7 0 12
7 12 15 0 8 5 15 10 15 6 0 10 9 10 19 0 11 6 21 13 24 21 7 21 -1 1 -38z
m-297 -27 c-2 -13 -4 -5 -4 17 -1 22 1 32 4 23 2 -10 2 -28 0 -40z m-71 28
c23 6 24 4 24 -41 0 -28 -4 -44 -10 -40 -5 3 -10 14 -10 23 0 12 -6 7 -20 -13
l-20 -30 1 60 c0 33 3 54 6 48 3 -8 14 -11 29 -7z m510 -21 c-13 -36 -46 -79
-54 -70 -7 6 30 75 40 75 5 0 8 7 8 15 0 8 4 15 9 15 5 0 3 -16 -3 -35z m-315
-99 c-6 -7 -13 -39 -16 -72 -7 -67 -22 -104 -42 -104 -11 0 -10 -6 2 -31 9
-16 15 -40 13 -52 -2 -18 2 -22 22 -22 16 0 26 -6 28 -19 5 -24 27 -47 75 -75
50 -30 48 -45 -5 -36 -45 8 -62 20 -72 51 -3 12 -18 26 -31 32 -14 6 -25 18
-25 27 0 8 -6 15 -14 15 -8 0 -16 6 -19 13 -9 24 15 140 39 183 13 23 24 54
24 68 0 14 4 26 9 26 6 0 7 16 4 35 -3 19 -2 42 3 52 6 13 9 5 12 -30 2 -27
-1 -54 -7 -61z m-1087 69 c4 -10 -1 -15 -16 -15 -17 0 -18 2 -8 15 7 8 14 15
15 15 2 0 5 -7 9 -15z m643 -79 c-7 -27 -18 -51 -24 -53 -16 -6 -26 29 -11 39
10 6 10 8 1 8 -24 0 -14 38 12 44 14 4 25 12 26 19 0 6 2 8 5 2 2 -5 -2 -32
-9 -59z m363 52 c0 -18 -20 -47 -20 -30 0 6 -4 12 -10 12 -5 0 -10 -16 -10
-35 0 -31 -3 -35 -25 -35 -16 0 -25 6 -25 15 0 8 5 15 10 15 6 0 10 9 10 20 0
11 5 20 10 20 6 0 10 7 10 15 0 9 9 15 25 15 14 0 25 -6 25 -12z m-140 -48 c0
-5 -2 -10 -4 -10 -3 0 -8 5 -11 10 -3 6 -1 10 4 10 6 0 11 -4 11 -10z m-450
-31 c0 -5 -4 -9 -10 -9 -5 0 -10 7 -10 16 0 8 5 12 10 9 6 -3 10 -10 10 -16z
m290 -45 c0 -6 -7 -17 -15 -24 -21 -18 -46 3 -27 22 7 7 12 21 12 32 0 20 0
20 15 0 8 -10 15 -24 15 -30z m-107 -10 c3 -4 -1 -13 -9 -21 -18 -18 -27 -13
-18 11 6 17 16 20 27 10z m-536 -26 c-3 -8 -6 -5 -6 6 -1 11 2 17 5 13 3 -3 4
-12 1 -19z m800 -20 c-3 -8 -6 -5 -6 6 -1 11 2 17 5 13 3 -3 4 -12 1 -19z
m-930 -10 c-3 -8 -6 -5 -6 6 -1 11 2 17 5 13 3 -3 4 -12 1 -19z m283 -6 c-12
-2 -30 -25 -49 -62 -16 -33 -36 -67 -45 -76 -21 -21 -20 -31 4 -44 26 -14 40
-5 40 26 0 13 5 24 10 24 6 0 10 7 10 15 0 21 22 65 32 65 5 0 6 -10 3 -22 -6
-17 -4 -20 9 -15 10 4 16 1 16 -9 0 -8 6 -17 14 -20 8 -3 12 -12 9 -20 -7 -19
-23 -18 -23 1 0 8 -7 15 -15 15 -11 0 -15 -11 -15 -42 1 -34 3 -39 11 -26 20
35 68 -10 93 -86 4 -11 1 -23 -6 -28 -9 -6 -6 -7 8 -4 15 5 24 0 32 -19 7 -14
19 -28 27 -31 8 -4 15 -17 15 -30 0 -13 5 -24 11 -24 14 0 39 -25 39 -39 0 -6
5 -11 11 -11 16 0 39 -26 39 -44 0 -14 12 -21 33 -17 4 1 12 -10 17 -23 15
-41 27 -38 33 9 4 24 16 61 27 82 11 21 20 43 20 49 0 10 48 30 55 22 10 -12
15 -48 6 -48 -6 0 -11 -7 -11 -15 0 -8 7 -15 15 -15 8 0 15 7 15 15 0 20 39
19 47 -1 3 -8 -6 -37 -21 -63 -14 -27 -26 -56 -26 -65 0 -9 -7 -16 -15 -16 -9
0 -12 -6 -8 -16 4 -12 2 -15 -8 -12 -18 6 -24 35 -11 62 6 11 12 33 15 49 6
40 -16 34 -49 -15 -16 -24 -34 -49 -41 -55 -16 -17 -53 -16 -67 1 -7 9 -22 12
-42 9 -27 -4 -31 -9 -32 -40 -1 -19 -6 -41 -12 -48 -5 -6 -7 -15 -4 -18 3 -3
-4 -20 -16 -37 -16 -23 -25 -28 -30 -19 -5 7 -6 18 -3 26 3 7 2 34 -2 60 l-7
47 -18 -49 c-40 -113 -45 -120 -74 -109 -10 4 -16 18 -16 35 0 19 -5 29 -15
29 -19 0 -19 14 2 62 17 38 43 52 43 22 0 -8 5 -12 10 -9 6 3 10 27 10 51 0
57 -41 120 -83 130 -16 3 -31 3 -34 0 -4 -3 -1 -6 5 -6 7 0 12 -4 12 -10 0
-22 -20 -8 -35 24 -9 19 -24 37 -32 40 -13 5 -15 0 -10 -35 l6 -42 -20 29
c-10 16 -19 37 -19 46 0 9 -4 20 -10 23 -5 3 -10 23 -11 43 0 20 -3 31 -6 25
-7 -18 -23 -16 -23 2 0 8 7 15 15 15 8 0 15 8 15 18 0 10 5 23 12 30 9 9 9 12
0 12 -13 0 -18 100 -4 100 4 0 27 33 51 74 41 68 45 72 67 62 22 -10 22 -11 4
-14z m-160 -32 c0 -5 -4 -10 -10 -10 -5 0 -10 5 -10 10 0 6 5 10 10 10 6 0 10
-4 10 -10z m804 -5 c-4 -8 -10 -15 -15 -15 -5 0 -9 7 -9 15 0 8 7 15 15 15 9
0 12 -6 9 -15z m616 -37 c0 -17 7 -40 17 -50 19 -22 9 -37 -15 -22 -19 13 -30
104 -13 104 6 0 11 -14 11 -32z m-100 12 c0 -5 -5 -10 -11 -10 -5 0 -7 5 -4
10 3 6 8 10 11 10 2 0 4 -4 4 -10z m-1484 -58 c-20 -20 -22 -1 -4 31 11 20 12
21 16 3 2 -10 -3 -26 -12 -34z m1454 -27 c6 -3 10 -13 10 -21 0 -8 -4 -12 -10
-9 -5 3 -19 1 -31 -5 -17 -9 -20 -18 -15 -41 5 -26 3 -29 -23 -29 -20 0 -32 7
-41 26 -13 24 -12 27 10 45 19 15 22 21 12 28 -8 4 -12 21 -10 36 3 28 4 28
21 11 16 -17 49 -16 46 1 -4 26 4 23 12 -4 5 -18 14 -35 19 -38z m-500 10 c0
-5 -5 -3 -10 5 -5 8 -10 20 -10 25 0 6 5 3 10 -5 5 -8 10 -19 10 -25z m593
-27 c3 -12 -19 -37 -34 -38 -3 0 -11 11 -17 25 -11 24 -10 25 17 25 16 0 31
-6 34 -12z m-220 -23 c-6 -17 -25 -15 -31 3 -2 7 5 12 17 12 14 0 19 -5 14
-15z m-233 -5 c0 -5 -4 -10 -10 -10 -5 0 -10 5 -10 10 0 6 5 10 10 10 6 0 10
-4 10 -10z m-192 -58 c15 -26 16 -42 2 -42 -5 0 -10 7 -10 15 0 8 -6 15 -14
15 -8 0 -16 7 -20 15 -3 8 -15 15 -26 15 -12 0 -20 7 -20 17 0 13 3 14 11 6
14 -14 41 -5 32 11 -3 6 3 2 13 -10 10 -11 25 -30 32 -42z m-258 5 c0 -4 -6
-2 -14 5 -8 7 -12 17 -9 22 5 8 23 -12 23 -27z m-82 -45 c2 -7 -2 -10 -12 -6
-9 3 -16 11 -16 16 0 13 23 5 28 -10z m-471 -32 c4 -13 11 -19 22 -16 25 8 49
-16 56 -57 4 -20 11 -37 15 -37 4 0 4 -18 0 -40 -4 -22 -5 -52 -2 -66 4 -25 3
-26 -22 -22 -14 3 -26 1 -26 -3 0 -18 -17 -8 -30 16 -7 14 -19 25 -27 25 -7 0
-13 7 -13 15 0 7 -6 18 -12 22 -22 14 -48 70 -48 101 0 26 4 31 28 34 19 2 28
9 30 26 4 28 22 29 29 2z m790 14 c-3 -3 -12 -4 -19 -1 -8 3 -5 6 6 6 11 1 17
-2 13 -5z m-272 -24 c3 -6 -1 -7 -9 -4 -18 7 -21 14 -7 14 6 0 13 -4 16 -10z
m735 -80 c8 -5 11 -12 8 -16 -4 -3 -14 1 -23 10 -18 17 -9 21 15 6z m-665 -30
c-3 -5 -10 -10 -16 -10 -5 0 -9 5 -9 10 0 6 7 10 16 10 8 0 12 -4 9 -10z m357
-130 c-21 -70 -28 -41 -11 53 12 69 13 70 20 37 6 -24 3 -52 -9 -90z m1098
103 c0 -18 -34 -93 -41 -93 -12 0 -11 15 3 61 6 22 17 39 25 39 7 0 13 -3 13
-7z m-464 -87 c-14 -23 -39 -57 -55 -75 -36 -39 -101 -143 -101 -162 0 -12 -2
-12 -9 0 -5 8 -5 21 -1 30 5 9 20 41 33 71 14 30 48 80 76 110 28 30 50 60 51
67 0 14 24 23 28 11 2 -4 -8 -28 -22 -52z m-388 0 c3 -34 1 -37 -17 -31 -11 3
-23 1 -27 -6 -5 -9 -2 -10 10 -6 21 8 31 -14 21 -51 -7 -25 -8 -25 -15 -7 -7
17 -9 16 -9 -8 -1 -20 -7 -30 -21 -34 -15 -4 -20 -14 -20 -40 0 -21 5 -33 13
-32 32 4 40 -1 27 -16 -10 -12 -16 -13 -27 -3 -18 15 -32 -4 -34 -47 -1 -24
-3 -25 -6 -7 -5 26 -11 27 -34 7 -15 -15 -17 -14 -23 10 -4 14 -11 25 -16 25
-6 0 -10 7 -10 16 0 14 3 14 15 4 16 -13 20 -5 16 28 -1 8 9 29 23 47 14 19
26 41 26 49 0 9 4 16 9 16 5 0 13 10 16 23 4 12 18 36 31 54 13 17 24 37 24
43 0 6 6 10 13 8 6 -3 13 -21 15 -42z m-588 -56 c0 -5 -5 -10 -11 -10 -5 0 -7
5 -4 10 3 6 8 10 11 10 2 0 4 -4 4 -10z m-524 -15 c4 -8 12 -15 20 -15 9 0 14
-11 14 -30 0 -26 -2 -28 -22 -21 -16 6 -25 19 -29 45 -6 35 6 50 17 21z m176
-114 c-1 -12 -9 -29 -17 -37 -17 -17 -18 -11 -9 35 7 35 30 37 26 2z m-168 4
c-4 -8 -12 -15 -19 -15 -8 0 -16 -8 -18 -17 -4 -15 -5 -14 -6 3 -1 22 16 44
36 44 7 0 10 -7 7 -15z m-314 -45 c-19 -13 -30 -13 -30 0 0 6 10 10 23 10 18
0 19 -2 7 -10z m598 -16 c-7 -15 -14 -21 -16 -15 -2 7 2 18 8 26 18 22 21 18
8 -11z m842 3 c0 -7 -10 -21 -22 -32 -15 -12 -18 -20 -10 -23 13 -4 7 -22 -9
-22 -14 0 -11 78 4 83 22 10 37 7 37 -6z m-310 -11 c0 -8 10 -23 23 -33 13
-10 26 -25 30 -33 4 -8 11 -22 16 -30 31 -54 41 -80 31 -80 -6 0 -14 10 -19
23 -5 12 -25 30 -44 41 -21 11 -37 27 -39 40 -2 16 -12 22 -40 26 -36 5 -36 5
-19 26 26 32 61 43 61 20z m-20 -143 c0 -29 -2 -29 -19 5 -10 18 -9 22 4 22
10 0 15 -9 15 -27z m2037 5 c-3 -8 -6 -5 -6 6 -1 11 2 17 5 13 3 -3 4 -12 1
-19z m-3130 -4 c-3 -3 -12 -4 -19 -1 -8 3 -5 6 6 6 11 1 17 -2 13 -5z m-27
-35 c0 -21 -16 -26 -23 -6 -6 17 3 38 14 31 5 -3 9 -14 9 -25z m1190 -28 c0
-5 -6 -14 -14 -20 -11 -9 -16 -9 -23 2 -4 8 -15 17 -23 20 -8 3 2 6 23 6 20 1
37 -3 37 -8z m80 -26 c0 -8 -7 -15 -15 -15 -8 0 -15 7 -15 15 0 8 7 15 15 15
8 0 15 -7 15 -15z m1840 -38 c0 -5 -7 -2 -15 7 -8 8 -15 20 -15 27 0 14 29
-20 30 -34z m-2027 -56 c-5 -3 -14 -18 -20 -33 -7 -16 -18 -28 -24 -28 -7 0
-5 9 5 25 9 13 16 31 16 40 0 8 5 15 10 15 6 0 11 8 11 18 1 10 4 7 6 -7 3
-13 1 -26 -4 -30z m1917 39 c0 -5 -4 -10 -10 -10 -5 0 -10 5 -10 10 0 6 5 10
10 10 6 0 10 -4 10 -10z m-80 -19 c0 -5 -7 -11 -15 -15 -9 -3 -15 0 -15 9 0 8
7 15 15 15 8 0 15 -4 15 -9z m-2090 -26 c0 -14 -4 -25 -10 -25 -5 0 -10 11
-10 25 0 14 5 25 10 25 6 0 10 -11 10 -25z m2238 -26 c-9 -6 -14 -3 -16 8 -2
8 2 19 10 24 9 6 14 3 16 -8 2 -8 -2 -19 -10 -24z m-98 12 c0 -5 -7 -14 -15
-21 -16 -14 -18 -10 -9 14 6 17 24 22 24 7z"/>
<path d="M4430 3493 c-8 -3 -54 -23 -102 -46 -60 -27 -88 -46 -88 -57 0 -70
180 -141 249 -99 26 17 51 78 51 126 0 35 0 36 -35 30 -40 -7 -43 0 -15 31
l21 22 -33 -1 c-18 0 -40 -3 -48 -6z"/>
<path d="M3702 2933 c-10 -4 -8 -9 5 -19 22 -16 56 -18 51 -2 -5 14 -39 27
-56 21z"/>
<path d="M2908 1739 c-26 -14 -22 -29 7 -29 18 0 25 5 25 20 0 22 -7 24 -32 9z"/>
<path d="M2566 1671 c-4 -6 -4 -16 0 -23 5 -7 7 -26 7 -43 -1 -16 1 -25 3 -18
4 10 10 10 24 1 11 -7 23 -9 27 -5 4 5 2 11 -5 16 -6 4 -20 24 -30 45 -12 24
-22 34 -26 27z"/>
<path d="M2475 1660 c-7 -12 2 -30 16 -30 5 0 9 9 9 20 0 21 -15 27 -25 10z"/>
<path d="M2371 1614 c0 -11 3 -14 6 -6 3 7 2 16 -1 19 -3 4 -6 -2 -5 -13z"/>
<path d="M2256 814 c-14 -35 20 -114 48 -114 15 0 40 41 29 49 -4 3 -22 23
-40 43 -23 27 -33 33 -37 22z"/>
<path d="M2210 645 c0 -9 6 -12 15 -9 8 4 15 7 15 9 0 2 -7 5 -15 9 -9 3 -15
0 -15 -9z"/>
<path d="M1832 910 c0 -14 2 -19 5 -12 2 6 2 18 0 25 -3 6 -5 1 -5 -13z"/>
<path d="M2551 4834 c0 -11 3 -14 6 -6 3 7 2 16 -1 19 -3 4 -6 -2 -5 -13z"/>
<path d="M1898 4788 c-21 -33 -29 -58 -18 -58 11 0 50 54 50 69 0 18 -17 12
-32 -11z"/>
<path d="M2503 4776 c-23 -22 -30 -46 -15 -46 15 0 44 38 40 53 -2 11 -8 9
-25 -7z"/>
<path d="M2507 4703 c-13 -12 -7 -23 12 -23 10 0 21 7 25 15 5 15 -24 22 -37
8z"/>
<path d="M3497 4656 c3 -13 0 -33 -6 -43 -8 -16 -5 -27 14 -54 14 -18 25 -39
25 -46 0 -7 7 -13 15 -13 8 0 15 5 15 10 0 6 -5 10 -11 10 -8 0 -8 4 0 14 6 8
11 31 10 52 -1 22 1 53 5 69 6 24 5 27 -4 13 -13 -22 -50 -24 -50 -3 0 8 -4
15 -9 15 -4 0 -6 -11 -4 -24z"/>
<path d="M1490 4530 c0 -5 7 -10 15 -10 8 0 15 5 15 10 0 6 -7 10 -15 10 -8 0
-15 -4 -15 -10z"/>
<path d="M1408 4423 c-9 -10 -18 -29 -20 -43 -3 -14 -9 -33 -13 -42 -6 -15 -2
-18 19 -18 29 0 31 -4 14 -50 -9 -28 -8 -35 6 -45 15 -12 15 -14 1 -28 -20
-20 -19 -61 1 -78 14 -11 19 -9 35 11 10 14 19 28 19 33 0 12 28 8 44 -8 17
-17 36 -20 36 -5 0 6 7 10 15 10 18 0 65 47 65 65 0 8 -7 15 -15 15 -8 0 -15
-4 -15 -9 0 -17 -40 -23 -70 -9 -19 8 -30 20 -30 33 0 11 -16 38 -35 60 -29
33 -36 37 -45 25 -8 -12 -10 -12 -10 6 0 11 7 29 15 40 16 21 20 54 7 54 -5 0
-16 -8 -24 -17z"/>
<path d="M1450 4411 c0 -6 5 -13 10 -16 6 -3 10 1 10 9 0 9 -4 16 -10 16 -5 0
-10 -4 -10 -9z"/>
<path d="M3610 4404 c0 -9 5 -14 12 -12 18 6 21 28 4 28 -9 0 -16 -7 -16 -16z"/>
<path d="M1338 4313 c7 -3 16 -2 19 1 4 3 -2 6 -13 5 -11 0 -14 -3 -6 -6z"/>
<path d="M2632 4278 c6 -18 25 -20 31 -3 5 10 0 15 -14 15 -12 0 -19 -5 -17
-12z"/>
<path d="M2680 4286 c0 -2 7 -6 15 -10 8 -3 15 -1 15 4 0 6 -7 10 -15 10 -8 0
-15 -2 -15 -4z"/>
<path d="M3320 4114 c0 -8 5 -12 10 -9 6 4 8 11 5 16 -9 14 -15 11 -15 -7z"/>
<path d="M1436 4077 c-3 -12 -3 -32 1 -45 3 -15 1 -27 -8 -33 -12 -8 -12 -11
1 -19 8 -5 25 -10 37 -10 13 0 24 -8 28 -20 3 -11 13 -20 22 -20 14 0 14 2 -1
23 -9 12 -19 29 -22 37 -3 8 -11 26 -17 39 -7 13 -11 32 -9 41 4 26 -25 33
-32 7z"/>
<path d="M3326 4045 c4 -8 11 -15 16 -15 6 0 5 6 -2 15 -7 8 -14 15 -16 15 -2
0 -1 -7 2 -15z"/>
<path d="M2700 3894 c0 -14 3 -14 15 -4 8 7 15 14 15 16 0 2 -7 4 -15 4 -8 0
-15 -7 -15 -16z"/>
<path d="M1570 3739 c0 -5 5 -7 10 -4 6 3 10 8 10 11 0 2 -4 4 -10 4 -5 0 -10
-5 -10 -11z"/>
<path d="M3326 3239 c-9 -14 -12 -25 -6 -27 16 -6 39 23 30 37 -5 10 -12 7
-24 -10z"/>
<path d="M2291 3193 c0 -25 1 -26 9 -8 12 27 12 35 0 35 -5 0 -10 -12 -9 -27z"/>
<path d="M3225 3178 c6 -22 2 -30 -22 -44 -15 -10 -30 -22 -33 -26 -3 -3 -28
-6 -55 -5 -48 2 -50 1 -53 -25 -2 -20 1 -28 12 -28 9 0 16 -4 16 -10 0 -5 7
-7 16 -3 12 4 13 7 3 14 -10 6 -10 9 4 15 9 3 23 1 31 -5 10 -9 21 -5 45 16
17 15 31 32 31 38 0 5 14 16 30 23 33 15 41 42 12 42 -10 0 -24 6 -31 13 -10
10 -11 7 -6 -15z"/>
<path d="M2270 3009 c0 -24 4 -38 10 -34 6 3 10 22 10 41 0 19 -4 34 -10 34
-5 0 -10 -18 -10 -41z"/>
<path d="M2241 2934 c0 -11 3 -14 6 -6 3 7 2 16 -1 19 -3 4 -6 -2 -5 -13z"/>
<path d="M2204 2863 c-10 -14 -19 -33 -19 -41 0 -9 -6 -17 -13 -20 -15 -5 -16
-32 -1 -32 15 0 41 28 35 39 -3 5 3 11 14 14 13 3 20 14 20 30 0 36 -13 40
-36 10z"/>
<path d="M3450 2842 c0 -31 73 -45 84 -16 9 24 9 24 -39 24 -25 0 -45 -4 -45
-8z"/>
<path d="M2153 2753 c-21 -7 -15 -33 7 -33 11 0 20 3 20 8 0 15 -15 29 -27 25z"/>
<path d="M1574 2699 c-46 -35 -53 -46 -58 -87 -4 -26 -12 -60 -18 -75 -9 -23
-8 -31 2 -37 19 -12 44 0 31 13 -6 6 -11 27 -10 47 0 19 3 28 6 20 3 -8 14
-23 24 -34 18 -19 18 -21 2 -39 -17 -18 -17 -20 7 -39 60 -47 70 -59 70 -82 0
-32 14 -40 33 -21 23 22 40 20 26 -4 -14 -21 -5 -56 11 -46 6 4 17 1 25 -5 12
-10 24 -4 65 30 64 54 86 90 55 90 -9 0 -15 9 -15 25 0 25 -13 55 -37 86 -7 8
-15 29 -17 46 -1 16 -6 35 -10 42 -4 6 -2 11 3 11 6 0 11 11 11 25 0 16 -6 25
-15 25 -8 0 -15 5 -15 10 0 6 -11 10 -25 10 -16 0 -25 6 -25 15 0 11 -11 15
-37 15 -29 0 -50 -10 -89 -41z"/>
<path d="M2210 2715 c-7 -14 -11 -27 -9 -30 9 -8 49 25 49 41 0 23 -25 16 -40
-11z"/>
<path d="M2125 2699 c-4 -6 -5 -12 -2 -15 7 -7 37 7 37 17 0 13 -27 11 -35 -2z"/>
<path d="M2144 2655 c-4 -8 -15 -15 -25 -15 -19 0 -37 -25 -26 -36 7 -7 75 38
81 54 3 6 -1 12 -10 12 -8 0 -17 -7 -20 -15z"/>
<path d="M3161 2613 c-18 -20 -6 -43 23 -43 34 0 37 11 12 36 -19 17 -24 19
-35 7z"/>
<path d="M1440 2558 c0 -17 2 -18 15 -8 8 7 15 14 15 15 0 2 -7 5 -15 9 -10 4
-15 -1 -15 -16z"/>
<path d="M2321 2434 c0 -11 3 -14 6 -6 3 7 2 16 -1 19 -3 4 -6 -2 -5 -13z"/>
<path d="M1416 2188 c7 -102 11 -128 25 -128 5 0 13 8 16 18 4 9 14 22 22 29
13 9 14 17 4 45 -6 18 -10 48 -7 67 5 41 -3 56 -22 40 -10 -8 -14 -8 -14 0 0
6 -7 11 -15 11 -12 0 -13 -14 -9 -82z"/>
<path d="M1920 2200 c0 -5 5 -10 10 -10 6 0 10 5 10 10 0 6 -4 10 -10 10 -5 0
-10 -4 -10 -10z"/>
<path d="M2031 2084 c0 -11 3 -14 6 -6 3 7 2 16 -1 19 -3 4 -6 -2 -5 -13z"/>
<path d="M1440 1987 c0 -56 29 -127 51 -127 11 0 32 -11 46 -24 15 -14 30 -23
35 -20 4 3 12 -6 17 -19 15 -38 31 -43 31 -9 0 17 6 32 15 36 19 7 20 36 1 36
-16 0 -26 63 -19 120 6 42 -5 52 -27 25 -11 -13 -15 -13 -41 0 -34 18 -56 19
-62 3 -3 -10 -9 -10 -26 0 -20 11 -21 10 -21 -21z"/>
<path d="M1826 1959 c-7 -43 -35 -77 -47 -57 -4 6 -10 0 -14 -13 -4 -13 -18
-32 -31 -42 -13 -10 -24 -27 -24 -38 0 -15 7 -19 35 -19 35 0 39 5 35 47 -1
13 8 28 24 38 18 12 26 28 31 66 9 61 0 77 -9 18z"/>
<path d="M1723 1756 c-26 -30 -29 -42 -9 -49 16 -6 40 33 34 58 -2 14 -6 13
-25 -9z"/>
<path d="M1662 1742 c-9 -15 -10 -28 -3 -40 9 -16 10 -16 16 0 4 9 5 27 3 40
l-3 23 -13 -23z"/>
<path d="M1650 1664 c0 -8 5 -12 10 -9 6 3 10 10 10 16 0 5 -4 9 -10 9 -5 0
-10 -7 -10 -16z"/>
<path d="M1307 766 c-7 -17 35 -30 64 -21 16 5 18 10 8 21 -15 18 -65 18 -72
0z"/>
<path d="M1251 714 c0 -11 3 -14 6 -6 3 7 2 16 -1 19 -3 4 -6 -2 -5 -13z"/>
<path d="M1257 613 c-12 -11 -8 -23 8 -23 8 0 15 -4 15 -10 0 -5 7 -10 15 -10
20 0 19 36 -1 44 -20 8 -29 8 -37 -1z"/>
<path d="M1058 593 c7 -3 16 -2 19 1 4 3 -2 6 -13 5 -11 0 -14 -3 -6 -6z"/>
<path d="M995 560 c-3 -5 -15 -10 -26 -10 -10 0 -19 -6 -19 -14 0 -11 6 -10
35 3 19 9 34 19 35 24 0 10 -18 9 -25 -3z"/>
<path d="M1050 551 c-6 -13 -17 -17 -30 -14 -15 4 -20 0 -20 -16 0 -21 24 -29
35 -11 3 6 16 10 28 9 12 0 16 -3 10 -6 -15 -6 -17 -43 -3 -43 6 0 10 7 10 15
0 17 30 35 59 35 12 0 21 6 21 16 0 12 -7 14 -28 9 -20 -4 -33 -1 -42 10 -17
20 -27 19 -40 -4z"/>
<path d="M1340 481 c0 -4 11 -13 25 -19 14 -6 25 -8 25 -4 0 4 -11 12 -25 19
-14 6 -25 8 -25 4z"/>
<path d="M1405 470 c-3 -5 -1 -10 4 -10 6 0 11 5 11 10 0 6 -2 10 -4 10 -3 0
-8 -4 -11 -10z"/>
<path d="M1045 450 c-4 -6 -3 -16 3 -22 6 -6 12 -6 17 2 4 6 3 16 -3 22 -6 6
-12 6 -17 -2z"/>
<path d="M966 371 c-4 -7 -5 -15 -2 -18 9 -9 19 4 14 18 -4 11 -6 11 -12 0z"/>
<path d="M1513 295 c-10 -10 -9 -14 2 -19 17 -6 31 12 19 24 -5 5 -14 2 -21
-5z"/>
<path d="M1641 231 c-7 -5 -11 -14 -7 -19 9 -15 36 -4 36 14 0 16 -9 18 -29 5z"/>
<path d="M1716 225 c-4 -10 1 -15 14 -15 11 0 20 7 20 15 0 8 -6 15 -14 15 -8
0 -16 -7 -20 -15z"/>
<path d="M1600 170 c0 -5 5 -10 10 -10 6 0 10 5 10 10 0 6 -4 10 -10 10 -5 0
-10 -4 -10 -10z"/>
</g>
</svg>
