<svg width="63" height="63" viewBox="0 0 63 63" fill="none" xmlns="http://www.w3.org/2000/svg">
<path d="M0 31.5C0 16.6508 0 9.22614 4.61307 4.61307C9.22614 0 16.6508 0 31.5 0C46.3492 0 53.7739 0 58.3869 4.61307C63 9.22614 63 16.6508 63 31.5C63 46.3492 63 53.7739 58.3869 58.3869C53.7739 63 46.3492 63 31.5 63C16.6508 63 9.22614 63 4.61307 58.3869C0 53.7739 0 46.3492 0 31.5Z" fill="#A8E0FD"/>
<path d="M55.9361 2.73315C56.8378 3.25418 57.6484 3.87452 58.3871 4.61313C63.0001 9.22619 63.0001 16.6508 63.0001 31.5001C63.0001 46.3493 63.0001 53.7739 58.3871 58.387C53.774 63.0001 46.3494 63.0001 31.5001 63.0001C31.0094 63.0001 30.5269 63.0001 30.0522 62.9999L6.31228 36.3258C5.22071 35.0993 4.67492 34.486 4.66875 33.7462C4.66259 33.0064 5.19808 32.3841 6.26905 31.1396L26.2055 7.97286C26.682 7.41908 26.9203 7.14216 27.2336 6.97052C27.5469 6.79888 27.9085 6.74709 28.6317 6.6435L55.7396 2.7609C55.8142 2.75022 55.8788 2.74098 55.9361 2.73315Z" fill="#D172FD"/>
<path d="M37.154 62.9884C35.3987 63 33.5179 63 31.4999 63C31.0142 63 30.5363 63 30.0663 62.9998L5.08936 34.8511H62.9977L62.9977 34.8535L37.154 62.9884Z" fill="#C06CE8"/>
<path d="M55.9335 2.73163C56.8362 3.25295 57.6477 3.87376 58.387 4.61305C63.0001 9.22612 63.0001 16.6507 63.0001 31.5C63.0001 32.6611 63.0001 33.7768 62.9979 34.8493L28.3794 6.67593L55.8663 2.74038C55.8887 2.73718 55.9111 2.73426 55.9335 2.73163Z" fill="#BFA3FD"/>
</svg>
