<svg width="46" height="46" viewBox="0 0 46 46" fill="none" xmlns="http://www.w3.org/2000/svg">
<rect width="46" height="46" rx="23" fill="#333B47"/>
<path d="M16.2395 33.4737L12.1197 38L8 33.4737H16.2395V33.4737ZM22.2691 23.1867C21.4078 22.0756 21.4451 21.4581 21.9694 20.8826C22.6065 20.1826 23.2804 20.4709 24.0297 21.2528L22.2691 23.1867ZM31.1083 10.8418C31.7449 10.1424 32.4193 10.4302 33.1682 11.212L31.408 13.1459C30.5086 12.0353 30.5463 11.4588 31.1083 10.8418ZM36.4267 12.8172C35.64 14.1336 34.2168 16.2734 32.7562 14.6687L36.464 10.595C36.127 10.2243 35.9024 9.89559 35.6773 9.68976C33.6925 7.50857 31.4453 7.4676 29.685 9.40151C28.5237 10.677 28.1868 12.1587 28.5237 13.5576L27.3628 12.1173C27.0631 12.2821 25.6399 13.681 26.6889 15.7388L25.378 14.5453L23.6177 16.4792L26.0146 19.1125C24.1793 17.5078 22.1945 17.6727 20.6212 19.4008C18.936 21.2523 19.0483 23.5159 20.3215 25.3674L20.0596 25.0791C18.374 23.2281 16.5392 23.8861 15.6402 24.8738C14.9285 25.6556 14.5166 26.6843 14.7039 27.4247L11.0712 23.4335L9.12317 25.5732L16.3141 33.4737H20.1719L17.5877 30.6345C16.2395 29.1118 16.2018 28.3304 16.8761 27.5896C17.5127 26.8901 18.2616 27.3427 19.5726 28.7416L22.1195 31.5398L24.0297 29.441L21.5947 26.7662C23.3554 28.2066 25.4525 28.2895 27.3255 26.2312L27.3628 26.1902C28.5237 25.0382 28.8611 23.8861 28.8611 23.8861L27.4001 22.816C26.6139 24.1329 25.2283 26.2726 23.7674 24.668L27.4751 20.5943L29.7978 23.1447L31.8204 20.9226L28.9366 17.7542C27.5879 16.2729 28.375 14.874 28.9366 14.339C29.1985 14.956 29.5727 15.5325 30.0597 16.0671C31.9327 18.1248 34.3295 18.536 36.4644 16.2319L36.5017 16.1909C37.6631 15.0389 38 13.8863 38 13.8863L36.4271 12.8162L36.4267 12.8172Z" fill="white"/>
</svg>
