<svg width="48" height="48" viewBox="0 0 48 48" fill="none" xmlns="http://www.w3.org/2000/svg">
<path d="M15.6612 4.61994C16.8432 3.7005 18.3305 3.23289 19.8156 3.16529C21.0787 3.16191 22.3012 3.57205 23.3807 4.20979C23.6139 4.31346 23.8663 4.55008 24.1322 4.41374C24.8432 4.13317 25.4742 3.67233 26.2145 3.46388C26.8083 3.29261 27.4224 3.1912 28.0398 3.15965C28.9728 3.11458 29.8764 3.40641 30.7452 3.71064C31.7018 4.04867 32.4984 4.71571 33.197 5.43346C33.6094 5.88867 34.0511 6.32585 34.3655 6.85768C34.9277 7.89317 35.4212 8.9636 35.8911 10.0442C36.2753 10.9906 36.868 11.8278 37.4562 12.6549C37.8336 13.2768 38.415 13.7287 38.8871 14.2729C39.5271 14.9095 40.1953 15.518 40.8567 16.1343C41.6432 16.9692 42.3711 17.8582 43.0731 18.7642C43.4325 19.3095 43.7333 19.892 44.1255 20.416C45.6443 23.1484 46.957 26.0149 47.7885 29.0368C48.1919 30.7202 47.8269 32.4949 47.0922 34.0329C46.4184 35.2498 45.5114 36.4667 44.1502 36.9501C43.1249 37.4053 41.9767 37.2374 40.9164 37.0154C39.2105 36.5715 37.5655 35.7929 35.775 35.7557C34.9255 35.6475 34.024 35.9766 33.4719 36.6357C33.1993 37.1912 33.2207 37.8458 33.2984 38.4464C33.4055 39.0875 33.4843 39.7523 33.7931 40.336C34.3846 41.3839 35.1519 42.443 36.3305 42.8656C36.8353 43.0087 37.3683 43.2092 37.8978 43.0763C38.8105 42.852 39.7142 42.4058 40.2719 41.6239C40.4916 41.3354 40.6843 40.8881 40.4184 40.5681C40.2066 40.2898 39.9316 39.9518 39.5485 39.9642C39.0945 40.0971 38.6798 40.3867 38.1886 40.3619C37.6702 40.4013 37.1835 40.1985 36.7384 39.9596C36.1502 39.6881 35.624 39.296 35.1756 38.8318C34.8421 38.487 35.25 37.6475 35.7536 37.918C36.2449 38.1118 36.7474 38.3078 37.2838 38.3101C38.1378 38.4306 38.566 37.4109 39.4055 37.4312C41.2049 37.5202 42.806 39.0875 42.8916 40.8994C43.0595 41.812 42.5378 42.6549 41.9181 43.2723C41.0517 44.1343 39.8517 44.6188 38.6426 44.7078C36.9221 44.8735 35.1452 44.4949 33.6556 43.6149C33.2747 43.3996 32.8781 43.2081 32.5356 42.9343C31.8393 42.3878 31.3018 41.6735 30.7914 40.9591C30.2618 40.0881 30.1367 39.0515 29.8426 38.0904C29.2488 38.372 28.726 38.7799 28.13 39.0582C27.5632 39.3219 27.0224 39.6498 26.4173 39.8199C25.6331 40.0656 24.8026 40.0239 23.9925 40.0802C23.0471 40.0813 22.0736 40.0329 21.1902 39.6667C20.5908 39.4627 20.0398 39.1484 19.4832 38.8532C19.0077 38.6075 18.6314 38.1805 18.095 38.0577C17.8933 39.1056 17.6545 40.1704 17.0731 41.0819C16.6607 41.7005 16.2314 42.3371 15.6139 42.7709C14.9807 43.2453 14.3395 43.7332 13.5902 44.0092C12.4838 44.4295 11.3266 44.8013 10.1277 44.736C8.4725 44.8002 6.717 44.2064 5.66912 42.8757C5.19926 42.3349 5.00433 41.5968 5.05165 40.8915C5.09898 40.2335 5.42686 39.6464 5.71531 39.0695C5.98461 38.5298 6.52658 38.2053 7.02574 37.9056C7.54968 37.6363 8.12546 37.3287 8.73503 37.4447C9.4325 37.5473 9.84264 38.3067 10.5705 38.3191C11.3176 38.3822 11.9609 37.9056 12.6933 37.856C12.7812 38.1163 12.8624 38.3788 12.9367 38.6436C12.5164 39.0853 12.104 39.5664 11.5407 39.8267C10.8624 40.1546 10.1086 40.4487 9.34348 40.3168C8.9401 40.2436 8.57391 39.8751 8.14799 40.0329C7.60038 40.2199 7.34123 40.8937 7.56433 41.4154C7.80771 41.9439 8.30236 42.2988 8.80377 42.5636C9.23757 42.7889 9.67588 43.0526 10.1739 43.0999C11.2274 43.163 12.2855 42.7281 13.0224 41.9811C14.0117 40.8847 14.7587 39.4571 14.6922 37.9461C14.6821 37.4402 14.7294 36.8464 14.3294 36.4633C13.739 35.8177 12.7959 35.7264 11.9722 35.7478C10.5705 35.8256 9.24996 36.3551 7.92827 36.7844C6.87137 37.0706 5.77278 37.3118 4.67193 37.2126C3.81672 37.0312 2.97616 36.6627 2.34292 36.0475C1.85165 35.5935 1.4832 35.0278 1.10912 34.4791C0.286583 32.8723 -0.271163 31.0064 0.136724 29.198C0.434189 28.1388 0.838695 27.1135 1.14968 26.0588C1.69503 24.7405 2.26292 23.4301 2.8725 22.1399C3.15644 21.5743 3.51701 21.0526 3.82574 20.5016C4.10405 20.0318 4.30912 19.5123 4.66743 19.092C5.28489 18.3529 5.76715 17.5056 6.46348 16.8318C7.28264 15.8853 8.27419 15.1135 9.13954 14.212C9.71193 13.6904 10.166 13.0605 10.6708 12.4768C11.2263 11.7242 11.6736 10.896 12.0894 10.0599C12.4815 9.02895 13.0145 8.06219 13.4978 7.07177C13.9925 6.08134 14.8094 5.30501 15.6612 4.61994ZM17.6511 4.04416C18.0917 4.47909 18.5987 4.84191 19.0325 5.28585C20.29 6.42951 21.3683 7.74782 22.4398 9.06163C22.7474 8.49486 22.9108 7.86613 23.1508 7.27008C23.41 6.49824 23.7502 5.71064 23.7108 4.88134C23.3119 4.53768 22.7959 4.36754 22.3271 4.13993C20.8702 3.48529 19.1159 3.32979 17.6511 4.04416ZM27.1159 3.67909C26.1694 3.8605 25.2883 4.2774 24.4409 4.7236C24.1345 4.85768 24.2798 5.24754 24.2393 5.50782C24.1829 6.21881 24.4105 6.9005 24.6393 7.56191C24.8533 8.16585 25.0122 8.78782 25.2466 9.38388C25.7987 8.86895 26.1593 8.18951 26.6877 7.65092C27.7852 6.32585 29.0494 5.15515 30.344 4.02951C29.3311 3.61825 28.1942 3.44585 27.1159 3.67909ZM15.2838 5.50557C17.357 6.39233 19.3288 7.54275 21.0235 9.03909C21.4179 9.37486 21.7739 9.75684 22.1908 10.0667C22.2562 9.86613 22.3711 9.62275 22.1863 9.44585C20.8026 7.59007 19.2139 5.88191 17.4178 4.41937C17.2995 4.3574 17.1677 4.17712 17.0246 4.27177C16.3824 4.5805 15.7717 4.98163 15.2838 5.50557ZM30.0128 4.8836C28.3452 6.29656 26.886 7.94388 25.5902 9.7005C25.4246 9.88416 25.4686 10.1377 25.4686 10.363C25.9609 10.0013 26.3508 9.5236 26.8218 9.13486C28.5469 7.65092 30.4939 6.40022 32.6167 5.56529C32.6708 5.3974 32.4894 5.3174 32.3947 5.21712C31.9249 4.82726 31.4212 4.46557 30.8556 4.22895C30.53 4.38106 30.2832 4.65487 30.0128 4.8836ZM13.8235 7.40416C16.6922 7.51909 19.4866 8.67289 21.6364 10.567C21.7649 10.6492 21.8866 10.8126 22.0578 10.7766C22.1784 10.6413 21.9835 10.5028 21.9069 10.4047C19.9249 8.45768 17.5778 6.83965 14.9717 5.85599C14.4522 6.22557 14.1221 6.84416 13.8235 7.40416ZM32.5897 6.00247C30.0286 7.07402 27.7142 8.70444 25.7784 10.6887C25.6917 10.7912 25.6387 10.9095 25.6195 11.0459C26.3621 10.6278 26.9446 9.98332 27.6714 9.5405C29.5857 8.25599 31.8449 7.48867 34.1536 7.41317C33.8888 6.84191 33.5046 6.3281 33.0719 5.87289C32.9018 5.85599 32.7452 5.94726 32.5897 6.00247ZM23.4393 7.67571C22.868 9.20585 22.1784 10.807 22.4387 12.4768C22.6719 13.8064 23.2725 15.0391 23.8528 16.2458C24.5288 14.9512 25.1102 13.5698 25.2567 12.1039C25.3311 11.492 25.2567 10.8689 25.0855 10.2797C24.7801 9.14726 24.3114 8.06557 24.024 6.92867C23.9745 6.79233 23.9688 6.63008 23.8629 6.52303C23.6669 6.8836 23.6038 7.3005 23.4393 7.67571ZM13.57 7.80867C12.984 9.03571 12.4691 10.2977 11.8235 11.4966C10.8421 13.2588 9.33109 14.6278 7.87757 15.9912C7.53391 16.3202 7.13954 16.6154 6.91532 17.0458C7.34799 16.9467 7.75362 16.7687 8.1694 16.6188C10.1717 15.9067 12.2798 15.5811 14.3215 15.0064C15.4674 14.7146 16.5694 14.274 17.6567 13.8154C17.8798 13.7253 18.095 13.5935 18.2167 13.3771C18.6787 12.656 19.1497 11.9213 19.8009 11.3535C20.157 11.0402 20.5762 10.8115 20.9897 10.585C18.9277 8.85543 16.264 7.84698 13.57 7.80867ZM26.9671 10.585C28.1548 11.1168 29.0145 12.1467 29.6601 13.2464C29.9429 13.8019 30.6111 13.9033 31.1249 14.1467C33.8201 15.3106 36.7767 15.6104 39.5497 16.5309C40.0556 16.6943 40.5412 16.9219 41.0607 17.0481C40.8229 16.6244 40.4274 16.3326 40.0916 15.9957C38.8319 14.7754 37.4798 13.6115 36.5322 12.1174C35.6297 10.7811 35.1463 9.22388 34.3677 7.82106C31.6793 7.84923 29.0325 8.87796 26.9671 10.585ZM20.6798 11.2182C19.6578 11.8391 19.0088 12.8836 18.3902 13.874C17.9745 14.5658 17.5395 15.2453 17.1114 15.9292C18.3824 15.8244 19.6455 16.0385 20.9052 16.1726C21.6567 16.2515 22.0736 16.9557 22.4455 17.5292C22.6618 17.8391 22.5424 18.2335 22.6426 18.5771C23.3345 21.1349 23.3581 23.8075 23.8505 26.4025C23.8922 26.6222 23.9508 26.8397 24.0342 27.0492C24.4871 24.2932 24.5807 21.4819 25.1835 18.7484C25.2838 18.363 25.1046 17.9326 25.3288 17.5766C25.6883 16.9997 26.095 16.3191 26.8218 16.1828C28.1683 16.0453 29.5238 15.785 30.8804 15.9597C30.5818 15.4459 30.2246 14.9692 29.9226 14.4577C29.3086 13.4166 28.6911 12.3326 27.7514 11.5473C27.4133 11.2791 27.0235 11.003 26.5762 11.003C26.0691 11.1349 25.6139 11.6104 25.6488 12.1602C25.5181 13.8684 24.7091 15.4075 23.9948 16.9298C23.8787 16.9309 23.7638 16.932 23.6488 16.932C23.17 15.5822 22.4015 14.3337 22.1119 12.9174C21.9632 12.3844 22.0184 11.8267 21.9463 11.2858C21.6049 10.9208 21.0742 10.9704 20.6798 11.2182ZM15.6871 15.0132C12.8702 15.9856 9.84151 16.2605 7.10236 17.4718C6.60996 17.6971 6.06686 17.9022 5.73109 18.3518C5.36264 18.8273 5.01334 19.3208 4.72489 19.8504C5.33109 19.652 5.89334 19.3433 6.50067 19.145C7.6725 18.7506 8.89053 18.5208 10.0838 18.2042C12.3024 17.643 14.575 17.0785 16.5457 15.8706C17.0077 15.4425 17.3097 14.8622 17.6117 14.3146C16.9593 14.5197 16.3384 14.8081 15.6871 15.0132ZM30.3688 14.3112C30.6314 14.8543 30.9412 15.3929 31.3638 15.8267C32.184 16.3901 33.1271 16.7416 34.0545 17.0864C36.3147 17.9326 38.7024 18.3461 41.0167 19.0075C41.7671 19.2137 42.4578 19.5822 43.1959 19.8233C42.9581 19.287 42.5874 18.8273 42.2415 18.3585C42.0162 18.0464 41.668 17.865 41.3367 17.6904C38.264 16.1963 34.7801 15.9878 31.6094 14.7811C31.1993 14.6154 30.7948 14.4329 30.3688 14.3112ZM16.8624 16.4915C18.7452 16.5613 20.4466 17.4256 22.1897 18.034C22.0567 17.5473 21.7502 17.1258 21.3694 16.8036C21.0855 16.5692 20.7001 16.5535 20.3531 16.5039C19.3874 16.4013 18.4184 16.2504 17.4449 16.3123C17.2443 16.3371 17.0043 16.318 16.8624 16.4915ZM27.0393 16.5636C26.2607 16.6335 25.8663 17.4278 25.57 18.0543C27.3142 17.4537 29.01 16.5704 30.8928 16.4982C30.77 16.2909 30.5018 16.3371 30.299 16.3089C29.2071 16.2628 28.1209 16.4374 27.0393 16.5636ZM8.24264 19.0819C6.91193 19.3873 5.61165 19.856 4.42405 20.5366C4.11982 20.6864 3.9925 21.0199 3.82686 21.2949C3.30067 22.2797 2.76208 23.2644 2.35419 24.3056C3.48433 22.8791 5.04264 21.8481 6.69672 21.1247C8.65616 20.2402 10.7384 19.6644 12.6911 18.763C13.7897 18.2413 14.8669 17.6295 15.7548 16.7878C13.3638 17.8875 10.7835 18.4475 8.24264 19.0819ZM32.2122 16.7878C33.8652 18.3191 36.015 19.1258 38.0984 19.883C40.2888 20.6751 42.5547 21.474 44.3553 23.0053C44.7745 23.3388 45.1114 23.7613 45.5159 24.1118C45.1914 23.2081 44.7001 22.3743 44.2652 21.5213C44.0567 21.1743 43.9226 20.7405 43.5429 20.5399C41.7773 19.4774 39.7277 19.0819 37.7536 18.5929C35.8629 18.1366 33.9902 17.5811 32.2122 16.7878ZM16.0477 17.0661C15.2432 17.8447 14.2764 18.4295 13.2781 18.923C13.1508 18.9602 13.1001 19.0751 13.0539 19.1867C13.3232 19.3354 13.5655 19.5484 13.8618 19.6408C15.037 19.367 16.2528 19.3636 17.4528 19.3151C18.4409 19.3129 19.5576 19.3805 20.3001 20.1197C20.8601 20.5794 20.9266 21.3602 21.4224 21.8706C21.9486 21.6678 22.5604 21.323 22.664 20.718C22.5818 19.9889 22.4364 19.2633 22.2133 18.5636C21.526 18.2053 20.7846 17.9484 20.0612 17.6678C18.9356 17.2408 17.7548 16.8667 16.5367 16.9028C16.3632 16.914 16.1649 16.9163 16.0477 17.0661ZM29.1339 17.2013C27.9384 17.5585 26.7733 18.0115 25.6342 18.5185C25.5057 19.278 25.2635 20.0295 25.2815 20.8058C25.3795 21.3005 25.7829 21.7219 26.246 21.9089C26.5829 21.7512 26.7756 21.3873 26.895 21.0492C27.17 20.2526 27.8945 19.6385 28.7159 19.4684C29.8246 19.2115 30.9728 19.3478 32.0984 19.3895C32.7373 19.4515 33.3897 19.4729 34.0071 19.6667C34.2877 19.4639 34.6945 19.3456 34.8015 18.9805C33.7131 18.4644 32.6922 17.7985 31.8133 16.9726C30.9187 16.8194 29.997 16.9467 29.1339 17.2013ZM34.4049 19.8842C33.9576 20.1692 33.437 20.3089 32.984 20.5805C32.708 20.8757 32.4928 21.2261 32.1795 21.4864C31.464 22.1489 30.4578 22.3653 29.5114 22.4081C28.9514 22.434 28.4612 22.1411 27.9643 21.9315C27.4246 21.7219 26.9638 22.1884 26.4702 22.3168C25.9125 22.3292 25.4269 21.9709 25.1835 21.4853C25.1159 21.696 25.0607 21.9123 25.037 22.1343C24.8995 23.3647 24.7767 24.5963 24.61 25.8233C24.5356 26.4002 24.539 27.0109 24.2629 27.5382C24.0995 27.7377 23.7953 27.6442 23.7131 27.4222C23.4145 26.6402 23.3491 25.7997 23.215 24.9805C23.0663 23.8177 22.9547 22.6504 22.7959 21.4887C22.3452 21.8605 21.864 22.2019 21.2871 22.3473C20.8736 22.1411 20.4511 21.8042 19.9621 21.8909C19.3931 22.0791 18.868 22.4689 18.2404 22.416C17.2207 22.3461 16.1277 22.078 15.4167 21.2915C15.1091 21.0357 15.0009 20.5681 14.5931 20.4419C13.8821 20.1602 13.1711 19.8278 12.6212 19.2836C12.9108 20.7743 13.2263 22.2616 13.5238 23.7512C13.6838 24.3991 13.7424 25.0729 13.9362 25.7118C14.1784 25.954 14.4567 26.158 14.6956 26.4047C15.7626 27.4019 16.5255 28.6943 17.0111 30.0633C17.7942 32.176 17.9778 34.4689 18.8871 36.5411C19.2905 37.3636 19.7953 38.1478 20.4218 38.8194C21.2071 39.4154 22.2257 39.5946 23.1914 39.6295C24.3317 39.6791 25.5091 39.6915 26.6043 39.323C27.0032 39.1585 27.437 39.0053 27.7198 38.6605C28.3215 37.9495 28.85 37.1653 29.2015 36.2999C30.0838 34.1681 30.2471 31.8188 31.126 29.6847C31.6083 28.4306 32.3632 27.2813 33.3333 26.3506C33.5621 26.1309 33.8246 25.9461 34.0364 25.7084C34.1209 25.5315 34.1469 25.3343 34.1897 25.145C34.477 23.6464 34.7936 22.1535 35.0922 20.6571C35.188 20.1523 35.3435 19.6532 35.3469 19.1349C35.0359 19.3884 34.7688 19.7005 34.4049 19.8842ZM10.4015 20.105C10.2043 20.1816 9.94517 20.2402 9.89222 20.4813C9.3356 22.0058 8.25165 23.2464 7.27024 24.5106C7.0201 24.8633 6.59757 25.1957 6.67081 25.6768C6.76771 27.2306 7.71081 28.6661 9.0032 29.5033C9.96433 30.0656 11.0686 30.3349 12.1649 30.4746C12.886 30.576 13.6443 30.4318 14.2505 30.0205C14.4466 29.7422 14.2246 29.3929 14.1795 29.0943C13.3097 29.252 12.3959 29.2611 11.5474 28.9884C10.5435 28.6549 9.70405 27.7895 9.51926 26.7315C9.24771 25.3377 9.65672 23.8774 10.4184 22.7022C10.9266 21.8684 11.6905 21.2487 12.3948 20.5918C12.4669 20.194 12.2945 19.7929 12.2415 19.3985C11.6364 19.6554 11.0291 19.9067 10.4015 20.105ZM35.7255 19.4763C35.7063 19.7704 35.4877 20.1861 35.8269 20.3732C36.7181 21.0909 37.6015 21.8639 38.1863 22.8622C38.8319 23.9258 39.2105 25.1957 39.0404 26.4453C38.9131 27.3253 38.459 28.2087 37.6624 28.656C36.5074 29.3602 35.0674 29.296 33.8021 28.967C33.757 29.2318 33.7221 29.4977 33.7097 29.7658C34.3609 30.043 34.9717 30.4982 35.7086 30.5016C36.646 30.5061 37.5722 30.2875 38.4578 29.9946C39.7683 29.5258 40.9029 28.5377 41.4426 27.2419C41.6083 26.8104 41.9215 26.2875 41.6308 25.8436C40.5187 24.0092 38.8026 22.5478 38.077 20.4847C38.0218 20.2425 37.7502 20.1951 37.5576 20.1061C36.9457 19.8988 36.3598 19.6115 35.7255 19.4763ZM14.4195 19.9551C14.8815 20.1523 15.3649 20.3247 15.8742 20.3191C16.8533 20.3112 17.8145 20.0025 18.797 20.0825C19.3153 20.1219 19.7795 20.3754 20.2483 20.5771C19.499 19.7974 18.3632 19.6644 17.3367 19.7219C16.3632 19.7647 15.3773 19.7523 14.4195 19.9551ZM27.6973 20.4825C28.1153 20.3371 28.5209 20.1354 28.9671 20.0892C29.8888 19.9923 30.7925 20.2571 31.7063 20.3157C32.2731 20.354 32.8387 20.2154 33.3502 19.9754C32.5536 19.723 31.6894 19.794 30.8624 19.7332C29.784 19.696 28.5131 19.6453 27.6973 20.4825ZM7.71869 21.1258C5.93165 21.8673 4.14574 22.7878 2.89165 24.3033C2.02292 25.2644 1.53503 26.4813 1.07532 27.6735C0.8094 28.416 0.500667 29.1608 0.445456 29.9574C0.354188 31.0199 0.561512 32.0881 0.919822 33.0853C1.40658 34.3473 2.19419 35.5743 3.37954 36.2785C3.34348 35.9439 3.28377 35.6137 3.23306 35.2813C2.9525 33.1213 3.49672 30.9366 4.42855 28.9929C4.70348 28.3089 5.14743 27.705 5.37165 26.9997C5.82236 25.6689 6.7001 24.5433 7.57222 23.4616C8.27081 22.5287 9.0494 21.616 9.43926 20.5005C8.84658 20.6537 8.29222 20.9185 7.71869 21.1258ZM16.1683 20.7033C16.2595 21.0605 16.3012 21.5574 16.7114 21.6937C17.4967 21.9833 18.4252 22.185 19.2094 21.7828C19.5812 21.6273 19.7649 21.2475 20.0015 20.9467C19.6973 20.7518 19.3717 20.576 19.01 20.5219C18.059 20.3259 17.117 20.6673 16.1683 20.7033ZM27.8302 20.9118C27.9666 21.2689 28.2584 21.5518 28.5705 21.7625C29.4471 22.2425 30.4883 21.9371 31.3548 21.5901C31.3942 21.296 31.4393 21.0042 31.5012 20.7157C30.6517 20.6166 29.8009 20.3878 28.9424 20.4971C28.5401 20.5354 28.1897 20.7484 27.8302 20.9118ZM38.5277 20.4937C39.028 21.8594 40.0195 22.9613 40.9063 24.087C43.5688 27.1799 45.2207 31.0526 45.9677 35.0436C47.2601 33.2937 47.9294 30.9546 47.3086 28.8194C46.9198 27.7106 46.5232 26.5985 45.9666 25.5597C45.3164 24.3844 44.3407 23.4256 43.2522 22.6549C41.7829 21.7287 40.1762 21.0301 38.5277 20.4937ZM31.9407 20.6774C31.8945 20.8543 31.8539 21.0335 31.8269 21.2149C32.0477 21.0774 32.237 20.8982 32.4184 20.7123C32.2584 20.6999 32.0995 20.6887 31.9407 20.6774ZM15.4922 20.6819C15.5891 20.8532 15.7131 21.0064 15.8426 21.1551C15.8246 20.9298 15.8145 20.6064 15.4922 20.6819ZM35.1283 22.4971C35.028 23.1112 34.85 23.7118 34.7857 24.3326C35.2747 24.1895 35.7694 23.9946 36.1536 23.6509C36.5345 23.2712 36.5086 22.6797 36.3621 22.2008C36.1818 21.6532 36.0646 21.0267 35.5733 20.6605C35.3446 21.2498 35.2635 21.8819 35.1283 22.4971ZM11.7964 22.7484C11.7356 23.5236 12.5412 23.9259 13.1587 24.1456C13.0156 23.0988 12.7688 22.0712 12.5491 21.0391C12.1198 21.4999 11.908 22.1388 11.7964 22.7484ZM20.1469 21.3197C20.2302 21.5112 20.4533 21.5236 20.6246 21.5901C20.5683 21.4954 20.5119 21.4019 20.4567 21.3073C20.379 21.3106 20.2246 21.3174 20.1469 21.3197ZM27.3931 21.2735C27.3649 21.3095 27.3086 21.3816 27.2804 21.4177C27.384 21.7997 27.8201 21.2047 27.3931 21.2735ZM36.6111 21.5304C36.7745 22.2346 37.0494 23.0233 36.6449 23.7016C36.184 24.3563 35.3559 24.5602 34.655 24.8554C34.575 25.2205 34.504 25.5889 34.4556 25.9608C35.7232 25.6532 36.9717 25.092 37.8956 24.1512C38.0184 23.9968 38.2539 23.8199 38.1243 23.6013C37.775 22.8104 37.1902 22.1602 36.6111 21.5304ZM11.535 21.9067C11.0212 22.5399 10.495 23.1923 10.2359 23.9788C11.0708 24.9974 12.3012 25.5968 13.5463 25.954C13.4764 25.5506 13.4314 25.1394 13.3018 24.7506C12.744 24.3799 12.0297 24.1895 11.6274 23.6137C11.2793 23.1304 11.3525 22.4633 11.6173 21.9597C11.597 21.9461 11.5553 21.9202 11.535 21.9067ZM36.3959 25.6926C35.7502 26.0498 35.0235 26.1985 34.344 26.4611C34.1829 27.1506 33.9925 27.8504 33.9542 28.558C34.3407 28.7777 34.7305 28.4836 35.064 28.3056C35.6657 27.9315 36.3024 27.6081 36.8635 27.1743C37.4674 26.6526 38.0421 26.078 38.468 25.3974C38.708 25.0458 38.5649 24.5794 38.3193 24.2718C37.7807 24.8712 37.1395 25.3749 36.3959 25.6926ZM9.82799 26.0194C9.837 26.1625 9.82461 26.327 9.94292 26.4329C10.2821 26.8126 10.699 27.1168 11.1362 27.3737C11.8978 27.8222 12.6483 28.2932 13.4415 28.683C13.6353 28.7946 13.8595 28.7202 14.0669 28.7067C14.006 28.0025 13.8393 27.3129 13.6871 26.6244C13.6635 26.354 13.3581 26.327 13.1576 26.2492C12.0094 25.9225 10.9322 25.3242 10.0962 24.4656C9.85616 24.9456 9.81334 25.492 9.82799 26.0194ZM37.908 26.7574C37.4359 27.3095 36.8376 27.7399 36.2088 28.0994C35.8697 28.3123 35.4708 28.4656 35.2319 28.8047C35.8821 28.8092 36.548 28.7315 37.1497 28.4723C38.0545 28.0701 38.6494 27.0954 38.628 26.1106C38.2832 26.185 38.1209 26.5129 37.908 26.7574ZM5.2601 28.9005C5.02912 30.0926 4.91194 31.4211 5.52264 32.5242C5.76715 33.1157 6.32827 33.4999 6.88715 33.7625C7.98574 34.0611 9.12827 33.6937 10.1322 33.243C11.0787 32.8892 11.9621 32.372 12.939 32.1005C13.5226 31.9304 14.139 31.9811 14.7305 31.8582C14.6956 31.3647 14.539 30.8949 14.4094 30.4205C13.748 30.7551 13.0133 30.9828 12.2652 30.8904C11.0077 30.7394 9.71531 30.4746 8.6494 29.7523C7.96546 29.3658 7.44602 28.7551 7.03588 28.096C6.66855 27.4977 6.53109 26.7935 6.18405 26.185C5.77165 27.0492 5.4832 27.9698 5.2601 28.9005ZM14.0748 26.363C14.3925 28.2222 14.8207 30.0611 15.1733 31.9146C15.4562 33.3749 15.7638 34.9106 16.7238 36.096C17.4956 36.9873 18.4004 37.7906 19.4595 38.3202C18.9683 37.5799 18.5007 36.8137 18.2224 35.9653C17.3424 33.4526 17.1733 30.6785 15.7671 28.363C15.2973 27.6216 14.7317 26.9456 14.0748 26.363ZM31.8224 29.1157C30.5694 31.6013 30.5424 34.4971 29.3288 36.9974C29.117 37.4537 28.7846 37.8436 28.584 38.3067C29.9024 37.5371 31.1587 36.5411 31.8731 35.1608C32.4522 33.9946 32.6505 32.6932 32.9131 31.4301C33.1147 30.3653 33.3559 29.3084 33.5553 28.2425C33.6624 27.616 33.8584 27.003 33.8911 26.3642C33.0359 27.1416 32.3226 28.0723 31.8224 29.1157ZM39.4077 30.0599C38.6055 30.4825 37.7074 30.6537 36.824 30.8182C36.2291 30.9174 35.6162 30.9264 35.0224 30.8227C34.4962 30.7371 34.1142 30.3089 33.6015 30.1816C33.4787 30.7281 33.33 31.2701 33.2612 31.8256C33.846 31.918 34.4353 31.9935 35.0167 32.114C35.8494 32.2785 36.5615 32.772 37.3548 33.0481C38.086 33.296 38.7733 33.6915 39.5497 33.7918C40.2359 33.9247 41.0145 33.9304 41.6004 33.4932C42.3125 32.9354 42.8286 32.0937 42.8669 31.1743C42.9638 29.6825 42.6077 28.1884 42.0905 26.7991C41.6049 28.1489 40.6821 29.3704 39.4077 30.0599ZM10.1322 27.2611C10.4804 28.2785 11.65 28.6887 12.6302 28.7867C11.8415 28.212 10.9705 27.7568 10.1322 27.2611ZM42.895 27.7794C43.0077 28.5467 43.2601 29.2926 43.2793 30.0735C43.3638 31.172 43.2094 32.3687 42.4826 33.243C42.0883 33.7749 41.437 33.9923 40.9469 34.4137C40.1649 35.0492 39.2342 35.4582 38.2877 35.7827C39.8426 36.2042 41.3762 36.932 43.0246 36.8126C44.0049 36.7484 44.8871 36.2177 45.5576 35.5258C45.6162 35.2306 45.5125 34.932 45.4652 34.6425C45.0674 32.7135 44.4781 30.8205 43.6094 29.0504C43.3886 28.6177 43.25 28.1287 42.895 27.7794ZM3.8956 36.5501C4.68433 36.9084 5.58123 36.8656 6.41616 36.7225C7.52827 36.4926 8.60996 36.1298 9.68151 35.758C9.06405 35.5664 8.44771 35.3501 7.89447 35.012C7.35024 34.7011 6.89616 34.2616 6.35081 33.9551C5.73672 33.6115 5.25109 33.0492 4.9863 32.3991C4.58855 31.4729 4.67531 30.4498 4.69898 29.4695C3.59926 31.6261 3.22743 34.2008 3.8956 36.5501ZM10.9897 33.3467C11.517 33.5585 12.0793 33.6768 12.5897 33.9315C13.4359 34.336 14.2178 34.9501 14.6674 35.7873C15.1519 36.6481 15.1598 37.6813 15.0798 38.6402C14.8601 40.3878 13.8866 42.0982 12.3373 42.9895C11.7288 43.3557 11.0111 43.4402 10.3621 43.7106C9.84264 43.9191 9.29841 44.0532 8.76658 44.2233C11.8888 44.7833 15.3863 43.3208 16.9457 40.505C17.3964 39.6464 17.5452 38.6729 17.7345 37.732C17.3176 37.2318 16.8105 36.816 16.3857 36.3225C15.5564 35.3039 15.1959 34.0081 14.9277 32.7461C14.8691 32.5827 14.8748 32.2819 14.6325 32.2977C13.3367 32.247 12.1367 32.816 10.9897 33.3467ZM33.1305 32.3168C32.9142 33.5811 32.5976 34.8622 31.8866 35.9484C31.4528 36.6391 30.797 37.1416 30.2438 37.7298C30.317 38.1873 30.4026 38.6425 30.5187 39.092C30.9097 40.8509 32.1705 42.3382 33.7209 43.2137C35.2353 44.0994 37.0235 44.4622 38.7666 44.3157C38.5378 44.1512 38.264 44.0791 38.0004 43.9946C37.4257 43.8132 36.9074 43.4932 36.3373 43.2994C34.6866 42.7416 33.5452 41.1957 33.0776 39.5653C32.735 38.2796 32.7069 36.8216 33.3829 35.6363C34.1807 34.3664 35.6274 33.6712 37.0573 33.3884C35.8314 32.8058 34.5266 32.1771 33.1305 32.3168ZM10.0826 33.6813C10.1807 33.8233 10.3102 33.9371 10.4635 34.0171C11.0055 34.3225 11.5249 34.6661 12.0162 35.0492C12.1942 35.1811 12.3767 35.3444 12.6145 35.3388C13.17 35.3805 13.7018 35.5529 14.2111 35.7726C13.2567 34.478 11.6533 33.7918 10.0826 33.6813ZM36.77 33.8571C35.8877 34.1095 35.0032 34.4757 34.3373 35.1258C34.1424 35.3185 33.9069 35.5022 33.8347 35.7794C34.1998 35.5619 34.6122 35.4436 35.0325 35.3861C35.2995 35.3287 35.6117 35.3591 35.819 35.1461C36.4871 34.5895 37.2781 34.2109 37.9756 33.6949C37.5655 33.6633 37.1632 33.7546 36.77 33.8571ZM7.61278 34.3022C8.16489 34.772 8.85785 35.0481 9.53616 35.2847C10.2336 35.5337 10.9886 35.5078 11.7029 35.3512C11.0573 34.7901 10.2911 34.3889 9.55757 33.9608C8.90968 34.0712 8.27757 34.2875 7.61278 34.3022ZM38.4286 33.9664C37.6759 34.3664 36.9074 34.7687 36.2674 35.3422C37.7007 35.7478 39.2116 35.1619 40.3553 34.3033C39.6995 34.2718 39.0686 34.0858 38.4286 33.9664ZM6.90855 38.4419C7.38743 38.7011 7.94517 38.7957 8.38574 39.1315C8.73729 39.332 8.96489 39.687 9.30855 39.8954C10.2291 40.1084 11.1238 39.6374 11.8449 39.1089C12.104 38.8892 12.4781 38.7011 12.4826 38.3135C11.7795 38.4678 11.0967 38.8351 10.3576 38.7135C9.68602 38.6526 9.26348 38.0385 8.6494 37.8425C8.01278 37.7816 7.44376 38.1489 6.90855 38.4419ZM38.0229 38.5974C37.7255 38.745 37.3818 38.7258 37.0584 38.7157C36.5063 38.7089 36.0218 38.4047 35.4877 38.3101C35.5057 38.6909 35.8607 38.896 36.1288 39.1078C36.8522 39.6408 37.7435 40.1129 38.6708 39.8966C38.9863 39.6949 39.2049 39.3726 39.5249 39.1732C39.9474 38.8588 40.4455 38.6763 40.9514 38.5444C40.9593 38.5118 40.9739 38.4464 40.9818 38.4149C40.5255 38.0982 39.9914 37.8447 39.4291 37.8233C38.886 37.927 38.5187 38.3878 38.0229 38.5974ZM6.33165 38.8723C5.78517 39.6475 5.32546 40.5951 5.49109 41.5687C5.69278 42.4374 6.36095 43.118 7.09109 43.5878C7.39193 43.7647 7.72095 43.9765 8.08602 43.9247C8.64377 43.8346 9.19926 43.7016 9.72095 43.4819C9.13503 43.2104 8.50968 42.9906 8.02179 42.5501C7.47081 42.1354 6.95024 41.5123 7.06067 40.7743C7.13165 40.1444 7.70855 39.7805 8.21222 39.4999C7.65785 39.1258 7.00771 38.8656 6.33165 38.8723ZM39.8066 39.5157C40.1784 39.7602 40.6021 39.9923 40.8038 40.4104C41.0077 40.7968 40.9559 41.2746 40.7508 41.6498C40.4443 42.2244 39.9102 42.6346 39.3649 42.9681C38.9277 43.2442 38.4139 43.3422 37.9497 43.5574C38.3914 43.7016 38.8319 43.8537 39.2793 43.9833C39.5001 44.0374 39.7367 44.1298 39.9598 44.0295C40.5108 43.838 41.0212 43.5326 41.4652 43.1563C42.0443 42.638 42.5581 41.9326 42.5142 41.1168C42.4725 40.3112 42.1322 39.5225 41.6274 38.9005C40.9807 38.8543 40.3069 39.1078 39.8066 39.5157Z" fill="#4F2128"/>
<path d="M23.2505 9.95505C23.3947 9.56407 23.5186 9.13139 23.8646 8.86548C24.1868 9.31731 24.2555 9.88069 24.3829 10.4058C24.6769 11.5438 24.4595 12.7393 24.1057 13.8379C24.0347 13.9967 23.9896 14.2694 23.762 14.2559C23.4972 13.9505 23.4758 13.5167 23.3395 13.1494C22.9913 12.1274 22.8922 10.9883 23.2505 9.95505ZM23.8071 13.3038C24.2893 12.1455 24.1417 10.8508 23.8071 9.67449C23.2302 10.8058 23.371 12.1511 23.8071 13.3038Z" fill="#4F2128"/>
<path d="M21.8224 27.5608C21.89 27.5472 22.0263 27.5213 22.0939 27.5078C22.2584 27.8165 22.0612 28.4295 22.5671 28.4396C23.5204 28.4757 24.4781 28.4611 25.4314 28.4441C25.908 28.4363 25.8438 27.8582 25.8753 27.5315C26.0781 27.5011 26.29 27.5991 26.2325 27.8368C26.237 28.0813 26.237 28.3574 26.0635 28.5512C25.7886 28.8825 25.3176 28.8272 24.9345 28.8881C24.7114 29.2149 24.4443 29.652 23.9857 29.6013C23.5564 29.616 23.3908 29.1472 23.17 28.861C22.7733 28.8408 22.2809 28.923 22.0015 28.5703C21.7142 28.3157 21.7705 27.8988 21.8224 27.5608ZM23.6319 28.8836C23.7446 29.0053 23.8426 29.1585 24.0038 29.2216C24.21 29.2194 24.3305 29.0143 24.4578 28.8802C24.1829 28.8644 23.9069 28.8656 23.6319 28.8836Z" fill="#4F2128"/>
<path d="M22.1896 32.1095C22.5411 31.9563 22.9006 31.7174 23.3006 31.7805C23.6104 31.8076 23.7919 32.1332 24.0837 32.1873C24.3541 31.9845 24.6088 31.6712 24.9907 31.7726C26.1321 31.989 27.0358 32.7878 27.9045 33.5067C28.1085 33.6216 27.9259 33.8019 27.8043 33.8864C27.224 34.3585 26.6797 34.8723 26.1073 35.3523C25.8313 35.5878 25.4719 35.6994 25.1124 35.7061C24.4735 35.7185 23.8358 35.7039 23.198 35.7129C22.7902 35.7005 22.3316 35.7197 22.0003 35.4425C21.2972 34.8723 20.6392 34.2481 19.9395 33.6735C20.5738 33.0064 21.3535 32.4892 22.1896 32.1095ZM22.0465 32.6436C21.651 32.8599 21.1992 33.0267 20.922 33.403C22.9637 33.4335 25.0065 33.4335 27.0482 33.4053C26.5671 32.8464 25.8741 32.5028 25.2003 32.2312C24.8071 32.0194 24.5276 32.4307 24.2042 32.576C23.8088 32.6864 23.5248 32.3112 23.1902 32.1771C22.7789 32.2425 22.4161 32.4656 22.0465 32.6436ZM20.8273 33.8256C21.2273 34.2819 21.722 34.638 22.1761 35.0357C22.6628 35.4977 23.3862 35.2678 23.9868 35.3185C24.6268 35.2723 25.3761 35.4932 25.9102 35.0301C26.3552 34.6616 26.7541 34.2414 27.1485 33.8211C25.0414 33.8436 22.9344 33.8301 20.8273 33.8256Z" fill="#4F2128"/>
<path d="M17.6514 4.044C19.1162 3.32963 20.8706 3.48513 22.3275 4.13977C22.7962 4.36738 23.3123 4.53752 23.7111 4.88118C23.7506 5.71048 23.4103 6.49808 23.1511 7.26992C22.9111 7.86597 22.7478 8.49471 22.4402 9.06147C21.3686 7.74766 20.2903 6.42935 19.0328 5.28569C18.599 4.84175 18.092 4.47893 17.6514 4.044Z" fill="#F89A5C"/>
<path d="M27.1157 3.67892C28.194 3.44568 29.3309 3.61808 30.3439 4.02934C29.0492 5.15498 27.785 6.32568 26.6875 7.65075C26.1591 8.18934 25.7985 8.86878 25.2464 9.38371C25.0121 8.78765 24.8532 8.16568 24.6391 7.56174C24.4104 6.90033 24.1828 6.21864 24.2391 5.50765C24.2797 5.24737 24.1343 4.85751 24.4408 4.72343C25.2881 4.27723 26.1692 3.86033 27.1157 3.67892Z" fill="#F89A5C"/>
<path d="M13.5707 7.80859C16.2648 7.8469 18.9284 8.85536 20.9904 10.5849C20.5769 10.8114 20.1577 11.0401 19.8017 11.3534C19.1504 11.9213 18.6794 12.6559 18.2174 13.3771C18.0957 13.5934 17.8805 13.7252 17.6574 13.8154C16.5701 14.274 15.4681 14.7145 14.3222 15.0063C12.2805 15.581 10.1724 15.9066 8.1701 16.6187C7.75433 16.7686 7.34869 16.9466 6.91602 17.0458C7.14024 16.6154 7.53461 16.3202 7.87827 15.9911C9.33179 14.6278 10.8428 13.2587 11.8242 11.4965C12.4698 10.2976 12.9848 9.03564 13.5707 7.80859Z" fill="#F89A5C"/>
<path d="M26.9678 10.5847C29.0331 8.8777 31.6799 7.84897 34.3683 7.8208C35.1469 9.22362 35.6303 10.7808 36.5329 12.1171C37.4805 13.6112 38.8326 14.7752 40.0923 15.9954C40.4281 16.3324 40.8236 16.6242 41.0613 17.0478C40.5419 16.9216 40.0562 16.694 39.5503 16.5307C36.7774 15.6101 33.8207 15.3104 31.1255 14.1464C30.6117 13.9031 29.9436 13.8016 29.6607 13.2462C29.0151 12.1464 28.1554 11.1166 26.9678 10.5847Z" fill="#F89A5C"/>
<path d="M15.6879 15.013C16.3391 14.808 16.96 14.5195 17.6124 14.3145C17.3104 14.8621 17.0084 15.4423 16.5464 15.8705C14.5757 17.0784 12.3031 17.6429 10.0845 18.204C8.89122 18.5207 7.67319 18.7505 6.50136 19.1449C5.89404 19.3432 5.33178 19.6519 4.72559 19.8502C5.01404 19.3207 5.36333 18.8271 5.73178 18.3516C6.06756 17.9021 6.61066 17.697 7.10305 17.4716C9.84221 16.2604 12.8709 15.9854 15.6879 15.013Z" fill="#F89A5C"/>
<path d="M30.3691 14.311C30.795 14.4327 31.1995 14.6153 31.6097 14.7809C34.7804 15.9877 38.2643 16.1961 41.337 17.6902C41.6683 17.8648 42.0164 18.0462 42.2418 18.3584C42.5877 18.8271 42.9584 19.2868 43.1961 19.8231C42.4581 19.582 41.7674 19.2136 41.017 19.0074C38.7026 18.346 36.315 17.9324 34.0547 17.0862C33.1274 16.7415 32.1843 16.3899 31.364 15.8265C30.9415 15.3927 30.6316 14.8541 30.3691 14.311Z" fill="#F89A5C"/>
<path d="M16.8623 16.4912C17.0043 16.3177 17.2443 16.3369 17.4449 16.3121C18.4184 16.2501 19.3874 16.4011 20.3531 16.5036C20.7001 16.5532 21.0854 16.569 21.3694 16.8033C21.7502 17.1256 22.0567 17.547 22.1897 18.0338C20.4466 17.4253 18.7452 16.5611 16.8623 16.4912Z" fill="#F89A5C"/>
<path d="M27.0396 16.5635C28.1212 16.4373 29.2074 16.2627 30.2993 16.3089C30.5021 16.337 30.7702 16.2908 30.8931 16.4982C29.0103 16.5703 27.3145 17.4537 25.5703 18.0542C25.8666 17.4277 26.261 16.6334 27.0396 16.5635Z" fill="#F89A5C"/>
<path d="M10.4012 20.1049C11.0288 19.9066 11.6361 19.6553 12.2412 19.3984C12.2942 19.7928 12.4666 20.1939 12.3945 20.5917C11.6902 21.2486 10.9263 21.8683 10.4181 22.7021C9.65644 23.8773 9.24743 25.3376 9.51898 26.7314C9.70377 27.7894 10.5432 28.6548 11.5471 28.9883C12.3956 29.261 13.3094 29.252 14.1792 29.0942C14.2243 29.3928 14.4463 29.7421 14.2502 30.0204C13.644 30.4317 12.8857 30.5759 12.1646 30.4745C11.0683 30.3348 9.96405 30.0655 9.00292 29.5032C7.71052 28.666 6.76743 27.2306 6.67052 25.6767C6.59728 25.1956 7.01982 24.8632 7.26996 24.5106C8.25137 23.2463 9.33531 22.0058 9.89194 20.4813C9.94489 20.2401 10.204 20.1815 10.4012 20.1049Z" fill="#F89A5C"/>
<path d="M35.7258 19.4761C36.3602 19.6113 36.9461 19.8986 37.5579 20.1059C37.7506 20.1949 38.0221 20.2423 38.0773 20.4845C38.803 22.5476 40.519 24.009 41.6311 25.8434C41.9218 26.2873 41.6086 26.8102 41.443 27.2417C40.9033 28.5375 39.7686 29.5257 38.4582 29.9944C37.5725 30.2874 36.6464 30.5059 35.7089 30.5014C34.972 30.4981 34.3613 30.0428 33.71 29.7657C33.7224 29.4975 33.7573 29.2316 33.8024 28.9668C35.0678 29.2958 36.5078 29.36 37.6627 28.6558C38.4593 28.2085 38.9134 27.3251 39.0407 26.4451C39.2109 25.1955 38.8323 23.9257 38.1866 22.862C37.6018 21.8637 36.7185 21.0907 35.8272 20.373C35.488 20.1859 35.7066 19.7702 35.7258 19.4761Z" fill="#F89A5C"/>
<path d="M7.71855 21.1256C8.29207 20.9183 8.84644 20.6535 9.43912 20.5002C9.04926 21.6157 8.27067 22.5284 7.57208 23.4614C6.69996 24.5431 5.82221 25.6687 5.37151 26.9994C5.14729 27.7048 4.70334 28.3087 4.42841 28.9926C3.49658 30.9363 2.95236 33.1211 3.23292 35.2811C3.28362 35.6135 3.34334 35.9436 3.3794 36.2783C2.19405 35.574 1.40644 34.347 0.919676 33.085C0.561366 32.0879 0.354043 31.0197 0.44531 29.9571C0.500521 29.1605 0.809254 28.4157 1.07517 27.6732C1.53489 26.4811 2.02278 25.2642 2.89151 24.3031C4.1456 22.7876 5.93151 21.867 7.71855 21.1256Z" fill="#F89A5C"/>
<path d="M38.5273 20.4937C40.1758 21.03 41.7825 21.7286 43.2518 22.6548C44.3403 23.4255 45.316 24.3844 45.9662 25.5596C46.5228 26.5984 46.9194 27.7106 47.3082 28.8193C47.929 30.9545 47.2597 33.2937 45.9673 35.0435C45.2203 31.0525 43.5684 27.1798 40.9059 24.0869C40.0192 22.9613 39.0276 21.8593 38.5273 20.4937Z" fill="#F89A5C"/>
<path d="M35.1286 22.497C35.2638 21.8818 35.345 21.2497 35.5737 20.6604C36.065 21.0266 36.1822 21.6531 36.3624 22.2007C36.5089 22.6796 36.5348 23.2711 36.154 23.6508C35.7698 23.9945 35.2751 24.1894 34.7861 24.3325C34.8503 23.7117 35.0283 23.1111 35.1286 22.497Z" fill="#F89A5C"/>
<path d="M11.7962 22.7481C11.9077 22.1385 12.1195 21.4997 12.5488 21.0388C12.7686 22.0709 13.0153 23.0985 13.1584 24.1453C12.541 23.9256 11.7353 23.5233 11.7962 22.7481Z" fill="#F89A5C"/>
<path d="M36.3958 25.6923C37.1395 25.3746 37.7806 24.8709 38.3192 24.2715C38.5649 24.5791 38.7079 25.0456 38.4679 25.3971C38.042 26.0777 37.4674 26.6523 36.8634 27.174C36.3023 27.6078 35.6657 27.9312 35.064 28.3053C34.7305 28.4833 34.3406 28.7774 33.9541 28.5577C33.9925 27.8501 34.1829 27.1504 34.344 26.4608C35.0234 26.1982 35.7502 26.0495 36.3958 25.6923Z" fill="#F89A5C"/>
<path d="M9.82776 26.0191C9.81311 25.4918 9.85593 24.9453 10.096 24.4653C10.932 25.3239 12.0092 25.9222 13.1574 26.249C13.3579 26.3267 13.6633 26.3538 13.687 26.6242C13.8391 27.3127 14.0058 28.0022 14.0667 28.7065C13.8594 28.72 13.6351 28.7943 13.4413 28.6828C12.6481 28.2929 11.8977 27.822 11.136 27.3735C10.6988 27.1166 10.2819 26.8124 9.94269 26.4327C9.82438 26.3267 9.83678 26.1622 9.82776 26.0191Z" fill="#F89A5C"/>
<path d="M42.8955 27.7793C43.2504 28.1286 43.389 28.6176 43.6098 29.0503C44.4786 30.8204 45.0678 32.7134 45.4656 34.6424C45.5129 34.932 45.6166 35.2306 45.558 35.5258C44.8876 36.2176 44.0053 36.7483 43.025 36.8125C41.3766 36.932 39.8431 36.2041 38.2881 35.7827C39.2346 35.4582 40.1653 35.0491 40.9473 34.4137C41.4374 33.9922 42.0887 33.7748 42.4831 33.243C43.2098 32.3686 43.3642 31.172 43.2797 30.0734C43.2605 29.2925 43.0081 28.5466 42.8955 27.7793Z" fill="#F89A5C"/>
<path d="M3.89563 36.5498C3.22747 34.2005 3.5993 31.6259 4.69901 29.4692C4.67535 30.4495 4.58859 31.4726 4.98634 32.3988C5.25113 33.049 5.73676 33.6112 6.35084 33.9549C6.8962 34.2614 7.35028 34.7008 7.8945 35.0118C8.44774 35.3498 9.06408 35.5661 9.68155 35.7577C8.61 36.1295 7.52831 36.4923 6.4162 36.7222C5.58127 36.8653 4.68437 36.9081 3.89563 36.5498Z" fill="#F89A5C"/>
<path d="M10.9897 33.3466C12.1367 32.8159 13.3367 32.2469 14.6325 32.2976C14.8748 32.2818 14.8691 32.5827 14.9277 32.746C15.1959 34.008 15.5565 35.3038 16.3858 36.3224C16.8105 36.8159 17.3176 37.2317 17.7345 37.732C17.5452 38.6728 17.3965 39.6463 16.9458 40.5049C15.3863 43.3207 11.8889 44.7832 8.7666 44.2232C9.29843 44.0531 9.84266 43.919 10.3621 43.7106C11.0111 43.4401 11.7289 43.3556 12.3373 42.9894C13.8866 42.0982 14.8601 40.3877 15.0798 38.6401C15.1598 37.6813 15.152 36.648 14.6674 35.7872C14.2179 34.95 13.4359 34.3359 12.5897 33.9314C12.0793 33.6767 11.517 33.5584 10.9897 33.3466Z" fill="#F89A5C"/>
<path d="M33.1309 32.3166C34.5269 32.1769 35.8317 32.8056 37.0576 33.3881C35.6278 33.671 34.181 34.3662 33.3833 35.636C32.7072 36.8214 32.7354 38.2794 33.0779 39.565C33.5455 41.1955 34.6869 42.7414 36.3376 43.2991C36.9078 43.4929 37.4261 43.8129 38.0007 43.9943C38.2644 44.0788 38.5382 44.151 38.7669 44.3155C37.0238 44.4619 35.2356 44.0991 33.7213 43.2135C32.1709 42.338 30.91 40.8507 30.519 39.0918C30.403 38.6422 30.3173 38.187 30.2441 37.7296C30.7973 37.1414 31.4531 36.6388 31.8869 35.9481C32.5979 34.8619 32.9145 33.5808 33.1309 32.3166Z" fill="#F89A5C"/>
<path d="M7.6123 34.3021C8.27709 34.2875 8.90921 34.0711 9.55709 33.9607C10.2906 34.3889 11.0568 34.79 11.7024 35.3511C10.9881 35.5078 10.2331 35.5337 9.53568 35.2847C8.85737 35.048 8.16442 34.772 7.6123 34.3021Z" fill="#F89A5C"/>
<path d="M38.4287 33.9663C39.0687 34.0857 39.6997 34.2717 40.3555 34.3032C39.2118 35.1618 37.7008 35.7477 36.2676 35.3421C36.9076 34.7686 37.676 34.3663 38.4287 33.9663Z" fill="#F89A5C"/>
<path d="M6.33187 38.8722C7.00793 38.8654 7.65807 39.1257 8.21243 39.4998C7.70877 39.7804 7.13187 40.1443 7.06088 40.7742C6.95046 41.5122 7.47102 42.1353 8.02201 42.5499C8.5099 42.9905 9.13525 43.2102 9.72117 43.4818C9.19948 43.7015 8.64398 43.8345 8.08624 43.9246C7.72117 43.9764 7.39215 43.7646 7.09131 43.5877C6.36117 43.1178 5.693 42.4373 5.49131 41.5685C5.32567 40.595 5.78539 39.6474 6.33187 38.8722Z" fill="#F89A5C"/>
<path d="M39.8061 39.5156C40.3064 39.1078 40.9802 38.8542 41.627 38.9004C42.1317 39.5224 42.472 40.3111 42.5137 41.1168C42.5577 41.9325 42.0439 42.6379 41.4647 43.1562C41.0208 43.5325 40.5103 43.8379 39.9594 44.0294C39.7363 44.1297 39.4996 44.0373 39.2788 43.9832C38.8315 43.8537 38.3909 43.7015 37.9492 43.5573C38.4134 43.3421 38.9272 43.2441 39.3644 42.968C39.9098 42.6345 40.4439 42.2244 40.7503 41.6497C40.9554 41.2745 41.0072 40.7968 40.8033 40.4103C40.6016 39.9923 40.1779 39.7601 39.8061 39.5156Z" fill="#F89A5C"/>
<path d="M15.2842 5.50538C15.7721 4.98143 16.3828 4.58031 17.025 4.27157C17.1681 4.17692 17.3 4.35721 17.4183 4.41918C19.2143 5.88171 20.8031 7.58988 22.1867 9.44566C22.3715 9.62256 22.2566 9.86594 22.1912 10.0665C21.7743 9.75665 21.4183 9.37467 21.0239 9.0389C19.3293 7.54256 17.3574 6.39214 15.2842 5.50538Z" fill="#FDE483"/>
<path d="M30.0134 4.88341C30.2838 4.65468 30.5306 4.38087 30.8562 4.22876C31.4218 4.46538 31.9255 4.82707 32.3953 5.21693C32.49 5.31721 32.6714 5.39721 32.6173 5.5651C30.4945 6.40003 28.5475 7.65073 26.8224 9.13468C26.3514 9.52341 25.9616 10.0012 25.4692 10.3628C25.4692 10.1375 25.4252 9.88397 25.5909 9.70031C26.8866 7.94369 28.3458 6.29637 30.0134 4.88341Z" fill="#FDE483"/>
<path d="M13.8232 7.40388C14.1218 6.84388 14.4519 6.22529 14.9714 5.85571C17.5776 6.83937 19.9246 8.4574 21.9066 10.4044C21.9832 10.5025 22.1781 10.6411 22.0576 10.7763C21.8863 10.8123 21.7646 10.6489 21.6361 10.5667C19.4863 8.67261 16.6919 7.51881 13.8232 7.40388Z" fill="#FDE483"/>
<path d="M32.5893 6.00224C32.7448 5.94703 32.9014 5.85576 33.0715 5.87266C33.5042 6.32787 33.8884 6.84167 34.1532 7.41294C31.8445 7.48844 29.5853 8.25576 27.671 9.54027C26.9442 9.98308 26.3617 10.6276 25.6191 11.0456C25.6383 10.9093 25.6912 10.791 25.778 10.6884C27.7138 8.70421 30.0281 7.07379 32.5893 6.00224Z" fill="#FDE483"/>
<path d="M23.4391 7.67563C23.6036 7.30041 23.6667 6.88351 23.8627 6.52295C23.9686 6.62999 23.9743 6.79224 24.0238 6.92858C24.3112 8.06548 24.7799 9.14718 25.0853 10.2796C25.2565 10.8689 25.3309 11.492 25.2565 12.1038C25.11 13.5697 24.5286 14.9511 23.8526 16.2458C23.2723 15.039 22.6717 13.8063 22.4385 12.4768C22.1782 10.8069 22.8678 9.20577 23.4391 7.67563ZM23.2498 9.95506C22.8915 10.9883 22.9906 12.1275 23.3388 13.1494C23.4751 13.5168 23.4965 13.9506 23.7613 14.2559C23.9889 14.2694 24.034 13.9968 24.105 13.8379C24.4588 12.7393 24.6762 11.5438 24.3822 10.4058C24.2548 9.8807 24.1861 9.31732 23.8638 8.86549C23.5179 9.1314 23.394 9.56408 23.2498 9.95506Z" fill="#FDE483"/>
<path d="M23.8065 13.3036C23.3704 12.1509 23.2296 10.8056 23.8065 9.67432C24.1411 10.8507 24.2887 12.1453 23.8065 13.3036Z" fill="#FDE483"/>
<path d="M20.6798 11.2181C21.0741 10.9703 21.6048 10.9207 21.9463 11.2857C22.0184 11.8266 21.9632 12.3843 22.1119 12.9173C22.4015 14.3336 23.1699 15.5821 23.6488 16.9319C23.7637 16.9319 23.8786 16.9308 23.9947 16.9297C24.7091 15.4074 25.5181 13.8683 25.6488 12.1601C25.6139 11.6103 26.0691 11.1348 26.5761 11.0029C27.0234 11.0029 27.4133 11.279 27.7513 11.5472C28.691 12.3325 29.3085 13.4165 29.9226 14.4576C30.2246 14.9691 30.5817 15.4457 30.8803 15.9596C29.5237 15.7849 28.1682 16.0452 26.8217 16.1826C26.095 16.319 25.6882 16.9995 25.3288 17.5765C25.1046 17.9325 25.2837 18.3629 25.1834 18.7483C24.5806 21.4818 24.4871 24.2931 24.0341 27.0491C23.9508 26.8396 23.8922 26.6221 23.8505 26.4024C23.3581 23.8074 23.3344 21.1348 22.6426 18.577C22.5423 18.2334 22.6617 17.839 22.4454 17.5291C22.0736 16.9556 21.6567 16.2514 20.9051 16.1725C19.6454 16.0384 18.3823 15.8243 17.1113 15.9291C17.5395 15.2452 17.9744 14.5657 18.3902 13.8739C19.0088 12.8835 19.6578 11.839 20.6798 11.2181Z" fill="#FEFFFE"/>
<path d="M8.24294 19.0817C10.7837 18.4473 13.364 17.8873 15.755 16.7876C14.8671 17.6293 13.7899 18.2411 12.6913 18.7628C10.7387 19.6642 8.65646 20.24 6.69702 21.1245C5.04294 21.8479 3.48463 22.8789 2.35449 24.3054C2.76238 23.2642 3.30097 22.2794 3.82716 21.2946C3.9928 21.0197 4.12012 20.6862 4.42435 20.5363C5.61195 19.8558 6.91223 19.387 8.24294 19.0817Z" fill="#FEFFFE"/>
<path d="M32.2119 16.7876C33.9899 17.5808 35.8626 18.1363 37.7533 18.5927C39.7273 19.0817 41.7769 19.4772 43.5426 20.5397C43.9223 20.7403 44.0564 21.1741 44.2648 21.5211C44.6997 22.3741 45.191 23.2079 45.5155 24.1116C45.111 23.7611 44.7741 23.3386 44.355 23.0051C42.5544 21.4738 40.2885 20.6749 38.0981 19.8828C36.0147 19.1256 33.8648 18.3189 32.2119 16.7876Z" fill="#FEFFFE"/>
<path d="M16.0475 17.0659C16.1646 16.9161 16.363 16.9138 16.5365 16.9026C17.7545 16.8665 18.9353 17.2406 20.061 17.6676C20.7844 17.9482 21.5258 18.2051 22.2131 18.5634C22.4362 19.2631 22.5815 19.9888 22.6638 20.7178C22.5601 21.3228 21.9483 21.6676 21.4221 21.8704C20.9263 21.36 20.8599 20.5792 20.2999 20.1195C19.5573 19.3803 18.4407 19.3127 17.4525 19.3149C16.2525 19.3634 15.0368 19.3668 13.8615 19.6406C13.5652 19.5482 13.323 19.3352 13.0537 19.1865C13.0999 19.0749 13.1506 18.96 13.2779 18.9228C14.2762 18.4293 15.2429 17.8445 16.0475 17.0659Z" fill="#FEFFFE"/>
<path d="M29.1336 17.2013C29.9967 16.9466 30.9184 16.8193 31.813 16.9726C32.6919 17.7985 33.7127 18.4644 34.8012 18.9804C34.6941 19.3455 34.2874 19.4638 34.0068 19.6666C33.3893 19.4728 32.7369 19.4514 32.0981 19.3895C30.9724 19.3478 29.8243 19.2114 28.7155 19.4683C27.8941 19.6385 27.1696 20.2526 26.8947 21.0492C26.7753 21.3872 26.5826 21.7511 26.2457 21.9089C25.7826 21.7219 25.3792 21.3004 25.2812 20.8058C25.2631 20.0295 25.5054 19.2779 25.6338 18.5185C26.773 18.0114 27.9381 17.5585 29.1336 17.2013Z" fill="#FEFFFE"/>
<path d="M34.4048 19.8841C34.7687 19.7004 35.0358 19.3883 35.3468 19.1348C35.3434 19.6531 35.1879 20.1522 35.0921 20.657C34.7935 22.1534 34.4769 23.6463 34.1896 25.1449C34.1468 25.3342 34.1209 25.5314 34.0363 25.7083C33.8245 25.946 33.562 26.1308 33.3333 26.3505C32.3631 27.2812 31.6082 28.4305 31.1259 29.6846C30.2471 31.8187 30.0837 34.168 29.2014 36.2998C28.8499 37.1652 28.3214 37.9494 27.7197 38.6604C27.4369 39.0052 27.0031 39.1584 26.6042 39.3229C25.509 39.6914 24.3316 39.679 23.1913 39.6294C22.2256 39.5945 21.2071 39.4153 20.4217 38.8193C19.7952 38.1477 19.2904 37.3635 18.8871 36.541C17.9778 34.4688 17.7941 32.1759 17.011 30.0632C16.5254 28.6942 15.7625 27.4018 14.6955 26.4046C14.4566 26.1579 14.1783 25.9539 13.9361 25.7117C13.7423 25.0728 13.6837 24.399 13.5237 23.7511C13.2262 22.2615 12.9107 20.7742 12.6211 19.2835C13.171 19.8277 13.882 20.1601 14.593 20.4418C15.0009 20.568 15.109 21.0356 15.4166 21.2914C16.1276 22.0779 17.2206 22.346 18.2403 22.4159C18.8679 22.4688 19.393 22.079 19.962 21.8908C20.451 21.8041 20.8735 22.141 21.2871 22.3472C21.864 22.2018 22.3451 21.8604 22.7958 21.4886C22.9547 22.6503 23.0662 23.8176 23.2149 24.9804C23.349 25.7995 23.4144 26.6401 23.713 27.4221C23.7952 27.6441 24.0994 27.7376 24.2628 27.5381C24.5389 27.0108 24.5355 26.4001 24.6099 25.8232C24.7766 24.5962 24.8994 23.3646 25.0369 22.1342C25.0606 21.9122 25.1158 21.6959 25.1834 21.4852C25.4268 21.9708 25.9124 22.3291 26.4702 22.3167C26.9637 22.1883 27.4245 21.7218 27.9642 21.9314C28.4611 22.141 28.9513 22.4339 29.5113 22.408C30.4578 22.3652 31.464 22.1488 32.1794 21.4863C32.4927 21.226 32.7079 20.8756 32.984 20.5804C33.4369 20.3088 33.9575 20.1691 34.4048 19.8841ZM21.8223 27.5607C21.7704 27.8987 21.7141 28.3156 22.0014 28.5703C22.2809 28.9229 22.7733 28.8407 23.1699 28.861C23.3907 29.1472 23.5563 29.6159 23.9856 29.6012C24.4442 29.6519 24.7113 29.2148 24.9344 28.888C25.3175 28.8272 25.7885 28.8824 26.0634 28.5511C26.2369 28.3573 26.2369 28.0812 26.2324 27.8367C26.2899 27.599 26.078 27.501 25.8752 27.5314C25.8437 27.8581 25.9079 28.4362 25.4313 28.4441C24.478 28.461 23.5203 28.4756 22.5671 28.4395C22.0611 28.4294 22.2583 27.8165 22.0938 27.5077C22.0262 27.5212 21.8899 27.5472 21.8223 27.5607ZM22.1896 32.1094C21.3535 32.4891 20.5738 33.0063 19.9394 33.6733C20.6392 34.248 21.2972 34.8722 22.0003 35.4424C22.3316 35.7195 22.7902 35.7004 23.198 35.7128C23.8358 35.7038 24.4735 35.7184 25.1124 35.706C25.4718 35.6993 25.8313 35.5877 26.1073 35.3522C26.6797 34.8722 27.224 34.3584 27.8042 33.8863C27.9259 33.8018 28.1085 33.6215 27.9045 33.5066C27.0358 32.7877 26.1321 31.9888 24.9907 31.7725C24.6087 31.6711 24.3541 31.9843 24.0837 32.1872C23.7918 32.1331 23.6104 31.8074 23.3006 31.7804C22.9006 31.7173 22.5411 31.9562 22.1896 32.1094Z" fill="#FEFFFE"/>
<path d="M14.4199 19.955C15.3776 19.7521 16.3635 19.7645 17.3371 19.7217C18.3635 19.6643 19.4993 19.7972 20.2486 20.5769C19.7799 20.3752 19.3157 20.1217 18.7973 20.0823C17.8148 20.0023 16.8537 20.311 15.8745 20.3189C15.3652 20.3245 14.8819 20.1521 14.4199 19.955Z" fill="#FEFFFE"/>
<path d="M27.6973 20.4823C28.513 19.6451 29.784 19.6958 30.8623 19.733C31.6894 19.7938 32.5536 19.7228 33.3502 19.9752C32.8387 20.2152 32.273 20.3538 31.7063 20.3155C30.7925 20.2569 29.8888 19.9921 28.9671 20.089C28.5209 20.1352 28.1153 20.3369 27.6973 20.4823Z" fill="#FEFFFE"/>
<path d="M16.1689 20.7032C17.1176 20.6671 18.0596 20.3257 19.0105 20.5218C19.3722 20.5758 19.6979 20.7516 20.0021 20.9465C19.7655 21.2474 19.5818 21.6271 19.21 21.7826C18.4257 22.1849 17.4973 21.9832 16.712 21.6936C16.3018 21.5573 16.2601 21.0603 16.1689 20.7032Z" fill="#FEFFFE"/>
<path d="M27.8301 20.9116C28.1896 20.7482 28.54 20.5352 28.9422 20.4969C29.8008 20.3876 30.6515 20.6164 31.5011 20.7155C31.4391 21.004 31.3941 21.2958 31.3546 21.5899C30.4881 21.9369 29.447 22.2423 28.5704 21.7623C28.2583 21.5516 27.9665 21.2688 27.8301 20.9116Z" fill="#FEFFFE"/>
<path d="M31.9409 20.6772C32.0998 20.6885 32.2587 20.6998 32.4187 20.7122C32.2372 20.8981 32.0479 21.0772 31.8271 21.2147C31.8541 21.0333 31.8947 20.8541 31.9409 20.6772Z" fill="#FEFFFE"/>
<path d="M15.4922 20.6818C15.8144 20.6063 15.8246 20.9297 15.8426 21.1551C15.713 21.0063 15.5891 20.8531 15.4922 20.6818Z" fill="#FEFFFE"/>
<path d="M20.1475 21.3195C20.2252 21.3173 20.3796 21.3105 20.4573 21.3071C20.5125 21.4018 20.5689 21.4953 20.6252 21.5899C20.454 21.5235 20.2309 21.5111 20.1475 21.3195Z" fill="#FEFFFE"/>
<path d="M27.393 21.2734C27.82 21.2047 27.384 21.7996 27.2803 21.4176C27.3085 21.3816 27.3648 21.3095 27.393 21.2734Z" fill="#FEFFFE"/>
<path d="M36.6116 21.5303C37.1907 22.1601 37.7755 22.8103 38.1248 23.6013C38.2544 23.8199 38.0189 23.9968 37.8961 24.1511C36.9721 25.092 35.7237 25.6531 34.4561 25.9607C34.5045 25.5889 34.5755 25.2204 34.6555 24.8553C35.3563 24.5601 36.1845 24.3562 36.6454 23.7015C37.0499 23.0232 36.7749 22.2345 36.6116 21.5303Z" fill="#FEFFFE"/>
<path d="M11.5346 21.9065C11.5549 21.92 11.5966 21.9459 11.6168 21.9595C11.3521 22.4631 11.2788 23.1302 11.627 23.6135C12.0292 24.1893 12.7436 24.3797 13.3013 24.7504C13.4309 25.1392 13.476 25.5504 13.5459 25.9538C12.3008 25.5966 11.0704 24.9972 10.2354 23.9786C10.4946 23.1921 11.0208 22.5397 11.5346 21.9065Z" fill="#FEFFFE"/>
<path d="M14.0742 26.363C14.7311 26.9456 15.2967 27.6216 15.7666 28.363C17.1728 30.6785 17.3418 33.4526 18.2218 35.9653C18.5001 36.8137 18.9677 37.5799 19.459 38.3202C18.3999 37.7906 17.4951 36.9873 16.7232 36.096C15.7632 34.9106 15.4556 33.3749 15.1728 31.9146C14.8201 30.0611 14.392 28.2222 14.0742 26.363Z" fill="#FEFFFE"/>
<path d="M31.8223 29.1156C32.3226 28.0722 33.0358 27.1415 33.8911 26.364C33.8584 27.0029 33.6623 27.6158 33.5553 28.2423C33.3559 29.3082 33.1147 30.3651 32.913 31.4299C32.6505 32.693 32.4522 33.9944 31.873 35.1606C31.1587 36.5409 29.9023 37.537 28.584 38.3066C28.7846 37.8435 29.117 37.4536 29.3288 36.9973C30.5423 34.497 30.5694 31.6012 31.8223 29.1156Z" fill="#FEFFFE"/>
<path d="M23.6318 28.8836C23.9067 28.8655 24.1828 28.8644 24.4577 28.8802C24.3304 29.0143 24.2098 29.2193 24.0036 29.2216C23.8425 29.1585 23.7445 29.0053 23.6318 28.8836Z" fill="#FEFFFE"/>
<path d="M10.083 33.6812C11.6537 33.7916 13.257 34.4778 14.2114 35.7724C13.7021 35.5527 13.1703 35.3803 12.6148 35.3386C12.377 35.3443 12.1945 35.1809 12.0165 35.049C11.5252 34.6659 11.0058 34.3223 10.4638 34.0169C10.3106 33.9369 10.181 33.8231 10.083 33.6812Z" fill="#FEFFFE"/>
<path d="M36.7702 33.8571C37.1635 33.7545 37.5657 33.6633 37.9759 33.6948C37.2784 34.2109 36.4874 34.5895 35.8192 35.1461C35.6119 35.359 35.2998 35.3286 35.0328 35.3861C34.6125 35.4435 34.2001 35.5619 33.835 35.7793C33.9071 35.5021 34.1426 35.3185 34.3376 35.1258C35.0035 34.4757 35.888 34.1095 36.7702 33.8571Z" fill="#FEFFFE"/>
<path d="M6.9082 38.4418C7.44341 38.1488 8.01243 37.7815 8.64905 37.8424C9.26314 38.0384 9.68567 38.6525 10.3572 38.7134C11.0964 38.835 11.7792 38.4677 12.4823 38.3134C12.4778 38.701 12.1037 38.8891 11.8445 39.1088C11.1234 39.6373 10.2288 40.1083 9.30821 39.8953C8.96454 39.6869 8.73694 39.3319 8.38539 39.1314C7.94482 38.7956 7.38708 38.701 6.9082 38.4418Z" fill="#FEFFFE"/>
<path d="M38.0235 38.5973C38.5193 38.3877 38.8866 37.9269 39.4297 37.8232C39.992 37.8447 40.526 38.0982 40.9824 38.4148C40.9745 38.4463 40.9598 38.5117 40.952 38.5444C40.446 38.6762 39.948 38.8587 39.5255 39.1731C39.2055 39.3725 38.9869 39.6948 38.6714 39.8965C37.7441 40.1128 36.8528 39.6407 36.1294 39.1077C35.8613 38.8959 35.5063 38.6908 35.4883 38.31C36.0224 38.4047 36.5069 38.7089 37.059 38.7156C37.3824 38.7258 37.726 38.7449 38.0235 38.5973Z" fill="#FEFFFE"/>
<path d="M22.0464 32.6435C22.416 32.4654 22.7788 32.2423 23.1901 32.177C23.5247 32.3111 23.8087 32.6863 24.2042 32.5759C24.5276 32.4305 24.807 32.0192 25.2002 32.2311C25.874 32.5026 26.567 32.8463 27.0481 33.4052C25.0064 33.4333 22.9636 33.4333 20.9219 33.4029C21.1991 33.0266 21.6509 32.8598 22.0464 32.6435Z" fill="#ED625E"/>
<path d="M20.8271 33.8255C22.9341 33.8301 25.0412 33.8436 27.1482 33.821C26.7538 34.2413 26.355 34.6616 25.9099 35.0301C25.3758 35.4932 24.6265 35.2723 23.9865 35.3185C23.386 35.2678 22.6626 35.4977 22.1758 35.0357C21.7217 34.638 21.2271 34.2819 20.8271 33.8255Z" fill="#ED625E"/>
</svg>
