<svg width="46" height="46" viewBox="0 0 46 46" fill="none" xmlns="http://www.w3.org/2000/svg">
<path d="M0 22.08C0 11.6717 0 6.46683 3.2338 3.2338C6.46683 0 11.671 0 22.08 0H23.92C34.3283 0 39.5332 0 42.7662 3.2338C46 6.46683 46 11.6717 46 22.08V23.92C46 34.329 46 39.5332 42.7662 42.7662C39.5332 46 34.329 46 23.92 46H22.08C11.671 46 6.46683 46 3.2338 42.7662C0 39.5339 0 34.329 0 23.92V22.08Z" fill="#0077FF"/>
<path d="M24.476 33.1391C13.9919 33.1391 8.01186 25.9516 7.7627 13.9916H13.0144C13.1869 22.77 17.0585 26.4883 20.1252 27.255V13.9916H25.0702V21.5625C28.0985 21.2366 31.2802 17.7866 32.3535 13.9916H37.2985C36.4744 18.6683 33.0244 22.1183 30.571 23.5366C33.0244 24.6866 36.9535 27.6958 38.4485 33.1391H33.0052C31.836 29.4975 28.9227 26.68 25.0702 26.2966V33.1391H24.476V33.1391Z" fill="white"/>
</svg>
