<svg width="1433" height="283" viewBox="0 0 1433 283" fill="none" xmlns="http://www.w3.org/2000/svg">
<path d="M163.525 55.6029C145.228 59.4524 126.134 60.07 108.634 67.1514C78.6323 79.2908 70.8291 90.9016 84.516 122.873C96.5781 151.049 120.872 167.997 142.433 185.523C154.934 195.686 146.539 218.125 133.097 221.324C111.589 226.442 87.702 223.965 66.0173 223.248C45.1242 222.558 24.2263 221.455 3.34638 220.361C-4.28366 219.961 3.28475 221 4.98879 221.709C10.8343 224.14 16.3605 227.461 21.9316 230.562" stroke="#282828" stroke-width="5" stroke-linecap="round"/>
<path d="M193.088 31.3511C198.986 97.301 203.927 163.296 208.129 229.408C208.855 240.825 209.35 252.262 210.204 263.668C210.366 265.842 210.177 259.305 210.204 257.124C210.797 208.279 220.019 159.541 216.946 110.651C216.006 95.6966 214.211 73.6871 206.4 60.4148C204.762 57.6313 202.605 55.2301 200.868 52.5234C196.675 45.9879 212.428 48.6145 214.267 48.5776C248.886 47.8832 283.715 43.7937 318.344 45.3056C325.062 45.5989 318.696 46.0976 316.701 45.7867C305.908 44.1046 295.424 41.0276 284.458 40.6862C265.143 40.0846 246.042 44.5448 227.492 50.1174C223.433 51.3369 212.097 53.3539 208.994 58.1051C204.114 65.5744 203.09 83.0618 202.424 91.5957C199.841 124.666 204.829 159.612 198.102 192.068C196.387 200.34 193.322 206.805 202.77 208.043C215.064 209.653 225.777 206.026 237.52 202.269C258.438 195.576 279.428 188.732 300.969 184.946C305.081 184.223 317.517 182.986 313.416 183.791C301.848 186.064 290.29 188.46 278.58 189.662C254.553 192.128 227.07 187.642 203.807 195.821C199.264 197.418 209.111 233.066 210.031 238.261C212.055 249.691 212.906 262.782 210.982 274.35C209.877 280.99 216.797 279.487 221.441 279.451C265.351 279.109 309.559 273.738 353.353 270.405" stroke="#282828" stroke-width="5" stroke-linecap="round"/>
<path d="M1162.21 21.3398C1168.11 87.2897 1173.05 153.285 1177.25 219.396C1177.98 230.814 1178.47 242.25 1179.33 253.657C1179.49 255.831 1179.3 249.294 1179.33 247.113C1179.92 198.268 1189.14 149.53 1186.07 100.639C1185.13 85.6853 1183.33 63.6758 1175.52 50.4035C1173.89 47.6199 1171.73 45.2188 1169.99 42.512C1165.8 35.9765 1181.55 38.6031 1183.39 38.5663C1218.01 37.8718 1252.84 33.7824 1287.47 35.2942C1294.19 35.5875 1287.82 36.0863 1285.82 35.7754C1275.03 34.0932 1264.55 31.0163 1253.58 30.6748C1234.27 30.0733 1215.17 34.5334 1196.62 40.1061C1192.56 41.3255 1181.22 43.3425 1178.12 48.0938C1173.24 55.563 1172.21 73.0505 1171.55 81.5844C1168.96 114.654 1173.95 149.6 1167.23 182.056C1165.51 190.329 1162.45 196.794 1171.89 198.032C1184.19 199.642 1194.9 196.014 1206.64 192.257C1227.56 185.565 1248.55 178.721 1270.09 174.935C1274.21 174.212 1286.64 172.974 1282.54 173.78C1270.97 176.052 1259.41 178.448 1247.7 179.65C1223.68 182.116 1196.19 177.631 1172.93 185.809C1168.39 187.406 1178.23 223.054 1179.15 228.25C1181.18 239.68 1182.03 252.771 1180.11 264.339C1179 270.978 1185.92 269.476 1190.57 269.44C1234.47 269.098 1278.68 263.727 1322.48 260.393" stroke="#282828" stroke-width="5" stroke-linecap="round"/>
<path d="M414.036 53.8707C420.184 97.1179 427.332 139.665 436.943 182.155C440.657 198.575 445.664 219.524 450.687 236.433C450.9 237.148 451.565 244.825 453.799 242.111C457.067 238.143 459.993 226.368 461.406 222.671C478.104 179.004 497.26 136.55 517.94 95.0603C528.15 74.5763 539.177 54.7566 550.183 34.8157C551.11 33.1363 556.769 23.5828 550.615 30.1001C518.273 64.3508 485.682 94.824 448.267 122.392C433.677 133.142 418.165 145.924 401.242 151.937C385.099 157.672 371.086 152.808 356.724 144.141C352.37 141.514 345.863 137.845 341.943 133.94C338.015 130.028 352.406 135.595 357.675 135.672C396.941 136.249 436.426 128.732 475.064 122.199C612.587 98.9462 462.208 123.692 549.491 108.63C557.246 107.292 559.883 105.939 556.493 108.341C555.1 109.328 553.881 110.276 552.517 111.036" stroke="#282828" stroke-width="5" stroke-linecap="round"/>
<path d="M616.311 40.0125C609.654 104.525 586.769 297.644 595.565 233.45C603.089 178.54 608.635 123.744 618.732 69.2687C619.094 67.3154 619.771 46.0686 622.881 56.3729C633.091 90.195 646.878 127.822 668.436 154.824C675.171 163.259 679.801 144.259 681.489 139.907C687.993 123.138 693.581 105.899 698.605 88.5161C701.431 78.7362 706.034 43.4194 707.249 79.0849C708.547 117.199 708.71 155.375 708.805 193.511C708.854 213.158 707.228 234.631 709.669 254.333C710.138 258.116 711.256 246.876 711.571 243.073C714.416 208.738 715.038 174.17 715.548 139.714C715.911 115.166 712.402 86.804 716.239 62.3396C716.544 60.3944 719.43 64.5666 720.129 66.3815C726.377 82.6121 732.929 98.4322 740.443 114.019C747.67 129.01 755.568 143.505 763.264 158.192C764.278 160.128 770.114 176.397 773.464 176.67C776.808 176.942 781.436 163.76 781.763 163.004C790.49 142.794 796.799 121.687 801.731 99.9684C804.369 88.3492 806.555 76.6132 808.56 64.8417C808.661 64.2481 809.111 57.066 810.116 61.8584C816.931 94.3743 816.524 130.141 819.797 163.196C822.144 186.888 821.653 216.601 831.035 237.492" stroke="#282828" stroke-width="5" stroke-linecap="round"/>
<path d="M876.551 77.3779C878.488 139.894 876.702 199.826 873.878 261.928" stroke="#282828" stroke-width="5" stroke-linecap="round"/>
<path d="M839.12 273.835C882.19 271.704 925.732 268.122 967.456 261.928" stroke="#282828" stroke-width="5" stroke-linecap="round"/>
<path d="M820.404 59.5182L943.393 77.3779" stroke="#282828" stroke-width="5" stroke-linecap="round"/>
<path d="M1010.23 86.3078C984.303 322.078 1010.15 65.324 1015.58 65.1407C1019.04 65.024 1017.77 72.4537 1019 76.055C1028.33 103.394 1036.46 125.208 1047.67 152.786C1061.16 185.985 1075.12 225.414 1096.98 253.66C1113.09 274.478 1113.6 209.14 1114.21 204.711C1123.68 135.836 1136.7 69.4312 1154.61 2.9624" stroke="#282828" stroke-width="5" stroke-linecap="round"/>
<path d="M1349.79 68.4481C1352.83 116.179 1355.88 163.909 1358.7 211.657C1359.16 219.467 1360.51 242.704 1358.7 235.139C1345.69 180.528 1345.82 122.979 1340.58 67.1251C1339.43 54.8095 1338.85 51.9259 1350.68 55.5494C1380.7 64.7406 1397.3 95.3055 1415.15 121.366C1416.12 122.789 1426 133.053 1419.9 135.091C1410.59 138.201 1399.14 136.999 1389.6 137.572C1384.81 137.859 1346.4 137.691 1355.29 142.864C1378.8 156.547 1404.27 166.478 1415.3 195.12C1419.68 206.519 1426.55 217.667 1430 229.186" stroke="#282828" stroke-width="5" stroke-linecap="round"/>
</svg>
