<svg width="100" height="100" viewBox="0 0 100 100" fill="white" xmlns="http://www.w3.org/2000/svg"><g><g><path d="M50 -25L49.9962236876121 -10.702903536650757L49.98489398965667 -6.135817990610633L49.96600862222542 -2.8160931419436963L49.93956377368798 -0.1135760791603353L49.90555409699661 2.205760916833153L49.86397269887139 4.25857405516518L49.81481112582419 6.112653260172877L49.758059346967514 7.8113719714497165L49.69370573354121 9.38439100815497L49.621737035077146 10.853010888397236L49.54213835210804 12.233113600545863L49.454893105311996 13.536898655430186L49.35998300096972 14.773966195101423L49.2573879925946 15.952023682406129L49.147086238579305 17.07736431016911L49.02905405568414 18.15520104121414L48.90326586817291 19.18990606462431L48.76969415238119 20.1851863870668L48.62830937647921 21.144215161169953L48.479079935167206 22.06973162912262L48.321972079014614 22.964118361074085L48.156949838125655 23.829461771672733L47.9839749397824 24.66760012311807L47.80300671968229 25.480162028465664L47.61400202634924 26.268597648736957L47.416915118256625 27.034204204076424L47.21169755315442 27.778147011873095L46.998298069043685 28.501476971033128L46.77666245618579 29.205145196872508L46.54673341947276 29.890015352164674L46.308450430418034 30.556874100867105L46.06174956795127 31.206440020979862L45.806563347117645 31.839371244139926L45.54282053468923 32.45627203644015L45.27044595059159 33.05769849363135L44.98936025393358 33.64416349144459L44.69947971229716 34.2161410061459L44.40071595279883 34.77406990003825L44.09297569326971 35.31835725028028L43.776160451715924 35.849381286211035L43.45016623201266 36.367493989677385L43.11488318354792 36.873023404139204L42.77019523226443 37.366275691173456L42.4159796802433 37.84753696710232L42.05210677062567 38.317074947586704L41.67843921427294 38.7751404239629L41.29483167411229 39.22196859170482L40.9011302025944 39.657780248544455L40.49717162709268 40.08278287738271L40.08278287738271 40.49717162709268L39.657780248544455 40.9011302025944L39.22196859170482 41.29483167411229L38.7751404239629 41.67843921427294L38.31707494758671 42.05210677062567L37.84753696710233 42.4159796802433L37.366275691173456 42.77019523226443L36.873023404139204 43.11488318354792L36.367493989677385 43.45016623201266L35.84938128621104 43.776160451715924L35.31835725028028 44.09297569326971L34.77406990003825 44.40071595279883L34.2161410061459 44.69947971229716L33.644163491444594 44.98936025393358L33.05769849363135 45.27044595059159L32.45627203644015 45.54282053468921L31.839371244139933 45.806563347117645L31.206440020979862 46.06174956795127L30.556874100867105 46.308450430418034L29.89001535216468 46.54673341947276L29.205145196872515 46.77666245618579L28.501476971033128 46.998298069043685L27.778147011873095 47.21169755315441L27.034204204076424 47.416915118256625L26.26859764873695 47.614002026349254L25.480162028465664 47.80300671968229L24.667600123118078 47.9839749397824L23.829461771672747 48.156949838125655L22.964118361074092 48.321972079014614L22.06973162912262 48.479079935167206L21.144215161169953 48.62830937647921L20.1851863870668 48.76969415238119L19.18990606462431 48.90326586817291L18.15520104121414 49.02905405568414L17.077364310169116 49.147086238579305L15.952023682406143 49.2573879925946L14.773966195101423 49.35998300096972L13.536898655430186 49.454893105311996L12.23311360054587 49.54213835210804L10.85301088839725 49.621737035077146L9.384391008154992 49.69370573354121L7.811371971449724 49.758059346967514L6.112653260172891 49.81481112582419L4.258574055165173 49.86397269887139L2.2057609168331496 49.90555409699661L-0.11357607916032464 49.93956377368798L-2.816093141943675 49.96600862222542L-6.135817990610597 49.98489398965667L-10.702903536650757 49.9962236876121L-24.999975461183904 50L24.999975461183904 50L10.702903536650757 49.9962236876121L6.135817990610597 49.98489398965667L2.816093141943675 49.96600862222542L0.11357607916032464 49.93956377368798L-2.2057609168331496 49.90555409699661L-4.258574055165173 49.86397269887139L-6.112653260172891 49.81481112582419L-7.811371971449724 49.758059346967514L-9.384391008154992 49.69370573354121L-10.85301088839725 49.621737035077146L-12.23311360054587 49.54213835210804L-13.536898655430186 49.454893105311996L-14.773966195101423 49.35998300096972L-15.952023682406143 49.2573879925946L-17.077364310169116 49.147086238579305L-18.15520104121414 49.02905405568414L-19.18990606462431 48.90326586817291L-20.1851863870668 48.76969415238119L-21.144215161169953 48.62830937647921L-22.06973162912262 48.479079935167206L-22.964118361074092 48.321972079014614L-23.829461771672747 48.156949838125655L-24.667600123118078 47.9839749397824L-25.480162028465664 47.80300671968229L-26.26859764873695 47.614002026349254L-27.034204204076424 47.416915118256625L-27.778147011873095 47.21169755315441L-28.501476971033128 46.998298069043685L-29.205145196872515 46.77666245618579L-29.89001535216468 46.54673341947276L-30.556874100867105 46.308450430418034L-31.206440020979862 46.06174956795127L-31.839371244139933 45.806563347117645L-32.45627203644015 45.54282053468921L-33.05769849363135 45.27044595059159L-33.644163491444594 44.98936025393358L-34.2161410061459 44.69947971229716L-34.77406990003825 44.40071595279883L-35.31835725028028 44.09297569326971L-35.84938128621104 43.776160451715924L-36.367493989677385 43.45016623201266L-36.873023404139204 43.11488318354792L-37.366275691173456 42.77019523226443L-37.84753696710233 42.4159796802433L-38.31707494758671 42.05210677062567L-38.7751404239629 41.67843921427294L-39.22196859170482 41.29483167411229L-39.657780248544455 40.9011302025944L-40.08278287738271 40.49717162709268L-40.49717162709268 40.08278287738271L-40.9011302025944 39.657780248544455L-41.29483167411229 39.22196859170482L-41.67843921427294 38.7751404239629L-42.05210677062567 38.317074947586704L-42.4159796802433 37.84753696710232L-42.77019523226443 37.366275691173456L-43.11488318354792 36.873023404139204L-43.45016623201266 36.367493989677385L-43.776160451715924 35.849381286211035L-44.09297569326971 35.31835725028028L-44.40071595279883 34.77406990003825L-44.69947971229716 34.2161410061459L-44.98936025393358 33.64416349144459L-45.27044595059159 33.05769849363135L-45.54282053468923 32.45627203644015L-45.806563347117645 31.839371244139926L-46.06174956795127 31.206440020979862L-46.308450430418034 30.556874100867105L-46.54673341947276 29.890015352164674L-46.77666245618579 29.205145196872508L-46.998298069043685 28.501476971033128L-47.21169755315442 27.778147011873095L-47.416915118256625 27.034204204076424L-47.61400202634924 26.268597648736957L-47.80300671968229 25.480162028465664L-47.9839749397824 24.66760012311807L-48.156949838125655 23.829461771672733L-48.321972079014614 22.964118361074085L-48.479079935167206 22.06973162912262L-48.62830937647921 21.144215161169953L-48.76969415238119 20.1851863870668L-48.90326586817291 19.18990606462431L-49.02905405568414 18.15520104121414L-49.147086238579305 17.07736431016911L-49.2573879925946 15.952023682406129L-49.35998300096972 14.773966195101423L-49.454893105311996 13.536898655430186L-49.54213835210804 12.233113600545863L-49.621737035077146 10.853010888397236L-49.69370573354121 9.38439100815497L-49.758059346967514 7.8113719714497165L-49.81481112582419 6.112653260172877L-49.86397269887139 4.25857405516518L-49.90555409699661 2.205760916833153L-49.93956377368798 -0.1135760791603353L-49.96600862222542 -2.8160931419436963L-49.98489398965667 -6.135817990610633L-49.9962236876121 -10.702903536650757L-50 -25L-50 25L-49.9962236876121 10.702903536650757L-49.98489398965667 6.135817990610633L-49.96600862222542 2.8160931419436963L-49.93956377368798 0.1135760791603353L-49.90555409699661 -2.205760916833153L-49.86397269887139 -4.25857405516518L-49.81481112582419 -6.112653260172877L-49.758059346967514 -7.8113719714497165L-49.69370573354121 -9.38439100815497L-49.621737035077146 -10.853010888397236L-49.54213835210804 -12.233113600545863L-49.454893105311996 -13.536898655430186L-49.35998300096972 -14.773966195101423L-49.2573879925946 -15.952023682406129L-49.147086238579305 -17.07736431016911L-49.02905405568414 -18.15520104121414L-48.90326586817291 -19.18990606462431L-48.76969415238119 -20.1851863870668L-48.62830937647921 -21.144215161169953L-48.479079935167206 -22.06973162912262L-48.321972079014614 -22.964118361074085L-48.156949838125655 -23.829461771672733L-47.9839749397824 -24.66760012311807L-47.80300671968229 -25.480162028465664L-47.61400202634924 -26.268597648736957L-47.416915118256625 -27.034204204076424L-47.21169755315442 -27.778147011873095L-46.998298069043685 -28.501476971033128L-46.77666245618579 -29.205145196872508L-46.54673341947276 -29.890015352164674L-46.308450430418034 -30.556874100867105L-46.06174956795127 -31.206440020979862L-45.806563347117645 -31.839371244139926L-45.54282053468923 -32.45627203644015L-45.27044595059159 -33.05769849363135L-44.98936025393358 -33.64416349144459L-44.69947971229716 -34.2161410061459L-44.40071595279883 -34.77406990003825L-44.09297569326971 -35.31835725028028L-43.776160451715924 -35.849381286211035L-43.45016623201266 -36.367493989677385L-43.11488318354792 -36.873023404139204L-42.77019523226443 -37.366275691173456L-42.4159796802433 -37.84753696710232L-42.05210677062567 -38.317074947586704L-41.67843921427294 -38.7751404239629L-41.29483167411229 -39.22196859170482L-40.9011302025944 -39.657780248544455L-40.49717162709268 -40.08278287738271L-40.08278287738271 -40.49717162709268L-39.657780248544455 -40.9011302025944L-39.22196859170482 -41.29483167411229L-38.7751404239629 -41.67843921427294L-38.31707494758671 -42.05210677062567L-37.84753696710233 -42.4159796802433L-37.366275691173456 -42.77019523226443L-36.873023404139204 -43.11488318354792L-36.367493989677385 -43.45016623201266L-35.84938128621104 -43.776160451715924L-35.31835725028028 -44.09297569326971L-34.77406990003825 -44.40071595279883L-34.2161410061459 -44.69947971229716L-33.644163491444594 -44.98936025393358L-33.05769849363135 -45.27044595059159L-32.45627203644015 -45.54282053468921L-31.839371244139933 -45.806563347117645L-31.206440020979862 -46.06174956795127L-30.556874100867105 -46.308450430418034L-29.89001535216468 -46.54673341947276L-29.205145196872515 -46.77666245618579L-28.501476971033128 -46.998298069043685L-27.778147011873095 -47.21169755315441L-27.034204204076424 -47.416915118256625L-26.26859764873695 -47.614002026349254L-25.480162028465664 -47.80300671968229L-24.667600123118078 -47.9839749397824L-23.829461771672747 -48.156949838125655L-22.964118361074092 -48.321972079014614L-22.06973162912262 -48.479079935167206L-21.144215161169953 -48.62830937647921L-20.1851863870668 -48.76969415238119L-19.18990606462431 -48.90326586817291L-18.15520104121414 -49.02905405568414L-17.077364310169116 -49.147086238579305L-15.952023682406143 -49.2573879925946L-14.773966195101423 -49.35998300096972L-13.536898655430186 -49.454893105311996L-12.23311360054587 -49.54213835210804L-10.85301088839725 -49.621737035077146L-9.384391008154992 -49.69370573354121L-7.811371971449724 -49.758059346967514L-6.112653260172891 -49.81481112582419L-4.258574055165173 -49.86397269887139L-2.2057609168331496 -49.90555409699661L0.11357607916032464 -49.93956377368798L2.816093141943675 -49.96600862222542L6.135817990610597 -49.98489398965667L10.702903536650757 -49.9962236876121L24.999975461183904 -50L-24.999975461183904 -50L-10.702903536650757 -49.9962236876121L-6.135817990610597 -49.98489398965667L-2.816093141943675 -49.96600862222542L-0.11357607916032464 -49.93956377368798L2.2057609168331496 -49.90555409699661L4.258574055165173 -49.86397269887139L6.112653260172891 -49.81481112582419L7.811371971449724 -49.758059346967514L9.384391008154992 -49.69370573354121L10.85301088839725 -49.621737035077146L12.23311360054587 -49.54213835210804L13.536898655430186 -49.454893105311996L14.773966195101423 -49.35998300096972L15.952023682406143 -49.2573879925946L17.077364310169116 -49.147086238579305L18.15520104121414 -49.02905405568414L19.18990606462431 -48.90326586817291L20.1851863870668 -48.76969415238119L21.144215161169953 -48.62830937647921L22.06973162912262 -48.479079935167206L22.964118361074092 -48.321972079014614L23.829461771672747 -48.156949838125655L24.667600123118078 -47.9839749397824L25.480162028465664 -47.80300671968229L26.26859764873695 -47.614002026349254L27.034204204076424 -47.416915118256625L27.778147011873095 -47.21169755315441L28.501476971033128 -46.998298069043685L29.205145196872515 -46.77666245618579L29.89001535216468 -46.54673341947276L30.556874100867105 -46.308450430418034L31.206440020979862 -46.06174956795127L31.839371244139933 -45.806563347117645L32.45627203644015 -45.54282053468921L33.05769849363135 -45.27044595059159L33.644163491444594 -44.98936025393358L34.2161410061459 -44.69947971229716L34.77406990003825 -44.40071595279883L35.31835725028028 -44.09297569326971L35.84938128621104 -43.776160451715924L36.367493989677385 -43.45016623201266L36.873023404139204 -43.11488318354792L37.366275691173456 -42.77019523226443L37.84753696710233 -42.4159796802433L38.31707494758671 -42.05210677062567L38.7751404239629 -41.67843921427294L39.22196859170482 -41.29483167411229L39.657780248544455 -40.9011302025944L40.08278287738271 -40.49717162709268L40.49717162709268 -40.08278287738271L40.9011302025944 -39.657780248544455L41.29483167411229 -39.22196859170482L41.67843921427294 -38.7751404239629L42.05210677062567 -38.317074947586704L42.4159796802433 -37.84753696710232L42.77019523226443 -37.366275691173456L43.11488318354792 -36.873023404139204L43.45016623201266 -36.367493989677385L43.776160451715924 -35.849381286211035L44.09297569326971 -35.31835725028028L44.40071595279883 -34.77406990003825L44.69947971229716 -34.2161410061459L44.98936025393358 -33.64416349144459L45.27044595059159 -33.05769849363135L45.54282053468923 -32.45627203644015L45.806563347117645 -31.839371244139926L46.06174956795127 -31.206440020979862L46.308450430418034 -30.556874100867105L46.54673341947276 -29.890015352164674L46.77666245618579 -29.205145196872508L46.998298069043685 -28.501476971033128L47.21169755315442 -27.778147011873095L47.416915118256625 -27.034204204076424L47.61400202634924 -26.268597648736957L47.80300671968229 -25.480162028465664L47.9839749397824 -24.66760012311807L48.156949838125655 -23.829461771672733L48.321972079014614 -22.964118361074085L48.479079935167206 -22.06973162912262L48.62830937647921 -21.144215161169953L48.76969415238119 -20.1851863870668L48.90326586817291 -19.18990606462431L49.02905405568414 -18.15520104121414L49.147086238579305 -17.07736431016911L49.2573879925946 -15.952023682406129L49.35998300096972 -14.773966195101423L49.454893105311996 -13.536898655430186L49.54213835210804 -12.233113600545863L49.621737035077146 -10.853010888397236L49.69370573354121 -9.38439100815497L49.758059346967514 -7.8113719714497165L49.81481112582419 -6.112653260172877L49.86397269887139 -4.25857405516518L49.90555409699661 -2.205760916833153L49.93956377368798 0.1135760791603353L49.96600862222542 2.8160931419436963L49.98489398965667 6.135817990610633L49.9962236876121 10.702903536650757L50 25Z" transform="translate(50, 50)"></path></g></g></svg>